<svg class="gridItem__media" version="1.1" id="Layer_1" xmlns="http://www.w3.org/2000/svg" xmlns:xlink="http://www.w3.org/1999/xlink" x="0px" y="0px" width="1600" height="1200" viewBox="0 0 1600 1200" style="enable-background:new 0 0 1600 1200;" xml:space="preserve" fill="none">
<path d="M250.32 1046.88L200.8 487.81C199.537 473.544 203.889 459.347 212.93 448.24L441.56 167.41C447.317 160.335 454.743 154.803 463.169 151.312C471.595 147.821 480.757 146.48 489.83 147.41L1189.07 219.29C1198.76 220.288 1208.01 223.843 1215.88 229.59C1223.74 235.338 1229.94 243.071 1233.84 252L1394.84 620.39C1399.07 630.072 1400.43 640.768 1398.74 651.2L1334.64 1047L250.32 1046.88Z" fill="#F2F2F2"/>
<path d="M1347.62 1047.76H239.001C238.789 1047.76 238.586 1047.68 238.435 1047.53C238.285 1047.38 238.201 1047.17 238.201 1046.96C238.201 1046.75 238.285 1046.54 238.435 1046.39C238.586 1046.24 238.789 1046.16 239.001 1046.16H1347.7C1347.81 1046.16 1347.91 1046.18 1348.01 1046.22C1348.11 1046.26 1348.2 1046.32 1348.27 1046.39C1348.34 1046.47 1348.4 1046.55 1348.44 1046.65C1348.48 1046.75 1348.5 1046.85 1348.5 1046.96C1348.5 1047.07 1348.47 1047.18 1348.43 1047.28C1348.38 1047.38 1348.32 1047.47 1348.23 1047.55C1348.15 1047.62 1348.05 1047.68 1347.95 1047.72C1347.84 1047.75 1347.73 1047.77 1347.62 1047.76V1047.76Z" fill="#AFB3B8"/>
<path opacity="0.3" d="M1113.47 399.86H1227C1230.66 399.86 1234.18 401.315 1236.77 403.905C1239.36 406.495 1240.81 410.008 1240.81 413.67V777C1240.81 779.515 1239.81 781.926 1238.03 783.704C1236.26 785.482 1233.84 786.48 1231.33 786.48H1113.43C1110.92 786.467 1108.53 785.463 1106.76 783.686C1104.99 781.91 1104 779.506 1104 777V777V409.31C1104.01 406.803 1105.01 404.401 1106.78 402.63C1108.56 400.859 1110.96 399.863 1113.47 399.86Z" fill="#263238"/>
<path d="M1213.11 399.86H1095.41C1090.12 399.86 1085.83 404.149 1085.83 409.44V776.89C1085.83 782.181 1090.12 786.47 1095.41 786.47H1213.11C1218.4 786.47 1222.69 782.181 1222.69 776.89V409.44C1222.69 404.149 1218.4 399.86 1213.11 399.86Z" fill="#DADDDF"/>
<path d="M1158.11 431.21H1101.27V445.42H1158.11V431.21Z" fill="#F4F4F4"/>
<path d="M1198.15 458.35H1141.31V472.56H1198.15V458.35Z" fill="#F4F4F4"/>
<path d="M1138.74 484.18H1102.56V498.39H1138.74V484.18Z" fill="#F4F4F4"/>
<path d="M1195.58 484.18H1159.4V498.39H1195.58V484.18Z" fill="#F4F4F4"/>
<path d="M1116.77 510.02H1098.68V524.23H1116.77V510.02Z" fill="#F4F4F4"/>
<path d="M1159.4 510.02H1129.69V524.23H1159.4V510.02Z" fill="#F4F4F4"/>
<path d="M1174.69 540.58H1136.93V554.79H1174.69V540.58Z" fill="#F4F4F4"/>
<path d="M1199.96 540.58H1180.86V554.79H1199.96V540.58Z" fill="#F4F4F4"/>
<path d="M1165.58 573.05H1114.41V587.26H1165.58V573.05Z" fill="#F4F4F4"/>
<path d="M1210.97 573.05H1181.26V587.26H1210.97V573.05Z" fill="#F4F4F4"/>
<path d="M1155.07 608.39H1137.33V622.6H1155.07V608.39Z" fill="#F4F4F4"/>
<path d="M1217.15 608.39H1172.26V622.6H1217.15V608.39Z" fill="#F4F4F4"/>
<path d="M1205.9 431.21H1174.9V445.42H1205.9V431.21Z" fill="#F4F4F4"/>
<path d="M1101 399.86H1207.44C1211.47 399.86 1215.34 401.461 1218.19 404.312C1221.04 407.162 1222.65 411.028 1222.65 415.06V415.06V786.47H1085.83V415.07C1085.83 411.038 1087.43 407.171 1090.28 404.319C1093.13 401.467 1097 399.863 1101.03 399.86H1101Z" fill="#DADDDF"/>
<path d="M1158.11 431.21H1101.27V445.42H1158.11V431.21Z" fill="#F4F4F4"/>
<path d="M1198.15 458.35H1141.31V472.56H1198.15V458.35Z" fill="#F4F4F4"/>
<path d="M1138.74 484.18H1102.56V498.39H1138.74V484.18Z" fill="#F4F4F4"/>
<path d="M1195.58 484.18H1159.4V498.39H1195.58V484.18Z" fill="#F4F4F4"/>
<path d="M1116.77 510.02H1098.68V524.23H1116.77V510.02Z" fill="#F4F4F4"/>
<path d="M1159.4 510.02H1129.69V524.23H1159.4V510.02Z" fill="#F4F4F4"/>
<path d="M1174.69 540.58H1136.93V554.79H1174.69V540.58Z" fill="#F4F4F4"/>
<path d="M1199.96 540.58H1180.86V554.79H1199.96V540.58Z" fill="#F4F4F4"/>
<path d="M1165.58 573.05H1114.41V587.26H1165.58V573.05Z" fill="#F4F4F4"/>
<path d="M1210.97 573.05H1181.26V587.26H1210.97V573.05Z" fill="#F4F4F4"/>
<path d="M1155.07 608.39H1137.33V622.6H1155.07V608.39Z" fill="#F4F4F4"/>
<path d="M1217.15 608.39H1172.26V622.6H1217.15V608.39Z" fill="#F4F4F4"/>
<path d="M1205.9 431.21H1174.9V445.42H1205.9V431.21Z" fill="#F4F4F4"/>
<path opacity="0.3" d="M851.869 327.18H1042.87C1046.64 327.182 1050.25 328.681 1052.91 331.345C1055.57 334.01 1057.07 337.623 1057.07 341.39V631.11H851.869V327.18Z" fill="#263238"/>
<path d="M837.87 327.18H1021.38C1024.25 327.18 1027 328.32 1029.03 330.348C1031.07 332.377 1032.21 335.129 1032.21 338V338V631.1H827V338C827 335.128 828.141 332.373 830.172 330.342C832.203 328.311 834.958 327.17 837.83 327.17L837.87 327.18Z" fill="#DADDDF"/>
<path d="M933.971 360.16H877.131V374.37H933.971V360.16Z" fill="#F4F4F4"/>
<path d="M974.02 387.29H917.18V401.5H974.02V387.29Z" fill="#F4F4F4"/>
<path d="M914.6 413.14H878.42V427.35H914.6V413.14Z" fill="#F4F4F4"/>
<path d="M971.45 413.14H935.27V427.35H971.45V413.14Z" fill="#F4F4F4"/>
<path d="M935.261 438.97H905.551V453.18H935.261V438.97Z" fill="#F4F4F4"/>
<path d="M981.77 360.16H950.77V374.37H981.77V360.16Z" fill="#F4F4F4"/>
<path d="M896.51 387.29H839.67V401.5H896.51V387.29Z" fill="#F4F4F4"/>
<path d="M1023.12 413.14H986.939V427.35H1023.12V413.14Z" fill="#F4F4F4"/>
<path d="M892.641 438.97H874.551V453.18H892.641V438.97Z" fill="#F4F4F4"/>
<path d="M997.909 438.97H968.199V453.18H997.909V438.97Z" fill="#F4F4F4"/>
<path d="M1002.36 472.16H953.91V486.37H1002.36V472.16Z" fill="#F4F4F4"/>
<path d="M900.57 506.93H876.68V521.14H900.57V506.93Z" fill="#F4F4F4"/>
<path d="M947.07 506.93H923.18V521.14H947.07V506.93Z" fill="#F4F4F4"/>
<path d="M994.641 532.77H958.461V546.979H994.641V532.77Z" fill="#F4F4F4"/>
<path d="M918.659 475.64H868.27V489.85H918.659V475.64Z" fill="#F4F4F4"/>
<path d="M892.641 438.97H874.551V453.18H892.641V438.97Z" fill="#F4F4F4"/>
<path d="M502.739 801.38C496.379 801.38 490.059 798.58 484.969 794.76C438.659 760.12 405.159 734.76 383.889 696.3C363.009 658.56 354.289 609.97 352.889 523.44L352.609 505.78L370.059 503.66C406.939 499.23 471.129 465.79 492.759 453.27L503.169 447.27L513.169 453.86C571.429 492.06 635.349 503.68 635.989 503.79L652.739 506.79L652.109 523.79C649.099 602.53 636.999 658.82 613.899 700.84C593.029 738.92 566.049 759.19 542.269 777.06C535.059 782.48 528.269 788.3 521.649 793.82C516.359 798.24 509.649 801.37 502.759 801.37L502.739 801.38Z" class="change-color-in-svg" fill="#4D61FC"/>
<path opacity="0.2" d="M502.739 801.38C496.379 801.38 490.059 798.58 484.969 794.76C438.659 760.12 405.159 734.76 383.889 696.3C363.009 658.56 354.289 609.97 352.889 523.44L352.609 505.78L370.059 503.66C406.939 499.23 471.129 465.79 492.759 453.27L503.169 447.27L513.169 453.86C571.429 492.06 635.349 503.68 635.989 503.79L652.739 506.79L652.109 523.79C649.099 602.53 636.999 658.82 613.899 700.84C593.029 738.92 566.049 759.19 542.269 777.06C535.059 782.48 528.269 788.3 521.649 793.82C516.359 798.24 509.649 801.37 502.759 801.37L502.739 801.38Z" fill="black"/>
<path d="M502.618 469.63C502.618 469.63 421.449 516.63 372.479 522.48C375.159 686.9 404.508 709 496.798 778C498.598 779.355 500.803 780.063 503.056 780.009C505.308 779.954 507.476 779.141 509.208 777.7C561.638 733.85 625.289 714.82 632.769 522.51C632.769 522.48 565.249 510.73 502.618 469.63ZM502.618 469.63C502.618 469.63 421.449 516.63 372.479 522.48C375.159 686.9 404.508 709 496.798 778C498.598 779.355 500.803 780.063 503.056 780.009C505.308 779.954 507.476 779.141 509.208 777.7C561.638 733.85 625.289 714.82 632.769 522.51C632.769 522.48 565.249 510.73 502.618 469.63ZM502.618 469.63C502.618 469.63 421.449 516.63 372.479 522.48C375.159 686.9 404.508 709 496.798 778C498.598 779.355 500.803 780.063 503.056 780.009C505.308 779.954 507.476 779.141 509.208 777.7C561.638 733.85 625.289 714.82 632.769 522.51C632.769 522.48 565.249 510.73 502.618 469.63Z" class="change-color-in-svg" fill="#4D61FC"/>
<path d="M570.589 586.53L504.689 663.17L487.249 683.42C486.718 684.038 486.029 684.5 485.256 684.757C484.482 685.014 483.654 685.057 482.859 684.88L465.469 663.22L434.359 624.47C433.816 623.796 433.411 623.023 433.167 622.192C432.923 621.362 432.846 620.492 432.938 619.632C433.031 618.772 433.293 617.939 433.708 617.18C434.123 616.421 434.684 615.752 435.359 615.21L448.999 604.31C450.36 603.215 452.099 602.706 453.836 602.894C455.572 603.081 457.163 603.95 458.259 605.31L485.259 638.89L547.509 566.56C548.479 565.441 549.852 564.752 551.329 564.643C552.806 564.534 554.265 565.015 555.389 565.98L569.999 578.67C571.118 579.635 571.808 581.004 571.919 582.478C572.029 583.951 571.551 585.409 570.589 586.53Z" fill="#B2B6BC"/>
<path d="M571.07 588.459L508.44 661.239L491.9 680.469C491.399 681.058 490.746 681.498 490.013 681.742C489.279 681.985 488.493 682.022 487.74 681.849L471.22 661.239L441.69 624.489C440.657 623.189 440.183 621.532 440.37 619.882C440.558 618.233 441.392 616.725 442.69 615.689L455.58 605.339C456.873 604.298 458.526 603.814 460.176 603.992C461.827 604.17 463.339 604.996 464.38 606.289V606.289L489.96 638.169L549 569.489C549.92 568.426 551.224 567.771 552.626 567.668C554.028 567.565 555.414 568.022 556.48 568.939L570.48 581.019C571.544 581.928 572.204 583.222 572.314 584.617C572.425 586.012 571.977 587.394 571.07 588.459Z" fill="white"/>
<path d="M1272.78 822.121H316.539V950.531H1272.78V822.121Z" class="change-color-in-svg" fill="#4D61FC"/>
<path opacity="0.65" d="M1272.78 822.121H316.539V950.531H1272.78V822.121Z" fill="black"/>
<path d="M1260.89 968.83C1260.89 933.31 1263.58 842.83 1148.89 837.7C1027.32 832.19 1042.34 968.83 1042.34 968.83H540.94C540.33 973.83 550.63 836.33 431.66 836.33C389.31 836.33 336.03 847.26 323.06 968.12C323.06 968.12 295.15 969.42 273.33 963.51C266.78 961.697 261.129 957.532 257.457 951.812C253.786 946.093 252.352 939.221 253.43 932.51L254.8 923.71L260.58 886.6L266.92 845.82L272.44 810.31C273.089 806.11 274.773 802.137 277.339 798.749C279.905 795.361 283.273 792.664 287.14 790.9L365 755.38C378.396 749.259 392.7 745.362 407.35 743.84L556 728.38L560.61 725.51C560.61 725.51 625.61 697.61 710.51 649.78C727.709 640.032 746.136 632.633 765.3 627.78C774.157 625.445 783.213 623.945 792.35 623.3C867.48 619.2 1128.35 617.84 1144.75 623.3C1161.15 628.76 1277.26 654.72 1239.01 671.12C1239.01 671.12 1300.24 716.33 1322.56 749.67C1327.13 756.47 1330.07 762.78 1330.56 768.11C1332.18 786.514 1332.2 805.023 1330.63 823.43C1330.64 823.659 1330.61 823.888 1330.56 824.11C1330.56 824.11 1346.96 821.38 1345.56 855.53C1353.78 904.63 1325.09 966.1 1260.89 968.83Z" class="change-color-in-svg" fill="#4D61FC"/>
<path opacity="0.7" d="M1260.89 968.83C1260.89 933.31 1263.58 842.83 1148.89 837.7C1027.32 832.19 1042.34 968.83 1042.34 968.83H540.94C540.33 973.83 550.63 836.33 431.66 836.33C389.31 836.33 336.03 847.26 323.06 968.12C323.06 968.12 295.15 969.42 273.33 963.51C266.78 961.697 261.129 957.532 257.457 951.812C253.786 946.093 252.352 939.221 253.43 932.51L254.8 923.71L260.58 886.6L266.92 845.82L272.44 810.31C273.089 806.11 274.773 802.137 277.339 798.749C279.905 795.361 283.273 792.664 287.14 790.9L365 755.38C378.396 749.259 392.7 745.362 407.35 743.84L556 728.38L560.61 725.51C560.61 725.51 625.61 697.61 710.51 649.78C727.709 640.032 746.136 632.633 765.3 627.78C774.157 625.445 783.213 623.945 792.35 623.3C867.48 619.2 1128.35 617.84 1144.75 623.3C1161.15 628.76 1277.26 654.72 1239.01 671.12C1239.01 671.12 1300.24 716.33 1322.56 749.67C1327.13 756.47 1330.07 762.78 1330.56 768.11C1332.18 786.514 1332.2 805.023 1330.63 823.43C1330.64 823.659 1330.61 823.888 1330.56 824.11C1330.56 824.11 1346.96 821.38 1345.56 855.53C1353.78 904.63 1325.09 966.1 1260.89 968.83Z" fill="white"/>
<path opacity="0.3" d="M1288.69 963.2L1262.43 968.74C1261.92 968.74 1261.43 968.81 1260.9 968.83C1260.9 933.31 1263.59 842.83 1148.9 837.69C1027.32 832.19 1042.34 968.83 1042.34 968.83H722.67L540.97 967.83C541.19 954.72 542.07 836.36 431.71 836.36C389.54 836.36 336.56 847.2 323.28 966.59L292.72 966.42C292.72 966.42 268.81 800.67 432.88 800.67C567.23 808.44 573.69 906.61 573.69 906.61H1019.37C1019.37 906.61 1019.37 813.61 1156.31 811.01C1306.16 816.18 1288.69 963.2 1288.69 963.2Z" fill="black"/>
<path d="M433.34 1044.1C485.398 1044.1 527.6 1001.9 527.6 949.84C527.6 897.782 485.398 855.58 433.34 855.58C381.282 855.58 339.08 897.782 339.08 949.84C339.08 1001.9 381.282 1044.1 433.34 1044.1Z" fill="#3F4249"/>
<path d="M349.76 949.241C350.142 944.048 350.979 938.898 352.26 933.851C353.512 928.787 355.14 923.823 357.13 919.001C361.108 909.266 366.874 900.363 374.13 892.751C377.824 888.992 381.911 885.639 386.32 882.751C390.792 879.94 395.528 877.572 400.46 875.681C420.537 868.821 442.276 868.531 462.53 874.851L464.44 875.461L466.27 876.211C467.49 876.711 468.73 877.211 469.92 877.721L473.48 879.481C474.075 879.78 474.653 880.114 475.21 880.481L476.92 881.481C481.473 884.134 485.687 887.331 489.47 891.001C496.916 898.428 502.805 907.268 506.79 917.001C508.776 921.866 510.371 926.882 511.56 932.001C512.774 937.077 513.507 942.257 513.75 947.471C512.632 937.154 509.888 927.079 505.62 917.621C501.508 908.169 495.551 899.632 488.1 892.511L485.23 889.951L482.18 887.631C481.18 886.821 480.08 886.171 479.03 885.431L477.46 884.331L475.8 883.381L474.14 882.381C473.59 882.061 473.02 881.761 472.45 881.481L469 879.821C467.84 879.291 466.63 878.821 465.45 878.391L463.66 877.691C463.06 877.481 462.44 877.311 461.83 877.121L458.16 876.001L454.42 875.121L452.51 874.691C451.88 874.561 451.25 874.481 450.6 874.371L446.78 873.751C445.52 873.551 444.23 873.491 442.96 873.351C441.69 873.211 440.41 873.081 439.14 873.021L435.32 872.911C434.04 872.911 432.77 872.791 431.5 872.911C421.237 872.926 411.048 874.646 401.35 878.001C391.667 881.459 382.862 887.003 375.56 894.241C368.269 901.538 362.405 910.131 358.27 919.581C353.984 928.993 351.116 938.988 349.76 949.241V949.241Z" fill="#DADDDF"/>
<path opacity="0.5" d="M433.34 1015.41C469.553 1015.41 498.91 986.053 498.91 949.84C498.91 913.626 469.553 884.27 433.34 884.27C397.126 884.27 367.77 913.626 367.77 949.84C367.77 986.053 397.126 1015.41 433.34 1015.41Z" fill="white"/>
<path d="M433.341 1011.38C467.328 1011.38 494.881 983.828 494.881 949.841C494.881 915.853 467.328 888.301 433.341 888.301C399.353 888.301 371.801 915.853 371.801 949.841C371.801 983.828 399.353 1011.38 433.341 1011.38Z" fill="white"/>
<path d="M484.15 949.999C484.139 963.125 479.031 975.733 469.902 985.164C460.773 994.595 448.338 1000.11 435.22 1000.55C434.65 1000.55 434.09 1000.61 433.53 1000.61C426.882 1000.62 420.297 999.311 414.153 996.77C408.009 994.229 402.427 990.502 397.725 985.801C393.024 981.101 389.295 975.519 386.753 969.375C384.211 963.232 382.905 956.648 382.91 949.999V948.999C383.086 940.484 385.407 932.151 389.658 924.771C393.91 917.391 399.954 911.203 407.232 906.779C414.511 902.355 422.787 899.839 431.296 899.463C439.804 899.088 448.27 900.864 455.91 904.629C460.65 906.951 464.989 910.017 468.76 913.709C473.631 918.415 477.504 924.053 480.149 930.288C482.793 936.523 484.154 943.227 484.15 949.999V949.999Z" fill="black"/>
<path d="M471.16 916.229C470.37 915.359 469.56 914.499 468.72 913.679C465.443 910.499 461.741 907.786 457.72 905.619L441.39 925.419V899.999C438.767 899.589 436.116 899.379 433.46 899.369C430.384 899.377 427.315 899.662 424.29 900.219V929.459L403.1 909.569C398.486 912.992 394.509 917.2 391.35 921.999L411.27 940.689H383.75C383.238 943.428 382.954 946.204 382.9 948.989V949.989C382.908 952.584 383.112 955.175 383.51 957.739H414.77L394.56 982.259C398.217 986.68 402.596 990.45 407.51 993.409L424.35 972.999V999.739C427.374 1000.31 430.444 1000.59 433.52 1000.6C434.09 1000.6 434.65 1000.6 435.21 1000.6C437.301 1000.52 439.384 1000.32 441.45 999.999V968.999L464.09 990.309C468.654 986.831 472.602 982.613 475.77 977.829L454.43 957.769H483.48C484.354 952.097 484.256 946.318 483.19 940.679H451L471.16 916.229Z" fill="white"/>
<path d="M432.87 955.699C436.438 955.699 439.33 952.807 439.33 949.239C439.33 945.671 436.438 942.779 432.87 942.779C429.302 942.779 426.41 945.671 426.41 949.239C426.41 952.807 429.302 955.699 432.87 955.699Z" fill="black"/>
<path d="M1216.96 1016.49C1253.77 979.677 1253.77 919.995 1216.96 883.184C1180.15 846.373 1120.47 846.373 1083.66 883.184C1046.85 919.995 1046.85 979.677 1083.66 1016.49C1120.47 1053.3 1180.15 1053.3 1216.96 1016.49Z" fill="#3F4249"/>
<path d="M1066.7 949.241C1067.08 944.048 1067.91 938.899 1069.19 933.851C1070.44 928.782 1072.07 923.812 1074.05 918.981C1078.02 909.243 1083.79 900.338 1091.05 892.731C1094.74 888.972 1098.82 885.62 1103.23 882.731C1107.7 879.92 1112.44 877.552 1117.38 875.661C1137.46 868.802 1159.2 868.511 1179.45 874.831C1180.08 875.031 1180.71 875.221 1181.36 875.441L1183.2 876.191C1184.42 876.691 1185.66 877.191 1186.85 877.701L1190.41 879.461C1191 879.761 1191.58 880.095 1192.14 880.461L1193.84 881.461C1198.39 884.155 1202.59 887.392 1206.35 891.101C1213.8 898.526 1219.69 907.366 1223.68 917.101C1225.66 921.942 1227.25 926.931 1228.45 932.021C1229.67 937.085 1230.41 942.25 1230.68 947.451C1229.56 937.138 1226.82 927.066 1222.55 917.611C1218.44 908.152 1212.48 899.612 1205.02 892.491L1202.15 889.931L1199.15 887.581C1198.15 886.771 1197.05 886.121 1196.01 885.381L1194.43 884.311L1192.76 883.311L1191.1 882.311C1190.56 881.991 1189.99 881.691 1189.41 881.421L1185.96 879.761C1184.79 879.231 1183.58 878.811 1182.39 878.331L1180.62 877.631C1180.01 877.421 1179.4 877.251 1178.78 877.061L1175.12 875.931L1171.38 875.051L1169.52 874.611C1168.89 874.481 1168.25 874.401 1167.61 874.291L1163.79 873.671C1162.53 873.471 1161.24 873.411 1159.97 873.271C1158.7 873.131 1157.41 873.001 1156.15 872.951L1152.33 872.831C1151.05 872.831 1149.76 872.721 1148.51 872.831C1138.24 872.84 1128.05 874.553 1118.34 877.901C1108.66 881.359 1099.86 886.904 1092.56 894.141C1085.26 901.433 1079.4 910.028 1075.27 919.481C1070.95 928.921 1068.06 938.951 1066.7 949.241V949.241Z" fill="#DADDDF"/>
<path opacity="0.5" d="M1150.31 1015.41C1186.52 1015.41 1215.88 986.055 1215.88 949.841C1215.88 913.628 1186.52 884.271 1150.31 884.271C1114.1 884.271 1084.74 913.628 1084.74 949.841C1084.74 986.055 1114.1 1015.41 1150.31 1015.41Z" fill="white"/>
<path d="M1211.09 959.751C1216.54 926.203 1193.76 894.592 1160.21 889.146C1126.66 883.7 1095.05 906.482 1089.6 940.03C1084.16 973.579 1106.94 1005.19 1140.49 1010.64C1174.04 1016.08 1205.65 993.3 1211.09 959.751Z" fill="white"/>
<path d="M1201.07 950C1201.08 963.13 1195.98 975.748 1186.85 985.183C1177.72 994.618 1165.27 1000.13 1152.15 1000.55C1151.59 1000.55 1151.03 1000.61 1150.46 1000.61C1139.58 1000.62 1128.99 997.126 1120.26 990.64C1111.52 984.155 1105.11 975.027 1101.98 964.61C1100.55 959.889 1099.83 954.983 1099.84 950.05C1099.82 949.717 1099.82 949.383 1099.84 949.05C1100.01 940.534 1102.33 932.199 1106.58 924.818C1110.83 917.436 1116.88 911.247 1124.16 906.822C1131.44 902.398 1139.71 899.882 1148.22 899.508C1156.73 899.133 1165.2 900.912 1172.84 904.68C1177.58 907.002 1181.92 910.068 1185.69 913.76C1190.56 918.457 1194.43 924.087 1197.07 930.314C1199.71 936.54 1201.07 943.236 1201.07 950V950Z" fill="black"/>
<path d="M1188.13 916.23C1187.34 915.36 1186.54 914.5 1185.69 913.68C1182.41 910.501 1178.71 907.789 1174.69 905.62L1158.35 925.45V900.05C1155.72 899.64 1153.07 899.43 1150.41 899.42C1147.34 899.423 1144.27 899.707 1141.25 900.27V929.51L1120.02 909.6C1115.43 913.028 1111.46 917.223 1108.3 922L1128.24 940.68H1100.71C1100.2 943.422 1099.92 946.202 1099.87 948.99C1099.85 949.323 1099.85 949.657 1099.87 949.99C1099.87 952.588 1100.07 955.183 1100.47 957.75H1131.75L1111.53 982.26C1115.2 986.69 1119.59 990.464 1124.53 993.42L1141.37 973V999.74C1144.39 1000.3 1147.46 1000.59 1150.53 1000.6C1151.09 1000.6 1151.65 1000.6 1152.22 1000.54C1154.31 1000.47 1156.39 1000.28 1158.46 999.95V969L1181.17 990.31C1185.74 986.842 1189.69 982.622 1192.84 977.83L1171.52 957.77H1200.52C1200.91 955.205 1201.1 952.614 1201.1 950.02C1201.1 946.886 1200.81 943.759 1200.23 940.68H1167.94L1188.13 916.23Z" fill="white"/>
<path d="M1149.85 955.701C1153.42 955.701 1156.31 952.809 1156.31 949.241C1156.31 945.673 1153.42 942.781 1149.85 942.781C1146.28 942.781 1143.39 945.673 1143.39 949.241C1143.39 952.809 1146.28 955.701 1149.85 955.701Z" fill="black"/>
<path d="M604.77 741.521C604.77 741.521 742.74 635.001 819.25 633.601C895.76 632.201 1061.04 633.601 1061.04 633.601C1061.04 633.601 1099.24 680.051 1107.48 695.071C1091.09 710.071 1043.28 737.421 1043.28 737.421L604.77 741.521Z" fill="#21252B"/>
<path d="M648.49 729.231H858.86L880.72 644.541C880.72 644.541 808.32 637.701 760.51 659.541C712.7 681.381 648.49 729.231 648.49 729.231Z" class="change-color-in-svg" fill="#4D61FC"/>
<path d="M905.31 643.171L895.75 729.231L1035.08 725.131L1095.19 690.981L1056.93 643.171H905.31Z" class="change-color-in-svg" fill="#4D61FC"/>
<path d="M648.49 729.231H858.86L880.72 644.541C880.72 644.541 808.32 637.701 760.51 659.541C712.7 681.381 648.49 729.231 648.49 729.231Z" fill="#DDDDDD"/>
<path d="M905.31 643.171L895.75 729.231L1035.08 725.131L1095.19 690.981L1056.93 643.171H905.31Z" fill="#DDDDDD"/>
<path d="M725.2 656.51C709.75 664.84 593.06 734.82 593.06 734.82L577 723C593.07 712.83 666.71 678 718.34 646.94C723.41 649.78 729.83 654 725.2 656.51Z" class="change-color-in-svg" fill="#4D61FC"/>
<path d="M1315.54 738.461C1303.66 738.401 1286.54 737.201 1278.92 731.281C1266.63 721.731 1231.11 691.671 1231.11 691.671C1231.11 691.671 1230.25 676.281 1240.04 670.531C1241.87 671.881 1289.8 707.511 1315.54 738.461Z" class="change-color-in-svg" fill="#4D61FC"/>
<path d="M725.2 656.51C709.75 664.84 593.06 734.82 593.06 734.82L577 723C593.07 712.83 666.71 678 718.34 646.94C723.41 649.78 729.83 654 725.2 656.51Z" fill="#DDDDDD"/>
<path d="M1315.54 738.461C1303.66 738.401 1286.54 737.201 1278.92 731.281C1266.63 721.731 1231.11 691.671 1231.11 691.671C1231.11 691.671 1230.25 676.281 1240.04 670.531C1241.87 671.881 1289.8 707.511 1315.54 738.461Z" fill="#DDDDDD"/>
<path d="M722.561 709C725.941 707.36 729.351 705.8 732.751 704.22L742.951 699.451C749.791 696.341 756.681 693.331 763.541 690.271C770.401 687.211 777.321 684.27 784.241 681.36L794.631 677C798.121 675.58 801.631 674.131 805.081 672.771C801.701 674.411 798.291 675.97 794.891 677.54L784.681 682.25C777.841 685.36 770.961 688.37 764.101 691.43C757.241 694.49 750.321 697.431 743.391 700.341L733.001 704.69C729.521 706.12 726.051 707.59 722.561 709Z" fill="#F4F4F4"/>
<path d="M763.439 700.211C765.909 698.971 768.439 697.811 770.889 696.601L778.389 693.131C783.389 690.811 788.389 688.581 793.459 686.361C798.529 684.141 803.559 681.961 808.659 679.861L816.299 676.711C818.859 675.711 821.409 674.661 823.999 673.711C821.519 674.951 818.999 676.121 816.549 677.321L809.049 680.801C804.049 683.121 799.049 685.341 793.979 687.571C788.909 689.801 783.879 691.951 778.779 694.061L771.139 697.221C768.579 698.191 765.999 699.241 763.439 700.211Z" fill="#F4F4F4"/>
<path d="M929.25 706.38C932.63 704.74 936.05 703.17 939.44 701.61L949.7 696.92C956.53 693.81 963.41 690.81 970.28 687.74C977.15 684.67 984.05 681.74 990.97 678.83L1001.37 674.48C1004.85 673.07 1008.31 671.61 1011.82 670.24C1008.43 671.89 1005.02 673.45 1001.62 675.02L991.37 679.71C984.53 682.81 977.65 685.82 970.79 688.89C963.93 691.96 957.01 694.89 950.09 697.79L939.69 702.14C936.21 703.56 932.74 705 929.25 706.38Z" fill="#F4F4F4"/>
<path d="M970.141 697.621C972.611 696.381 975.141 695.231 977.581 694.021L985.081 690.541C990.081 688.221 995.081 685.991 1000.15 683.771C1005.22 681.551 1010.25 679.371 1015.35 677.271L1022.99 674.121C1025.56 673.121 1028.1 672.121 1030.69 671.121C1028.23 672.371 1025.69 673.531 1023.24 674.731L1015.75 678.221C1010.75 680.531 1005.75 682.761 1000.67 684.981C995.591 687.201 990.571 689.371 985.471 691.481L977.831 694.631C975.271 695.621 972.721 696.651 970.141 697.621Z" fill="#F4F4F4"/>
<path opacity="0.3" d="M838.38 771.57H796.03C789.993 771.57 785.1 776.464 785.1 782.5C785.1 788.537 789.993 793.43 796.03 793.43H838.38C844.416 793.43 849.31 788.537 849.31 782.5C849.31 776.464 844.416 771.57 838.38 771.57Z" stroke="#263238" stroke-miterlimit="10"/>
<path opacity="0.3" d="M1097.02 771.57H1059.2C1053.42 771.57 1048.74 776.253 1048.74 782.03V782.97C1048.74 788.747 1053.42 793.43 1059.2 793.43H1097.02C1102.8 793.43 1107.48 788.747 1107.48 782.97V782.03C1107.48 776.253 1102.8 771.57 1097.02 771.57Z" stroke="#263238" stroke-miterlimit="10"/>
<path d="M293.31 950.53C292.843 945.661 292.636 940.771 292.69 935.88C292.74 930.99 292.92 926.09 293.4 921.22C294.246 911.461 295.973 901.798 298.56 892.35C301.14 882.875 304.734 873.705 309.28 865C313.854 856.324 319.505 848.26 326.1 841C327.78 839.22 329.38 837.34 331.23 835.72L333.92 833.17C334.796 832.311 335.721 831.503 336.69 830.75C338.6 829.22 340.51 827.67 342.47 826.17L348.57 822.05C349.58 821.355 350.628 820.717 351.71 820.14L354.92 818.32C355.99 817.72 357.04 817.09 358.13 816.53L361.46 814.95L364.8 813.38L366.47 812.6C367.02 812.35 367.6 812.15 368.18 811.93L375.05 809.31C384.335 806.117 393.891 803.774 403.6 802.31C406.02 801.94 408.44 801.5 410.88 801.21C413.32 800.92 415.75 800.67 418.19 800.48C423.077 800.1 427.98 799.913 432.9 799.92C442.713 799.962 452.505 800.809 462.18 802.45C464.6 802.87 467.01 803.31 469.41 803.84L476.56 805.56C477.75 805.86 478.95 806.1 480.13 806.45L483.65 807.54C485.98 808.28 488.35 808.93 490.65 809.77C499.901 813.078 508.785 817.334 517.16 822.47L523.29 826.47L529.12 830.97C532.897 834.107 536.47 837.481 539.82 841.07C546.492 848.261 552.206 856.284 556.82 864.94C561.438 873.645 565.057 882.843 567.61 892.36C570.118 901.833 571.742 911.517 572.46 921.29C573.232 931.051 573.058 940.863 571.94 950.59C572.95 940.863 573.02 931.061 572.15 921.32C571.321 911.586 569.597 901.948 567 892.53C564.399 883.125 560.749 874.041 556.12 865.45C549.179 852.559 539.77 841.16 528.43 831.9L522.7 827.44L516.57 823.37C508.256 818.29 499.435 814.091 490.25 810.84C487.96 810.02 485.6 809.38 483.25 808.64L479.76 807.56C478.59 807.22 477.39 806.98 476.21 806.69L469.19 805C466.81 804.46 464.41 804 462.02 803.63C452.403 802.027 442.67 801.214 432.92 801.2C428.047 801.2 423.183 801.377 418.33 801.73C415.89 801.91 413.47 802.15 411.05 802.44C408.63 802.73 406.27 803.15 403.82 803.51C394.181 804.953 384.692 807.266 375.47 810.42L368.59 813C368.02 813.22 367.44 813.41 366.89 813.66L365.24 814.43L362 816L358.7 817.55C357.62 818.11 356.57 818.74 355.51 819.32L352.33 821.12C351.258 821.703 350.217 822.341 349.21 823.03L343.16 827.11L337.43 831.63C336.462 832.363 335.541 833.154 334.67 834L331.98 836.48C330.14 838.07 328.55 839.91 326.87 841.68C320.267 848.842 314.599 856.813 310 865.4C305.422 874.021 301.788 883.11 299.16 892.51C296.475 901.902 294.647 911.518 293.7 921.24C293.18 926.1 292.94 930.98 292.84 935.87C292.726 940.762 292.883 945.656 293.31 950.53V950.53Z" fill="#F4F4F4"/>
<path d="M1014.46 950.531C1013.6 941.252 1013.65 931.912 1014.59 922.641C1015.47 913.356 1017.23 904.175 1019.84 895.221C1022.45 886.241 1026.08 877.589 1030.65 869.431C1035.24 861.284 1040.88 853.771 1047.41 847.081C1053.99 840.409 1061.38 834.593 1069.41 829.771C1077.52 825.119 1086.07 821.28 1094.94 818.311L1101.62 816.401L1104.99 815.451L1108.41 814.691L1115.26 813.201C1117.55 812.761 1119.87 812.471 1122.17 812.111L1125.63 811.591C1126.79 811.411 1127.94 811.231 1129.11 811.121C1131.43 810.851 1133.75 810.641 1136.11 810.471C1140.78 810.131 1145.44 809.961 1150.11 809.961C1159.45 810 1168.78 810.752 1178.01 812.211L1181.46 812.791L1184.9 813.451L1191.73 815.021L1195.14 815.811C1196.27 816.081 1197.38 816.461 1198.5 816.811L1205.18 818.811C1214.04 821.812 1222.6 825.649 1230.73 830.271C1238.8 835.023 1246.24 840.764 1252.88 847.361C1259.49 853.95 1265.21 861.384 1269.88 869.471C1274.5 877.611 1278.14 886.268 1280.73 895.261C1283.32 904.226 1284.99 913.429 1285.73 922.731C1286.53 932.019 1286.38 941.365 1285.26 950.621C1286.27 941.364 1286.32 932.028 1285.41 922.761C1284.58 913.5 1282.82 904.347 1280.15 895.441C1277.53 886.521 1273.86 877.942 1269.23 869.881C1264.56 861.857 1258.84 854.489 1252.23 847.971C1245.6 841.494 1238.21 835.842 1230.23 831.141C1222.14 826.567 1213.63 822.774 1204.82 819.811L1198.13 817.811C1197.03 817.501 1195.92 817.131 1194.8 816.861L1191.41 816.091L1184.63 814.541L1181.21 813.901L1177.77 813.331C1168.61 811.895 1159.35 811.167 1150.08 811.151C1145.41 811.151 1140.78 811.311 1136.17 811.631C1133.86 811.791 1131.55 812.001 1129.25 812.261C1128.09 812.361 1126.95 812.531 1125.8 812.711L1122.36 813.221C1120.07 813.581 1117.77 813.861 1115.49 814.301L1108.69 815.761L1105.29 816.501L1101.95 817.451L1095.27 819.361C1086.5 822.299 1078.03 826.091 1070 830.681C1062.05 835.451 1054.72 841.177 1048.17 847.731C1041.64 854.34 1036.01 861.776 1031.42 869.851C1026.83 877.928 1023.16 886.5 1020.5 895.401C1017.8 904.297 1015.95 913.427 1014.96 922.671C1013.89 931.92 1013.73 941.25 1014.46 950.531V950.531Z" fill="#F4F4F4"/>
<path opacity="0.3" d="M282.389 900V913.66C282.408 916.761 281.465 919.791 279.691 922.334C277.917 924.876 275.398 926.807 272.481 927.86C269.565 928.912 266.394 929.035 263.405 928.211C260.415 927.388 257.755 925.658 255.789 923.26L261.569 886.14C263.852 885.179 266.338 884.798 268.804 885.032C271.27 885.265 273.639 886.106 275.701 887.479C277.763 888.851 279.453 890.713 280.62 892.898C281.787 895.083 282.395 897.523 282.389 900V900Z" fill="#263238"/>
<path d="M317.908 831.45V845.34H267.908L273.428 809.82H296.278C302.014 809.823 307.514 812.103 311.57 816.159C315.626 820.214 317.906 825.714 317.908 831.45V831.45Z" class="change-color-in-svg" fill="#4D61FC"/>
<path d="M317.919 831.44V845.35H298.869C303.399 835.19 303.089 823.16 300.499 810.26C305.404 811.231 309.821 813.873 312.997 817.734C316.173 821.596 317.913 826.44 317.919 831.44Z" fill="#DADDDF"/>
<path opacity="0.1" d="M1322 821H1272.28L1255.45 773C1251.74 762.38 1258.79 750.93 1269.04 750.93H1305.27C1309.12 750.914 1312.85 752.288 1315.77 754.8C1317.83 756.543 1319.39 758.795 1320.31 761.33C1321.19 763.618 1321.75 766.018 1321.97 768.46C1323.35 785.946 1323.36 803.513 1322 821V821Z" fill="black"/>
<path d="M1322.08 817.48H1277.64L1262.64 774.48C1259.31 765 1265.64 754.76 1274.78 754.76H1307.16C1310.59 754.76 1313.91 755.991 1316.51 758.23C1318.32 759.796 1319.7 761.804 1320.51 764.06C1321.3 766.104 1321.8 768.248 1322 770.43C1323.25 786.087 1323.27 801.818 1322.08 817.48V817.48Z" class="change-color-in-svg" fill="#4D61FC"/>
<path opacity="0.85" d="M317.908 831.45V845.34H267.908L273.428 809.82H296.278C302.014 809.823 307.514 812.103 311.57 816.159C315.626 820.214 317.906 825.714 317.908 831.45V831.45Z" fill="white"/>
<path opacity="0.85" d="M1322.08 817.48H1277.64L1262.64 774.48C1259.31 765 1265.64 754.76 1274.78 754.76H1307.16C1310.59 754.76 1313.91 755.991 1316.51 758.23C1318.32 759.796 1319.7 761.804 1320.51 764.06C1321.3 766.104 1321.8 768.248 1322 770.43C1323.25 786.087 1323.27 801.818 1322.08 817.48V817.48Z" fill="white"/>
<path d="M573.35 906.81L627.83 906.5L682.3 906.32L791.24 906.17L900.19 906.32L954.65 906.5L1009.13 906.81L954.65 907.13L900.19 907.31L791.24 907.46L682.3 907.31L627.83 907.13L573.35 906.81Z" fill="#B2B6BB"/>
<path d="M1273.46 863.79C1279.03 863.59 1284.61 863.49 1290.19 863.42C1295.77 863.35 1301.35 863.35 1306.93 863.31C1312.51 863.27 1318.08 863.31 1323.66 863.42L1332.03 863.55C1334.82 863.63 1337.6 863.67 1340.39 863.79C1337.6 863.89 1334.82 863.94 1332.03 864.02L1323.66 864.15C1318.08 864.23 1312.51 864.23 1306.93 864.26C1301.35 864.29 1295.77 864.26 1290.19 864.15C1284.61 864.04 1279 864 1273.46 863.79Z" fill="#61656D"/>
<path d="M1065.82 632.92C1072.66 633.31 1079.51 633.79 1086.35 634.31C1093.19 634.83 1100.02 635.47 1106.84 636.22C1120.5 637.59 1134.12 639.22 1147.68 641.44C1151.07 641.98 1154.44 642.64 1157.82 643.24C1159.51 643.56 1161.18 643.93 1162.82 644.24C1164.46 644.55 1166.2 644.9 1167.82 645.34C1174.51 646.917 1181.09 648.945 1187.51 651.41C1200.45 655.99 1213.14 661.21 1225.57 667.07C1219.34 664.21 1212.96 661.66 1206.57 659.19C1200.18 656.72 1193.75 654.36 1187.27 652.1C1180.86 649.721 1174.3 647.748 1167.64 646.19C1165.97 645.76 1164.28 645.47 1162.64 645.11C1161 644.75 1159.29 644.4 1157.64 644.11C1154.27 643.53 1150.96 642.88 1147.52 642.36C1133.99 640.12 1120.39 638.45 1106.76 636.92C1099.95 636.14 1093.12 635.47 1086.3 634.8C1079.48 634.13 1072.65 633.47 1065.82 632.92Z" fill="#61656D"/>
<path d="M604.089 740.84C601.015 742.471 598.184 744.525 595.679 746.94C594.407 748.124 593.195 749.372 592.049 750.68C590.899 751.97 589.879 753.39 588.799 754.73C584.741 760.374 581.602 766.624 579.499 773.25L578.659 775.71C578.389 776.53 578.219 777.39 577.999 778.23L576.779 783.23L575.919 788.36L575.499 791C575.339 791.85 575.329 792.72 575.229 793.59C574.979 797.04 574.529 800.49 574.609 803.97C574.689 807.45 574.519 810.9 574.609 814.39C574.889 828.32 575.069 842.25 575.019 856.19C575.019 863.15 574.936 870.113 574.769 877.08C574.589 884.08 574.389 891.01 574.049 897.97C574.229 890.97 574.289 884.04 574.299 877.07C574.309 870.1 574.299 863.15 574.299 856.19C574.199 842.26 574.019 828.33 573.669 814.42C573.539 810.94 573.669 807.42 573.669 803.91C573.669 800.4 574.059 796.91 574.339 793.45C574.429 792.58 574.449 791.7 574.609 790.85L575.049 788.26L575.939 783.09L577.239 778.01C577.479 777.17 577.649 776.3 577.939 775.48L578.819 773.01C581.025 766.356 584.269 760.092 588.429 754.45C589.559 753.11 590.609 751.71 591.799 750.45C592.977 749.159 594.222 747.93 595.529 746.77C598.091 744.402 600.972 742.406 604.089 740.84V740.84Z" fill="#61656D"/>
<path d="M326.051 773.1L386.431 767.82C406.551 766.046 426.667 764.22 446.781 762.34C466.901 760.52 487.011 758.68 507.101 756.61C512.127 756.11 517.147 755.573 522.161 755C527.161 754.44 532.161 753.9 537.221 753.28L544.741 752.4C547.241 752.11 549.741 751.74 552.251 751.45C554.761 751.16 557.251 750.83 559.741 750.38L567.211 749.09C547.371 752.91 527.211 755.03 507.211 757.28C487.211 759.53 466.991 761.37 446.941 763.28C426.891 765.19 406.691 766.78 386.551 768.45L356.361 770.88L326.051 773.1Z" fill="#61656D"/>
<path d="M873.231 741.52C870.206 746.37 867.779 751.567 866.001 757C864.19 762.389 862.911 767.942 862.181 773.58C862.001 774.98 861.791 776.39 861.721 777.81C861.651 779.23 861.431 780.669 861.441 782.049L861.351 786.31V807.69L861.241 841.909L861.111 859.01L860.891 876.159L860.681 859L860.551 841.9L860.421 807.64V790.539C860.283 784.815 860.618 779.089 861.421 773.419C863.141 762.149 866.851 751 873.231 741.52Z" fill="#61656D"/>
<path d="M679.839 736.82L653.559 737.55C650.099 737.55 647.379 731.35 647.479 723.8C647.579 717.06 649.929 711.39 652.999 710.37L677.999 702.46L679.839 736.82Z" fill="#61656D"/>
<path d="M661.539 717.991C666.77 716.859 670.98 715.8 670.942 715.628C670.905 715.455 666.634 716.233 661.404 717.366C656.174 718.499 651.964 719.557 652.001 719.73C652.039 719.902 656.309 719.124 661.539 717.991Z" fill="#F4F4F4"/>
<path d="M339.209 891.76C339.209 891.76 359.879 828.46 429.639 833.63" stroke="#F4F4F4" stroke-width="1.35" stroke-miterlimit="10"/>
<path d="M652.49 752.88L675.09 752.57L697.7 752.39L742.92 752.24L788.13 752.38L810.74 752.57L833.35 752.88L810.74 753.2L788.13 753.38L742.92 753.53L697.7 753.38L675.09 753.2L652.49 752.88Z" fill="#F4F4F4"/>
<path d="M904.4 752.881H1023.24" stroke="#F4F4F4" stroke-width="1.35" stroke-miterlimit="10"/>
<path d="M1034.46 1000.54H1013.72V1028.2H1034.46V1000.54Z" fill="#F29C9C"/>
<path opacity="0.2" d="M1013.16 1005.29C1013.16 1005.29 1018.22 1005.99 1022.71 1006.83C1024.62 1007.19 1026.35 1008.2 1027.59 1009.7C1028.83 1011.19 1029.52 1013.07 1029.52 1015.02V1021.59H1037.26V1005.29H1013.16" fill="black"/>
<path d="M1034.46 1020.42V1044.62H1002.46C1002.36 1043.47 1002.34 1042.31 1002.38 1041.16C1002.61 1035.03 1004.95 1030.42 1009.38 1027.33L1013.69 1020.58V1020.42C1013.69 1016.13 1014.02 1010.05 1024.06 1010.05C1025.42 1010.04 1026.78 1010.31 1028.04 1010.83C1029.3 1011.35 1030.45 1012.11 1031.41 1013.08C1032.38 1014.04 1033.14 1015.18 1033.67 1016.44C1034.19 1017.7 1034.46 1019.05 1034.46 1020.42V1020.42Z" class="change-color-in-svg" fill="#4D61FC"/>
<path d="M1034.46 1041.16V1044.62H1002.46C1002.36 1043.47 1002.34 1042.31 1002.38 1041.16H1034.46Z" fill="#3F4249"/>
<path d="M1016.62 1021.59C1016.62 1021.59 1020.5 1019.01 1026.96 1021.59" stroke="white" stroke-width="1.35" stroke-miterlimit="10" stroke-linecap="round"/>
<path d="M1015.34 1024.14C1015.34 1024.14 1019.21 1021.56 1025.67 1024.14" stroke="white" stroke-width="1.35" stroke-miterlimit="10" stroke-linecap="round"/>
<path d="M1014.05 1026.76C1014.05 1026.76 1017.87 1024.17 1024.38 1026.76" stroke="white" stroke-width="1.35" stroke-miterlimit="10" stroke-linecap="round"/>
<path d="M1098.43 1000.54H1077.69V1028.2H1098.43V1000.54Z" fill="#F29C9C"/>
<path opacity="0.2" d="M1077.69 1005.29C1077.69 1005.29 1086.44 1005.85 1091.58 1007.53C1092.33 1007.78 1092.98 1008.26 1093.44 1008.91C1093.9 1009.55 1094.14 1010.33 1094.13 1011.12V1021.62H1100.6V1005.33H1077.68" fill="black"/>
<path d="M1077.58 1020.42V1044.62H1109.58C1109.67 1043.47 1109.7 1042.31 1109.65 1041.16C1109.42 1035.03 1107.08 1030.42 1102.65 1027.33L1098.33 1020.58V1020.42C1098.33 1016.13 1094.13 1010.05 1087.96 1010.05C1086.6 1010.05 1085.25 1010.31 1083.99 1010.84C1082.73 1011.36 1081.58 1012.12 1080.62 1013.08C1079.66 1014.05 1078.89 1015.19 1078.37 1016.45C1077.85 1017.71 1077.58 1019.06 1077.58 1020.42V1020.42Z" class="change-color-in-svg" fill="#4D61FC"/>
<path d="M1077.58 1041.16V1044.62H1109.58C1109.67 1043.47 1109.7 1042.31 1109.65 1041.16H1077.58Z" fill="#3F4249"/>
<path d="M1096.72 1021.59C1096.72 1021.59 1092.84 1019.01 1086.39 1021.59" stroke="white" stroke-width="1.35" stroke-miterlimit="10" stroke-linecap="round"/>
<path d="M1098 1024.14C1098 1024.14 1094.12 1021.56 1087.67 1024.14" stroke="white" stroke-width="1.35" stroke-miterlimit="10" stroke-linecap="round"/>
<path d="M1099.3 1026.76C1099.3 1026.76 1095.48 1024.17 1088.97 1026.76" stroke="white" stroke-width="1.35" stroke-miterlimit="10" stroke-linecap="round"/>
<path d="M1101.89 1004.86H1074.47L1061.77 769.569C1060.7 760.349 1052.7 759.909 1051.47 769.439L1037 1004.86H1011.12L1006 731.729H1108L1101.89 1004.86Z" class="change-color-in-svg" fill="#4D61FC"/>
<path opacity="0.2" d="M1107.16 740.26L1105.83 832.42L1101.89 1004.86H1089.97V740.26H1107.16Z" fill="black"/>
<path opacity="0.2" d="M1058.56 761.44V762.39C1058.19 762.399 1057.82 762.459 1057.47 762.57C1057.14 762.478 1056.81 762.441 1056.47 762.46C1054.24 762.52 1052.05 764.79 1051.47 769.46L1037.01 1004.88H1027.01L1025.1 1004.75L1037.92 771.34C1038.47 762 1049.78 756.57 1058.56 761.44Z" fill="black"/>
<path opacity="0.6" d="M1005.92 731.99L1006.23 741.21L1108.22 740.96V731.99H1005.92Z" fill="black"/>
<path d="M1144.52 639.21L1113.52 646.91L1110.98 643.09L1109.23 733H1004.65C1007.21 692.33 1006.08 672.55 1002.74 622.45C1002.36 616.683 1001.95 610.866 1001.5 605C1001.28 602.073 1001.05 599.133 1000.81 596.18L979.001 601.35L977.841 601.66L954.621 577.2L997.311 556.28C1002.49 552.83 1046.57 554.55 1080.31 563.2C1110.49 570.94 1133.89 583.94 1134.8 598.79L1144.52 639.21Z" class="change-color-in-svg" fill="#4D61FC"/>
<path d="M1144.52 639.21L1113.52 646.91L1110.98 643.09L1109.23 733H1004.65C1007.21 692.33 1006.08 672.55 1002.74 622.45C1002.36 616.683 1001.95 610.866 1001.5 605C1001.28 602.073 1001.05 599.133 1000.81 596.18L979.001 601.35L977.841 601.66L954.621 577.2L997.311 556.28C1002.49 552.83 1046.57 554.55 1080.31 563.2C1110.49 570.94 1133.89 583.94 1134.8 598.79L1144.52 639.21Z" fill="#3F4249"/>
<path opacity="0.6" d="M1001.13 596.579L998.54 584.939L968.83 593.989L977.87 601.739L1001.13 596.579Z" fill="black"/>
<path opacity="0.6" d="M1098.56 609.6V732.94L1109.18 732.62L1110.97 643.17L1098.56 609.6Z" fill="black"/>
<path opacity="0.6" d="M1088.16 565.38C1087.88 574.93 1076.88 582.68 1063.33 582.68C1049.61 582.68 1038.49 574.77 1038.49 565.01C1038.53 561.871 1039.64 558.84 1041.64 556.42C1054.66 557.792 1067.57 560.058 1080.28 563.2C1082.96 563.88 1085.59 564.607 1088.16 565.38Z" fill="black"/>
<path d="M1149.06 667.809L1144.52 639.159L1113.52 646.909L1118.12 664.479L1066.48 675.939L1063.61 676.519C1063.2 676.686 1062.75 676.74 1062.32 676.677C1061.88 676.614 1061.47 676.435 1061.12 676.159L1060.02 675.059C1058.98 674.224 1057.79 673.599 1056.52 673.219C1053.47 672.32 1050.89 670.263 1049.34 667.489L1046.86 663.099C1046.84 663.053 1046.8 663.011 1046.76 662.977C1046.72 662.944 1046.67 662.918 1046.62 662.902C1046.57 662.886 1046.52 662.881 1046.47 662.885C1046.42 662.89 1046.37 662.905 1046.32 662.929C1046.32 662.929 1046.32 662.929 1046.32 662.929L1045.88 663.069C1045.02 663.401 1044.31 664.045 1043.9 664.874C1043.5 665.702 1043.42 666.654 1043.68 667.539L1045.59 673.539C1045.69 673.859 1045.67 674.207 1045.52 674.507C1045.36 674.807 1045.1 675.034 1044.78 675.139L1032.64 680.139C1030.08 681.139 1030.96 684.599 1033.3 684.019L1034.84 683.649L1032.42 684.889C1029.71 686.209 1030.96 689.889 1033.3 689.349C1035.64 688.809 1038.72 688.039 1038.72 688.039L1035.72 689.209C1035.21 689.456 1034.82 689.887 1034.62 690.414C1034.42 690.941 1034.42 691.525 1034.64 692.047C1034.85 692.569 1035.26 692.99 1035.77 693.224C1036.28 693.459 1036.86 693.489 1037.4 693.309C1039.16 692.869 1041.94 691.989 1041.94 691.989L1040.1 692.869C1037.76 693.599 1038.56 697.259 1040.76 696.869C1042.67 696.499 1060.51 692.099 1069.76 690.439L1138.15 682.969C1141.45 682.643 1144.49 681.02 1146.59 678.457C1148.69 675.893 1149.69 672.6 1149.37 669.299C1149.29 668.797 1149.19 668.3 1149.06 667.809Z" fill="#FC9D9D"/>
<path opacity="0.15" d="M1138.08 682.999L1069.7 690.469C1060.47 692.149 1042.63 696.539 1040.7 696.909C1040.43 696.97 1040.14 696.956 1039.87 696.87C1039.61 696.784 1039.37 696.629 1039.18 696.419C1045.54 694.629 1056.42 691.559 1062.94 690.059L1130.94 679.559C1132.57 679.325 1134.13 678.773 1135.54 677.934C1136.96 677.095 1138.19 675.986 1139.18 674.67C1140.16 673.354 1140.88 671.857 1141.28 670.265C1141.69 668.672 1141.77 667.016 1141.54 665.389C1141.47 664.873 1141.36 664.362 1141.22 663.859L1136.58 641.159L1144.5 639.159L1149.04 667.809C1149.76 671.045 1149.17 674.434 1147.39 677.232C1145.61 680.03 1142.8 682.008 1139.56 682.729C1139.07 682.849 1138.58 682.939 1138.08 682.999V682.999Z" fill="black"/>
<path d="M1043.55 537.71L1043.91 557.91C1043.95 562.319 1045.55 566.572 1048.43 569.909C1051.31 573.247 1055.28 575.452 1059.64 576.13C1066.8 577.13 1074.46 575.13 1078.64 570.33C1079.47 569.354 1080.01 568.161 1080.19 566.891C1080.36 565.62 1080.17 564.326 1079.64 563.16C1078.32 560.16 1076.58 553.91 1076.08 541.59C1075.09 520.85 1043.55 537.71 1043.55 537.71Z" fill="#F29C9C"/>
<path opacity="0.15" d="M1045.05 546.189C1047.69 547.829 1051.5 574.609 1084.2 549.809L1077.29 541.159C1077.29 541.159 1070.12 561.749 1045.05 546.189Z" fill="black"/>
<path d="M1085.46 524.739C1085.46 528.319 1082.95 531.219 1079.85 531.219C1079 531.22 1078.17 530.999 1077.43 530.579L1077.55 536.579C1077.62 538.017 1077.51 539.457 1077.24 540.869C1076.39 545.047 1074.05 548.771 1070.65 551.342C1067.25 553.913 1063.03 555.155 1058.78 554.833C1054.53 554.511 1050.54 552.649 1047.57 549.595C1044.59 546.541 1042.84 542.507 1042.63 538.249L1042.55 534.109C1041.77 534.452 1040.94 534.629 1040.09 534.629C1038.26 534.629 1036.5 533.901 1035.2 532.606C1033.91 531.31 1033.18 529.552 1033.18 527.719C1033.18 525.887 1033.91 524.129 1035.2 522.833C1036.5 521.537 1038.26 520.809 1040.09 520.809C1040.84 520.816 1041.59 520.955 1042.29 521.219L1042.01 507.369L1076.92 505.689L1077.2 518.989C1077.99 518.48 1078.91 518.209 1079.85 518.209C1083 518.249 1085.46 521.159 1085.46 524.739Z" fill="#FC9D9D"/>
<path d="M954.62 577.199L918.94 595.709C906.94 601.999 911.42 620.109 924.94 620.109H993.44L1006.71 606.109L977.46 601.999L977.87 601.739" fill="#FC9D9D"/>
<path d="M994.561 610.37L1003.56 605.76L1024.73 608.76C1026.48 609.039 1028.08 609.907 1029.26 611.22L1033.94 617.04C1035.12 618.332 1035.92 619.929 1036.24 621.65L1038.47 630.93C1038.62 632.01 1038.47 633 1037.47 633.23C1037 633.355 1036.51 633.299 1036.08 633.072C1035.65 632.846 1035.33 632.466 1035.17 632.01L1031.8 622.46L1025.74 615.94L1031.2 624.61L1034.26 636.61C1034.41 637.149 1034.35 637.728 1034.07 638.217C1033.8 638.707 1033.34 639.067 1032.8 639.22C1032.26 639.372 1031.68 639.304 1031.19 639.03C1030.7 638.757 1030.34 638.299 1030.19 637.76C1029.19 634.61 1027.59 629.24 1027.59 629.24L1021.16 619.24L1027.65 629.24L1030.52 635.3C1030.74 635.748 1030.77 636.263 1030.62 636.736C1030.46 637.208 1030.12 637.601 1029.68 637.83C1029.24 638.09 1028.72 638.171 1028.22 638.058C1027.72 637.945 1027.28 637.645 1027 637.22C1025.53 635 1022.47 630.93 1022.47 630.93L1016.57 623.11L1022.93 632.66C1023.11 632.966 1023.17 633.322 1023.11 633.669C1023.06 634.017 1022.88 634.335 1022.62 634.57C1022.35 634.787 1022.01 634.891 1021.67 634.861C1021.33 634.831 1021.01 634.67 1020.78 634.41L1014.95 628.12C1014.1 627.279 1013.04 626.67 1011.89 626.35C1007.73 625.429 1003.89 623.421 1000.76 620.53L1000.3 620.07H993.471L994.561 610.37Z" fill="#FC9D9D"/>
<g opacity="0.15">
<path opacity="0.15" d="M1020.8 634.5C1021.03 634.76 1021.35 634.922 1021.69 634.95C1022.03 634.978 1022.37 634.87 1022.64 634.65C1022.93 634.437 1023.13 634.117 1023.19 633.759C1023.25 633.401 1023.16 633.034 1022.95 632.74V632.74L1017.05 623.92C1016.35 624.3 1016.05 625.3 1015.43 625.61C1014.48 626.07 1013.43 625.84 1012.82 626.07L1011.82 626.45C1013 626.702 1014.07 627.317 1014.88 628.21L1020.8 634.5Z" fill="black"/>
<path opacity="0.15" d="M1034.3 636.679L1031.24 624.679L1025.76 616.009L1031.76 622.609L1035.21 632.159C1035.28 632.391 1035.4 632.606 1035.55 632.792C1035.71 632.979 1035.89 633.133 1036.11 633.246C1036.32 633.359 1036.56 633.43 1036.8 633.452C1037.04 633.475 1037.28 633.451 1037.51 633.379C1038.51 633.149 1038.67 632.159 1038.51 631.079L1036.28 621.759C1035.94 620.049 1035.14 618.46 1033.98 617.159L1029.3 611.329C1028.9 610.907 1028.46 610.526 1027.99 610.189C1028.13 611.322 1028.03 612.472 1027.68 613.559C1027.18 614.501 1026.5 615.334 1025.68 616.009C1024.91 616.779 1025.07 618.309 1024.38 619.079C1024 619.539 1022.47 619.929 1022 620.309C1021 621.069 1020.77 622.309 1020 622.839C1019.23 623.369 1018.09 623.369 1017.13 623.909L1022.5 630.969C1022.5 630.969 1025.5 635.039 1027.02 637.259C1027.31 637.687 1027.74 637.989 1028.24 638.102C1028.74 638.216 1029.27 638.133 1029.71 637.869C1029.88 637.766 1030.04 637.638 1030.17 637.489C1030.17 637.569 1030.24 637.719 1030.24 637.799C1030.43 638.342 1030.82 638.789 1031.33 639.042C1031.85 639.295 1032.44 639.334 1032.98 639.149L1033.11 639.099C1033.58 638.917 1033.95 638.568 1034.18 638.12C1034.4 637.672 1034.44 637.159 1034.3 636.679Z" fill="black"/>
</g>
<path d="M1052.19 529.93C1053.15 529.93 1053.92 529.155 1053.92 528.2C1053.92 527.244 1053.15 526.47 1052.19 526.47C1051.24 526.47 1050.46 527.244 1050.46 528.2C1050.46 529.155 1051.24 529.93 1052.19 529.93Z" fill="black"/>
<path d="M1051.76 528.2C1052 528.2 1052.19 528.007 1052.19 527.77C1052.19 527.532 1052 527.34 1051.76 527.34C1051.52 527.34 1051.33 527.532 1051.33 527.77C1051.33 528.007 1051.52 528.2 1051.76 528.2Z" fill="white"/>
<path d="M1067.75 529.069C1068.7 529.069 1069.48 528.295 1069.48 527.339C1069.48 526.384 1068.7 525.609 1067.75 525.609C1066.79 525.609 1066.02 526.384 1066.02 527.339C1066.02 528.295 1066.79 529.069 1067.75 529.069Z" fill="black"/>
<path d="M1067.32 527.33C1067.56 527.33 1067.75 527.137 1067.75 526.9C1067.75 526.662 1067.56 526.47 1067.32 526.47C1067.08 526.47 1066.89 526.662 1066.89 526.9C1066.89 527.137 1067.08 527.33 1067.32 527.33Z" fill="white"/>
<path d="M1066 540.3C1065.82 541.51 1065.21 542.615 1064.29 543.414C1063.36 544.213 1062.18 544.653 1060.96 544.653C1059.73 544.653 1058.55 544.213 1057.62 543.414C1056.7 542.615 1056.09 541.51 1055.91 540.3H1066Z" fill="white"/>
<path d="M1077.68 499.999C1077.72 497.094 1076.6 494.293 1074.58 492.207C1072.55 490.122 1069.79 488.922 1066.88 488.869C1066.01 488.872 1065.15 488.987 1064.31 489.209C1063.14 487.586 1061.56 486.305 1059.73 485.499C1057.9 484.693 1055.88 484.391 1053.9 484.625C1051.91 484.858 1050.02 485.619 1048.43 486.828C1046.83 488.036 1045.59 489.649 1044.83 491.499H1044C1041.02 491.497 1038.17 492.676 1036.06 494.778C1033.95 496.88 1032.77 499.733 1032.76 502.709C1032.76 503.144 1032.79 503.578 1032.84 504.009C1031.64 507.234 1031.6 510.777 1032.73 514.026C1033.87 517.275 1036.1 520.028 1039.04 521.809V521.809C1039.11 521.809 1039.16 521.909 1039.23 521.949V525.109C1039.23 525.28 1039.26 525.449 1039.33 525.607C1039.39 525.765 1039.49 525.908 1039.61 526.029C1039.73 526.149 1039.87 526.245 1040.03 526.311C1040.19 526.376 1040.36 526.409 1040.53 526.409C1040.7 526.409 1040.87 526.376 1041.03 526.311C1041.19 526.245 1041.33 526.149 1041.45 526.029C1041.57 525.908 1041.67 525.765 1041.73 525.607C1041.8 525.449 1041.83 525.28 1041.83 525.109V521.799C1043.74 521.089 1044.31 520.079 1043.56 511.719C1043.56 509.119 1043.56 508.259 1059.97 507.399C1071.97 506.769 1072.86 508.169 1073.48 507.399C1072.61 509.969 1070.69 519.259 1077.3 519.539V523.359C1077.3 523.53 1077.33 523.699 1077.4 523.857C1077.46 524.015 1077.56 524.158 1077.68 524.279C1077.8 524.399 1077.95 524.495 1078.1 524.561C1078.26 524.626 1078.43 524.659 1078.6 524.659C1078.77 524.659 1078.94 524.626 1079.1 524.561C1079.26 524.495 1079.4 524.399 1079.52 524.279C1079.64 524.158 1079.74 524.015 1079.8 523.857C1079.87 523.699 1079.9 523.53 1079.9 523.359V519.719C1081.38 518.662 1082.59 517.263 1083.42 515.641C1084.25 514.019 1084.68 512.221 1084.67 510.399C1084.67 508.168 1084 505.987 1082.76 504.135C1081.51 502.283 1079.75 500.843 1077.68 499.999V499.999Z" fill="black"/>
<path d="M1044.86 523.439C1044.63 523.44 1044.41 523.507 1044.21 523.633C1044.02 523.76 1043.87 523.939 1043.78 524.149C1043.32 525.156 1043.09 526.252 1043.1 527.359C1043.2 529.355 1044.07 531.235 1045.51 532.611C1046.96 533.987 1048.88 534.755 1050.88 534.755C1052.88 534.755 1054.8 533.987 1056.25 532.611C1057.7 531.235 1058.56 529.355 1058.66 527.359C1058.66 525.988 1058.3 524.641 1057.6 523.459L1044.86 523.439Z" stroke="black" stroke-width="0.91" stroke-miterlimit="10"/>
<path d="M1076.14 524.149C1076.04 523.937 1075.89 523.757 1075.69 523.631C1075.5 523.505 1075.27 523.439 1075.04 523.439H1062.31C1061.72 524.466 1061.36 525.615 1061.28 526.798C1061.2 527.981 1061.39 529.168 1061.83 530.267C1062.28 531.366 1062.97 532.348 1063.86 533.139C1064.74 533.93 1065.79 534.508 1066.94 534.829C1068.08 535.15 1069.28 535.205 1070.44 534.992C1071.61 534.778 1072.71 534.3 1073.67 533.594C1074.62 532.889 1075.4 531.975 1075.95 530.922C1076.49 529.869 1076.79 528.705 1076.82 527.519C1076.85 526.359 1076.62 525.207 1076.14 524.149V524.149Z" stroke="black" stroke-width="0.91" stroke-miterlimit="10"/>
<path d="M1057.81 523.439H1062.13" stroke="black" stroke-width="0.91" stroke-miterlimit="10"/>
<path d="M1039.22 998.379H1009.83V1005.29H1039.22V998.379Z" class="change-color-in-svg" fill="#4D61FC"/>
<path opacity="0.2" d="M1039.23 998.379H1025.13V1005.29H1039.23V998.379Z" fill="black"/>
<path d="M1103.18 998.379H1073.79V1005.29H1103.18V998.379Z" class="change-color-in-svg" fill="#4D61FC"/>
<path opacity="0.3" d="M1039.22 998.379H1009.83V1005.29H1039.22V998.379Z" fill="black"/>
<path opacity="0.3" d="M1103.18 998.379H1073.79V1005.29H1103.18V998.379Z" fill="black"/>
<path opacity="0.2" d="M1103.19 998.379H1090.08V1005.29H1103.19V998.379Z" fill="black"/>
<path opacity="0.3" d="M1064.06 537.27C1063.97 537.122 1063.83 537.014 1063.67 536.969C1063.5 536.924 1063.33 536.946 1063.18 537.03C1062.65 537.291 1062.06 537.391 1061.48 537.32C1061.05 537.253 1060.64 537.089 1060.29 536.84C1060.08 536.71 1059.92 536.504 1059.85 536.264C1059.78 536.023 1059.8 535.764 1059.91 535.54C1059.95 535.47 1060 535.406 1060.05 535.35C1060.1 535.311 1060.16 535.277 1060.22 535.25C1060.3 535.228 1060.38 535.19 1060.45 535.138C1060.51 535.086 1060.57 535.022 1060.61 534.948C1060.65 534.875 1060.68 534.794 1060.69 534.71C1060.7 534.626 1060.69 534.541 1060.67 534.46C1060.62 534.296 1060.51 534.158 1060.37 534.073C1060.22 533.989 1060.04 533.966 1059.88 534.01C1059.62 534.111 1059.38 534.264 1059.17 534.459C1058.97 534.654 1058.81 534.887 1058.69 535.146C1058.58 535.404 1058.52 535.682 1058.51 535.965C1058.51 536.247 1058.56 536.527 1058.66 536.79C1058.79 537.129 1059 537.428 1059.28 537.66C1059.9 538.187 1060.67 538.515 1061.48 538.603C1062.29 538.69 1063.11 538.532 1063.83 538.15C1063.9 538.107 1063.97 538.051 1064.02 537.983C1064.07 537.916 1064.11 537.839 1064.13 537.758C1064.15 537.676 1064.16 537.59 1064.14 537.507C1064.13 537.423 1064.1 537.342 1064.06 537.27V537.27Z" fill="black"/>
<path opacity="0.3" d="M1083.41 522.69C1083.32 522.545 1083.18 522.441 1083.01 522.4C1082.84 522.359 1082.67 522.384 1082.52 522.47C1081.7 522.902 1081.04 523.576 1080.62 524.399C1080.2 525.223 1080.05 526.155 1080.18 527.07C1080.38 527.88 1081.18 528.07 1081.43 526.73C1081.43 526.211 1081.51 525.696 1081.66 525.2C1081.88 524.687 1082.22 524.237 1082.66 523.89C1082.88 523.72 1083.82 523.34 1083.41 522.69Z" fill="black"/>
<path opacity="0.3" d="M1040.21 528.799C1039.96 527.799 1036.97 524.669 1036.28 526.289C1036.24 526.453 1036.26 526.628 1036.34 526.776C1036.43 526.924 1036.57 527.032 1036.73 527.079H1036.65C1037.01 527.24 1037.34 527.445 1037.65 527.689C1037.97 527.936 1038.25 528.222 1038.5 528.539C1038.72 528.854 1038.91 529.189 1039.07 529.539C1039.11 529.616 1039.17 529.683 1039.24 529.736C1039.31 529.79 1039.39 529.829 1039.48 529.85C1039.56 529.872 1039.65 529.876 1039.74 529.863C1039.83 529.849 1039.91 529.818 1039.98 529.771C1040.06 529.724 1040.12 529.663 1040.17 529.591C1040.22 529.518 1040.26 529.437 1040.27 529.35C1040.29 529.264 1040.29 529.175 1040.27 529.089C1040.26 529.003 1040.22 528.921 1040.17 528.849L1040.21 528.799Z" fill="black"/>
<path opacity="0.15" d="M977.87 601.74L977.47 601.99C968.72 599.59 953.99 595.8 953.33 595.3C954.09 595.19 958.89 596.05 962.33 596.59L970.1 593.59L977.87 601.74Z" fill="black"/>
<path d="M1353.21 1011.82C1343.8 1018.92 1344.78 1024.54 1344.88 1024.68C1344.98 1024.82 1358.73 1027.16 1368.15 1020.06C1377.57 1012.96 1382.4 1003.52 1378.97 998.958C1375.54 994.398 1362.62 1004.72 1353.21 1011.82Z" class="change-color-in-svg" fill="#4D61FC"/>
<path d="M1320.66 996.53C1327.2 1001.46 1328.3 1011.1 1328.18 1011.19C1328.06 1011.28 1318.56 1012.92 1312.01 1007.99C1305.46 1003.06 1304.12 998.66 1306.51 995.5C1308.9 992.34 1314.12 991.59 1320.66 996.53Z" class="change-color-in-svg" fill="#4D61FC"/>
<path d="M1357.14 978.674C1359.83 964.698 1356.89 952.383 1350.57 951.167C1344.25 949.952 1336.95 960.296 1334.26 974.272C1331.57 988.248 1334.51 1000.56 1340.83 1001.78C1347.15 1002.99 1354.45 992.65 1357.14 978.674Z" class="change-color-in-svg" fill="#4D61FC"/>
<path d="M1345.64 969.35L1334.18 1046.11H1334.07C1334.5 1041.94 1335.66 1037.88 1337.5 1034.11C1339.3 1030.34 1341.71 1026.89 1344.64 1023.9C1344.98 1023.51 1345.35 1023.14 1345.75 1022.81L1346.92 1021.76L1348.08 1020.76L1349.34 1019.76C1350.19 1019.16 1351.03 1018.53 1351.89 1017.95L1354.61 1016.39L1355.97 1015.62L1357.4 1014.98L1360.26 1013.72C1362.17 1012.99 1364.26 1012.42 1366.19 1011.72C1364.19 1012.39 1362.19 1012.97 1360.27 1013.72L1357.4 1014.98L1355.98 1015.62L1354.63 1016.4L1351.91 1017.95C1351.04 1018.54 1350.22 1019.18 1349.37 1019.78L1348.11 1020.73L1346.95 1021.78L1345.79 1022.78C1345.39 1023.12 1345.02 1023.48 1344.67 1023.87C1341.77 1026.87 1339.37 1030.32 1337.58 1034.09C1335.74 1037.83 1334.59 1041.87 1334.18 1046.02H1334.06L1345.64 969.35Z" fill="black"/>
<path d="M1333.8 1045.85C1334.78 1041.47 1335.19 1036.97 1335 1032.48C1334.85 1027.99 1333.93 1023.55 1332.27 1019.37C1330.63 1015.17 1328.01 1011.43 1324.63 1008.45C1321.21 1005.53 1317.23 1003.33 1312.93 1001.99C1317.24 1003.31 1321.24 1005.49 1324.68 1008.4C1328.08 1011.37 1330.72 1015.12 1332.38 1019.32C1334.01 1023.52 1334.9 1027.97 1335.01 1032.48C1335.2 1036.97 1334.79 1041.47 1333.8 1045.85V1045.85Z" fill="black"/>
<path d="M355.609 302.7C355.609 302.7 373.999 269 420.549 286.4C424.148 287.773 428.003 288.343 431.845 288.069C435.687 287.795 439.423 286.683 442.79 284.813C446.157 282.943 449.074 280.359 451.337 277.242C453.6 274.125 455.154 270.551 455.889 266.77C459.409 248.06 462.569 229.13 486.029 232.39C525.079 237.86 500.869 299.56 532.879 297.21C543.559 296.42 550.239 294.61 555.449 292.53C574.462 285.059 595.602 285.081 614.599 292.59C634.279 300.23 655.479 308.92 655.479 308.92L355.609 302.7Z" fill="white"/>
<path d="M1135.11 332.69C1135.11 332.69 1149.62 306.11 1186.32 319.85C1191.47 321.818 1197.19 321.659 1202.23 319.409C1207.26 317.159 1211.2 313.001 1213.17 307.85C1213.6 306.714 1213.94 305.543 1214.17 304.35C1216.95 289.59 1219.46 274.66 1237.95 277.24C1268.75 281.56 1249.64 330.24 1274.95 328.38C1283.38 327.76 1288.65 326.32 1292.76 324.68C1307.76 318.799 1324.43 318.82 1339.42 324.74C1354.95 330.74 1371.67 337.62 1371.67 337.62L1135.11 332.69Z" fill="white"/>
</svg>