<svg class="gridItem__media" version="1.1" id="Layer_1" xmlns="http://www.w3.org/2000/svg" xmlns:xlink="http://www.w3.org/1999/xlink" x="0px" y="0px" width="1600" height="1200" viewBox="0 0 1600 1200" style="enable-background:new 0 0 1600 1200;" xml:space="preserve" fill="none">
<path d="M255.292 1080.58L178.752 570.13C177.573 555.601 181.611 541.129 190.142 529.31L432.342 147.94C438.549 139.349 446.881 132.517 456.523 128.116C466.165 123.714 476.784 121.892 487.342 122.83L1222.26 182.91C1234.84 184.019 1246.77 188.994 1256.41 197.153C1266.06 205.312 1272.94 216.255 1276.11 228.48L1444.33 668.83C1447.01 679.168 1446.94 690.026 1444.13 700.33L1338.24 1082L255.292 1080.58Z" fill="#F4F4F4"/>
<path d="M735.652 442.172C735.652 446.681 733.861 451.005 730.673 454.193C727.484 457.381 723.16 459.172 718.652 459.172H537.762C533.253 459.172 528.929 457.381 525.741 454.193C522.553 451.005 520.762 446.681 520.762 442.172H735.652Z" class="change-color-in-svg" fill="#4D61FC"/>
<path opacity="0.4" d="M735.652 442.172C735.652 446.681 733.861 451.005 730.673 454.193C727.484 457.381 723.16 459.172 718.652 459.172H537.762C533.253 459.172 528.929 457.381 525.741 454.193C522.553 451.005 520.762 446.681 520.762 442.172H735.652Z" fill="white"/>
<path d="M735.661 431.76V321.93H733.111V431.76H522.081V320.75L519.531 323.57V431.76H512.121V448.72H744.331V431.76H735.661Z" fill="#61656D"/>
<path d="M1275.65 440.172C1275.65 444.681 1273.86 449.005 1270.67 452.193C1267.48 455.381 1263.16 457.172 1258.65 457.172H1077.76C1073.25 457.172 1068.93 455.381 1065.74 452.193C1062.55 449.005 1060.76 444.681 1060.76 440.172H1275.65Z" class="change-color-in-svg" fill="#4D61FC"/>
<path opacity="0.4" d="M1275.65 440.172C1275.65 444.681 1273.86 449.005 1270.67 452.193C1267.48 455.381 1263.16 457.172 1258.65 457.172H1077.76C1073.25 457.172 1068.93 455.381 1065.74 452.193C1062.55 449.005 1060.76 444.681 1060.76 440.172H1275.65Z" fill="white"/>
<path d="M1275.66 429.76V319.93H1273.11V429.76H1062.08V318.75L1059.53 321.57V429.76H1052.12V446.72H1284.33V429.76H1275.66Z" fill="#61656D"/>
<path d="M1179.47 236.48L1180.61 235.34H1102.67L1103.81 236.48H1179.47Z" fill="#868A91"/>
<path d="M378.941 234.199H377.561L376.121 236.479H376.661L378.941 234.199Z" fill="#868A91"/>
<path d="M1014.87 317.449L1013.15 319.159H1091.09L1089.38 317.449H1014.87Z" fill="#868A91"/>
<path d="M1278.48 317.449V317.639L1278.68 317.449H1278.48Z" fill="#868A91"/>
<path d="M386.731 229.64H471.121H475.681H560.061H564.621H649.011H653.571H737.961H742.521H826.901H831.471H915.851H920.411H1009.36V230.21H1098.88V230.78H1188.39V231.35H1277.19L1276.1 228.5H381.191L380.461 229.64H382.171H386.731Z" fill="#868A91"/>
<path d="M1104.95 317.449L1102.67 319.729H1180.61L1178.33 317.449H1104.95Z" fill="#868A91"/>
<path d="M1089.38 236.48L1091.09 234.77H1013.15L1014.87 236.48H1089.38Z" fill="#868A91"/>
<path d="M1269.56 236.48L1270.13 235.91H1192.19L1192.76 236.48H1269.56Z" fill="#868A91"/>
<path d="M1281.71 320.869H1311.38L1310.08 317.449H1285.13L1281.71 320.869Z" fill="#868A91"/>
<path d="M999.291 236.479L1001.57 234.199H923.641L925.921 236.479H999.291Z" fill="#868A91"/>
<path d="M1195.04 317.449L1192.19 320.299H1270.13L1267.27 317.449H1195.04Z" fill="#868A91"/>
<path d="M1273.92 324.858H1184.4V324.288H1094.88V323.718H1005.37V323.148H920.409H915.849H831.469H826.899H742.519H737.959H653.569H649.009H564.619H560.059H475.679H471.119H386.729H382.169H321.069L319.629 325.428H1273.92V324.858Z" fill="#868A91"/>
<path d="M821.398 236.479L823.678 234.199H745.738L748.018 236.479H821.398Z" fill="#868A91"/>
<path d="M465.609 236.479L467.889 234.199H389.949L392.239 236.479H465.609Z" fill="#868A91"/>
<path d="M835.831 317.449L834.691 318.589H912.631L911.491 317.449H835.831Z" fill="#868A91"/>
<path d="M746.878 317.449L745.738 318.589H823.678L822.538 317.449H746.878Z" fill="#868A91"/>
<path d="M554.558 236.479L556.838 234.199H478.898L481.178 236.479H554.558Z" fill="#868A91"/>
<path d="M643.502 236.479L645.782 234.199H567.852L570.132 236.479H643.502Z" fill="#868A91"/>
<path d="M480.038 317.449L478.898 318.589H556.838L555.698 317.449H480.038Z" fill="#868A91"/>
<path d="M732.451 236.479L734.731 234.199H656.801L659.081 236.479H732.451Z" fill="#868A91"/>
<path d="M657.941 317.449L656.801 318.589H734.731L733.591 317.449H657.941Z" fill="#868A91"/>
<path d="M568.992 317.449L567.852 318.589H645.782L644.642 317.449H568.992Z" fill="#868A91"/>
<path d="M377.799 317.449H324.699L323.969 318.589H378.939L377.799 317.449Z" fill="#868A91"/>
<path d="M910.351 236.479L912.631 234.199H834.691L836.971 236.479H910.351Z" fill="#868A91"/>
<path d="M391.099 317.449L389.949 318.589H467.889L466.749 317.449H391.099Z" fill="#868A91"/>
<path d="M924.781 317.449L923.641 318.589H1001.57L1000.43 317.449H924.781Z" fill="#868A91"/>
<path d="M382.169 230.981V229.641H380.459L377.559 234.201H378.939L382.169 230.981Z" fill="#868A91"/>
<path d="M382.17 321.81L378.94 318.59H323.97L321.07 323.15H382.17V321.81Z" fill="#868A91"/>
<path d="M382.171 234.2V230.98L378.941 234.2L376.661 236.48L375.161 237.98L363.941 255.66L382.171 237.43V234.2Z" fill="#868A91"/>
<path d="M378.94 318.59L382.17 321.81V318.59V315.36L347.83 281.02L345.32 284.97L377.8 317.45L378.94 318.59Z" fill="#868A91"/>
<path d="M467.892 318.591H389.952L386.062 322.481L382.842 319.261L386.732 315.361V237.431L382.842 233.531L386.062 230.311L389.952 234.201H467.892L471.122 230.981V229.641H386.732H382.172V230.981V234.201V237.431V315.361V318.591V321.811V323.151H386.732H471.122V321.811L467.892 318.591Z" fill="#868A91"/>
<path d="M428.92 279.621L425.7 276.391L386.73 315.361L382.84 319.261L386.06 322.481L389.95 318.591L391.1 317.451L428.92 279.621Z" fill="#868A91"/>
<path d="M465.612 236.48L428.922 273.17L432.152 276.39L471.122 237.43V234.2V230.98L467.892 234.2L465.612 236.48Z" fill="#868A91"/>
<path d="M428.92 273.169L392.24 236.479L389.95 234.199L386.06 230.309L382.84 233.529L386.73 237.429L425.7 276.389L428.92 279.619L466.75 317.449L467.89 318.589L471.12 321.809V318.589V315.359L432.15 276.389L428.92 273.169Z" fill="#868A91"/>
<path d="M556.841 318.591H478.901L475.011 322.481L471.781 319.261L475.681 315.361V237.431L471.781 233.531L475.011 230.311L478.901 234.201H556.841L560.061 230.981V229.641H475.681H471.121V230.981V234.201V237.431V315.361V318.591V321.811V323.151H475.681H560.061V321.811L556.841 318.591Z" fill="#868A91"/>
<path d="M517.871 279.621L514.641 276.391L475.681 315.361L471.781 319.261L475.011 322.481L478.901 318.591L480.041 317.451L517.871 279.621Z" fill="#868A91"/>
<path d="M554.561 236.48L517.871 273.17L521.091 276.39L560.061 237.43V234.2V230.98L556.841 234.2L554.561 236.48Z" fill="#868A91"/>
<path d="M517.871 273.169L481.181 236.479L478.901 234.199L475.011 230.309L471.781 233.529L475.681 237.429L514.641 276.389L517.871 279.619L555.701 317.449L556.841 318.589L560.061 321.809V318.589V315.359L521.091 276.389L517.871 273.169Z" fill="#868A91"/>
<path d="M645.779 318.591H567.849L563.959 322.481L560.729 319.261L564.619 315.361V237.431L560.729 233.531L563.959 230.311L567.849 234.201H645.779L649.009 230.981V229.641H564.619H560.059V230.981V234.201V237.431V315.361V318.591V321.811V323.151H564.619H649.009V321.811L645.779 318.591Z" fill="#868A91"/>
<path d="M606.82 279.621L603.591 276.391L564.62 315.361L560.73 319.261L563.961 322.481L567.85 318.591L568.99 317.451L606.82 279.621Z" fill="#868A91"/>
<path d="M643.5 236.48L606.82 273.17L610.04 276.39L649.01 237.43V234.2V230.98L645.78 234.2L643.5 236.48Z" fill="#868A91"/>
<path d="M606.82 273.169L570.13 236.479L567.85 234.199L563.961 230.309L560.73 233.529L564.62 237.429L603.591 276.389L606.82 279.619L644.641 317.449L645.781 318.589L649.01 321.809V318.589V315.359L610.04 276.389L606.82 273.169Z" fill="#868A91"/>
<path d="M734.732 318.591H656.802L652.902 322.481L649.682 319.261L653.572 315.361V237.431L649.682 233.531L652.902 230.311L656.802 234.201H734.732L737.962 230.981V229.641H653.572H649.012V230.981V234.201V237.431V315.361V318.591V321.811V323.151H653.572H737.962V321.811L734.732 318.591Z" fill="#868A91"/>
<path d="M695.76 279.621L692.54 276.391L653.57 315.361L649.68 319.261L652.9 322.481L656.8 318.591L657.94 317.451L695.76 279.621Z" fill="#868A91"/>
<path d="M732.452 236.48L695.762 273.17L698.992 276.39L737.962 237.43V234.2V230.98L734.732 234.2L732.452 236.48Z" fill="#868A91"/>
<path d="M695.76 273.169L659.08 236.479L656.8 234.199L652.9 230.309L649.68 233.529L653.57 237.429L692.54 276.389L695.76 279.619L733.59 317.449L734.73 318.589L737.96 321.809V318.589V315.359L698.99 276.389L695.76 273.169Z" fill="#868A91"/>
<path d="M823.681 318.591H745.741L741.851 322.481L738.631 319.261L742.521 315.361V237.431L738.631 233.531L741.851 230.311L745.741 234.201H823.681L826.901 230.981V229.641H742.521H737.961V230.981V234.201V237.431V315.361V318.591V321.811V323.151H742.521H826.901V321.811L823.681 318.591Z" fill="#868A91"/>
<path d="M784.709 279.621L781.489 276.391L742.519 315.361L738.629 319.261L741.849 322.481L745.739 318.591L746.879 317.451L784.709 279.621Z" fill="#868A91"/>
<path d="M821.401 236.48L784.711 273.17L787.941 276.39L826.901 237.43V234.2V230.98L823.681 234.2L821.401 236.48Z" fill="#868A91"/>
<path d="M784.709 273.169L748.019 236.479L745.739 234.199L741.849 230.309L738.629 233.529L742.519 237.429L781.489 276.389L784.709 279.619L822.539 317.449L823.679 318.589L826.899 321.809V318.589V315.359L787.939 276.389L784.709 273.169Z" fill="#868A91"/>
<path d="M912.628 318.591H834.688L830.798 322.481L827.568 319.261L831.468 315.361V237.431L827.568 233.531L830.798 230.311L834.688 234.201H912.628L915.848 230.981V229.641H831.468H826.898V230.981V234.201V237.431V315.361V318.591V321.811V323.151H831.468H915.848V321.811L912.628 318.591Z" fill="#868A91"/>
<path d="M873.66 279.621L870.43 276.391L831.47 315.361L827.57 319.261L830.8 322.481L834.69 318.591L835.83 317.451L873.66 279.621Z" fill="#868A91"/>
<path d="M910.35 236.48L873.66 273.17L876.88 276.39L915.85 237.43V234.2V230.98L912.63 234.2L910.35 236.48Z" fill="#868A91"/>
<path d="M873.66 273.169L836.97 236.479L834.69 234.199L830.8 230.309L827.57 233.529L831.47 237.429L870.43 276.389L873.66 279.619L911.49 317.449L912.63 318.589L915.85 321.809V318.589V315.359L876.88 276.389L873.66 273.169Z" fill="#868A91"/>
<path d="M1004.8 315.359L1005.37 315.929V236.859L1004.8 237.429V315.359Z" fill="#868A91"/>
<path d="M1001.57 318.591H923.642L919.742 322.481L916.522 319.261L920.412 315.361V237.431L916.522 233.531L919.742 230.311L923.642 234.201H1001.57L1005.37 230.411V230.211H1009.36V229.641H920.412H915.852V230.981V234.201V237.431V315.361V318.591V321.811V323.151H920.412H1005.37V322.381L1001.57 318.591Z" fill="#868A91"/>
<path d="M962.609 279.621L959.38 276.391L920.409 315.361L916.52 319.261L919.74 322.481L923.64 318.591L924.78 317.451L962.609 279.621Z" fill="#868A91"/>
<path d="M999.289 236.48L962.609 273.17L965.829 276.39L1004.8 237.43L1005.37 236.86V230.41L1001.57 234.2L999.289 236.48Z" fill="#868A91"/>
<path d="M965.83 276.389L962.609 273.169L925.919 236.479L923.64 234.199L919.74 230.309L916.52 233.529L920.409 237.429L959.38 276.389L962.609 279.619L1000.43 317.449L1001.57 318.589L1005.37 322.379V315.929L1004.8 315.359L965.83 276.389Z" fill="#868A91"/>
<path d="M1094.32 315.93L1094.88 316.5V237.43L1094.32 238V315.93Z" fill="#868A91"/>
<path d="M1091.09 319.161H1013.15L1009.26 323.051L1006.04 319.831L1009.93 315.931V238.001L1006.04 234.101L1009.26 230.881L1013.15 234.771H1091.09L1094.88 230.981V230.781H1098.88V230.211H1009.36H1005.37V230.411V236.861V315.931V322.381V323.151V323.721H1094.88V322.951L1091.09 319.161Z" fill="#868A91"/>
<path d="M1052.12 280.191L1048.9 276.961L1009.93 315.931L1006.04 319.831L1009.26 323.051L1013.15 319.161L1014.87 317.451L1052.12 280.191Z" fill="#868A91"/>
<path d="M1089.38 236.48L1052.12 273.74L1055.35 276.96L1094.32 238L1094.88 237.43V230.98L1091.09 234.77L1089.38 236.48Z" fill="#868A91"/>
<path d="M1055.35 276.959L1052.12 273.739L1014.87 236.479L1013.15 234.769L1009.26 230.879L1006.04 234.099L1009.93 237.999L1048.9 276.959L1052.12 280.189L1089.38 317.449L1091.09 319.159L1094.88 322.949V316.499L1094.32 315.929L1055.35 276.959Z" fill="#868A91"/>
<path d="M1183.83 316.5L1184.4 317.07V238L1183.83 238.57V316.5Z" fill="#868A91"/>
<path d="M1180.61 319.731H1102.67L1098.78 323.621L1095.55 320.401L1099.45 316.501V238.571L1095.55 234.671L1098.78 231.451L1102.67 235.341H1180.61L1184.4 231.551V231.351H1188.39V230.781H1098.88H1094.88V230.981V237.431V316.501V322.951V323.721V324.291H1184.4V323.521L1180.61 319.731Z" fill="#868A91"/>
<path d="M1141.64 280.759L1138.41 277.539L1099.45 316.499L1095.55 320.399L1098.78 323.619L1102.67 319.729L1104.95 317.449L1141.64 280.759Z" fill="#868A91"/>
<path d="M1179.47 236.481L1141.64 274.311L1144.87 277.541L1183.83 238.571L1184.4 238.001V231.551L1180.61 235.341L1179.47 236.481Z" fill="#868A91"/>
<path d="M1144.87 277.539L1141.64 274.309L1103.81 236.479L1102.67 235.339L1098.78 231.449L1095.55 234.669L1099.45 238.569L1138.41 277.539L1141.64 280.759L1178.33 317.449L1180.61 319.729L1184.4 323.519V317.069L1183.83 316.499L1144.87 277.539Z" fill="#868A91"/>
<path d="M1273.35 317.07L1273.92 317.64V238.57L1273.35 239.14V317.07Z" fill="#868A91"/>
<path d="M1184.4 231.352V231.552V238.002V317.072V323.522V324.292V324.862H1273.92V324.092L1270.13 320.302H1192.19L1188.3 324.192L1185.07 320.972L1188.96 317.072V239.142L1185.07 235.242L1188.3 232.022L1192.19 235.912H1270.13L1273.92 232.122V231.922H1277.4L1277.19 231.352H1188.39H1184.4Z" fill="#868A91"/>
<path d="M1231.16 281.329L1227.93 278.109L1188.96 317.069L1185.07 320.969L1188.3 324.189L1192.19 320.299L1195.04 317.449L1231.16 281.329Z" fill="#868A91"/>
<path d="M1231.16 274.881L1234.38 278.111L1273.35 239.141L1273.92 238.571V232.121L1270.13 235.911L1269.56 236.481L1231.16 274.881Z" fill="#868A91"/>
<path d="M1273.35 317.07L1234.38 278.11L1231.16 274.88L1192.76 236.48L1192.19 235.91L1188.3 232.02L1185.07 235.24L1188.96 239.14L1227.93 278.11L1231.16 281.33L1267.27 317.45L1270.13 320.3L1273.92 324.09V317.64L1273.35 317.07Z" fill="#868A91"/>
<path d="M1273.92 232.122V238.572V317.642V324.092V324.862V325.432H1313.13L1311.38 320.872H1281.71L1277.81 324.762L1274.59 321.542L1278.48 317.642V317.452V239.712L1274.59 235.812L1277.7 232.702L1277.4 231.922H1273.92V232.122Z" fill="#868A91"/>
<path d="M1278.48 317.64L1274.59 321.54L1277.81 324.76L1281.71 320.87L1285.13 317.45L1303.18 299.39L1301.4 294.73L1278.68 317.45L1278.48 317.64Z" fill="#868A91"/>
<path d="M1274.59 235.809L1278.48 239.709L1281.55 242.779L1277.7 232.699L1274.59 235.809Z" fill="#868A91"/>
<path d="M1091.63 1077.82H1339.4L1339.68 1076.82H1109.51V1036.49H1350.87L1351.94 1032.65H1109.51V992.28H1363.13L1364.19 988.43H1109.51V948.1H1375.38L1376.45 944.26H1109.51V903.93H1387.63L1388.7 900.08H1109.51V859.75H1399.89L1400.95 855.91H1109.51V815.58H1412.14L1413.21 811.73H1109.51V771.4H1424.39L1425.46 767.56H1109.46V727.22H1436.6L1437.66 723.38H1109.46V683.05H1446.2C1446.2 681.77 1446.11 680.48 1446.01 679.2H1109.51V638.87H1432.86L1431.39 635.03H1109.51V594.7H1416L1414.53 590.85H1109.53V550.52H1399.13L1393.94 537H1091.63V1077.82Z" fill="#868A91"/>
<path d="M1109.51 590.849H1414.52L1399.11 550.52H1109.51V590.849Z" fill="#DADDDF"/>
<path d="M1109.51 635.029H1431.39L1415.98 594.699H1109.51V635.029Z" fill="#DADDDF"/>
<path d="M1109.51 679.198H1446.06C1445.77 675.698 1445.19 672.229 1444.31 668.828L1432.86 638.828H1109.51V679.198Z" fill="#DADDDF"/>
<path d="M1109.51 723.382H1437.71L1444.11 700.382C1445.64 694.753 1446.36 688.934 1446.25 683.102H1109.51V723.382Z" fill="#DADDDF"/>
<path d="M1109.51 767.56H1425.46L1436.65 727.23H1109.51V767.56Z" fill="#DADDDF"/>
<path d="M1109.51 811.728H1413.21L1424.39 771.398H1109.51V811.728Z" fill="#DADDDF"/>
<path d="M1109.51 855.908H1400.95L1412.14 815.578H1109.51V855.908Z" fill="#DADDDF"/>
<path d="M1109.51 900.08H1388.7L1399.89 859.75H1109.51V900.08Z" fill="#DADDDF"/>
<path d="M1109.51 944.26H1376.44L1387.63 903.93H1109.51V944.26Z" fill="#DADDDF"/>
<path d="M1109.51 988.432H1364.19L1375.38 948.102H1109.51V988.432Z" fill="#DADDDF"/>
<path d="M1109.51 1032.61H1351.94L1363.13 992.281H1109.51V1032.61Z" fill="#DADDDF"/>
<path d="M1109.51 1076.79H1339.68L1350.87 1036.45H1109.51V1076.79Z" fill="#DADDDF"/>
<path d="M927 325H875V1078H927V325Z" fill="#868A91"/>
<path d="M809.796 316.454L797.441 324.961L876.816 440.236L889.171 431.73L809.796 316.454Z" fill="#868A91"/>
<path d="M991.82 316.471L912.445 431.746L924.8 440.253L1004.17 324.977L991.82 316.471Z" fill="#868A91"/>
<path d="M392 325H340V1078H392V325Z" fill="#868A91"/>
<path d="M341.82 440.249L354.18 431.749L301.08 354.629L292.34 368.389L341.82 440.249Z" fill="#868A91"/>
<path d="M456.82 316.475L377.445 431.75L389.8 440.257L469.175 324.981L456.82 316.475Z" fill="#868A91"/>
<path d="M1384.09 1081.71H195.401C194.914 1081.67 194.459 1081.46 194.126 1081.1C193.794 1080.74 193.609 1080.27 193.609 1079.78C193.609 1079.3 193.794 1078.83 194.126 1078.47C194.459 1078.11 194.914 1077.89 195.401 1077.86H1384.09C1384.58 1077.89 1385.03 1078.11 1385.36 1078.47C1385.7 1078.83 1385.88 1079.3 1385.88 1079.78C1385.88 1080.27 1385.7 1080.74 1385.36 1081.1C1385.03 1081.46 1384.58 1081.67 1384.09 1081.71V1081.71Z" fill="#B2B6BB"/>
<path d="M873.741 887.549C875.191 887.259 1084.26 914.019 1085.32 921.929C1086.38 929.839 1089.99 934.469 1077.54 934.289C1065.09 934.109 998.711 927.289 979.541 923.029C960.371 918.769 973.701 915.929 933.961 913.939C894.221 911.949 883.371 907.419 876.871 909.119C870.371 910.819 857.871 909.119 858.021 905.729C858.171 902.339 873.741 887.549 873.741 887.549Z" class="change-color-in-svg" fill="#4D61FC"/>
<path d="M865.54 891.84C866.39 891.24 917.77 897.76 918.62 897.76C919.47 897.76 1071.05 915.42 1075.88 921.49C1080.71 927.56 970.56 919.64 966.31 919.2C962.06 918.76 903.51 911.38 902.55 911.39C901.59 911.4 861 899.18 861 899.18L865.54 891.84Z" fill="#3F4249"/>
<path d="M1110.2 956.999C1107.92 946.209 1100.69 947.769 1100.69 947.769C1100.58 943.91 1099.69 940.112 1098.09 936.599C1096.2 932.232 1093.11 928.491 1089.18 925.814C1085.25 923.137 1080.63 921.633 1075.88 921.479C1040.44 920.249 970.439 909.039 949.099 906.039C924.829 902.639 864.969 898.799 864.969 898.799C864.969 898.799 868.749 890.929 873.739 889.329C885.809 885.469 888.119 877.519 888.119 877.519H873.739C873.739 877.519 784.889 821.879 767.859 814.219C755.429 808.619 735.449 803.219 725.549 800.649C721.703 799.661 717.759 799.108 713.789 798.999C692.789 798.379 621.279 796.449 602.089 797.889C579.519 799.599 559.929 800.449 530.979 805.559C502.029 810.669 429.639 847.709 429.639 847.709L372.159 874.109C344.479 879.649 278.489 875.389 271.249 882.199C264.009 889.009 262.309 1012.49 279.339 1016.75C296.369 1021.01 330.549 1041 330.549 1041L355.869 980.049L461.569 975.849L485.419 1041H881.419L917.929 969.999L1004.93 957.999C1008.72 965.189 1023.33 992.999 1023.33 994.479C1023.33 996.179 1108.78 987.949 1111.33 981.929C1113.88 975.909 1112.47 967.789 1110.2 956.999Z" class="change-color-in-svg" fill="#4D61FC"/>
<path d="M252.331 949.609C252.856 945.37 254.993 941.496 258.298 938.791C261.603 936.085 265.822 934.756 270.081 935.079C289.081 936.519 320.461 939.829 330.551 946.509C345.331 956.299 350.871 989.939 350.871 989.939L330.551 1041L276.121 1016.49C276.121 1016.49 246.001 1001.79 252.331 949.609Z" class="change-color-in-svg" fill="#4D61FC"/>
<path opacity="0.2" d="M252.331 949.609C252.856 945.37 254.993 941.496 258.298 938.791C261.603 936.085 265.822 934.756 270.081 935.079C289.081 936.519 320.461 939.829 330.551 946.509C345.331 956.299 350.871 989.939 350.871 989.939L330.551 1041L276.121 1016.49C276.121 1016.49 246.001 1001.79 252.331 949.609Z" fill="black"/>
<path d="M958.608 938.84C938.131 938.84 918.492 946.974 904.013 961.454C889.533 975.934 881.398 995.572 881.398 1016.05V1041.05H1035.82V1016.05C1035.82 995.572 1027.68 975.934 1013.2 961.454C998.724 946.974 979.086 938.84 958.608 938.84V938.84Z" fill="#21252B"/>
<path d="M407.761 938.84C387.283 938.84 367.645 946.974 353.165 961.454C338.685 975.934 330.551 995.572 330.551 1016.05V1041.05H485.001V1016.05C485.001 1005.91 483.003 995.865 479.121 986.496C475.239 977.126 469.549 968.613 462.376 961.443C455.203 954.273 446.688 948.587 437.317 944.708C427.946 940.83 417.903 938.836 407.761 938.84V938.84Z" fill="#21252B"/>
<path opacity="0.3" d="M857.422 883.911C857.422 883.911 863.832 888.821 870.222 885.841C876.612 882.861 877.632 877.531 877.632 877.531H873.742L864.832 878.461L857.422 883.911Z" fill="black"/>
<g opacity="0.2">
<path opacity="0.2" d="M650.129 1029H649.759L511.339 1024.82V1024.34C512.209 987.682 497.579 963.192 485.149 949.092C471.679 933.812 457.809 927.092 457.669 927.092L457.439 926.982V926.732C455.759 915.832 443.679 882.022 443.549 881.682L443.309 881.012H444.029L657.329 890.112L657.379 890.512C661.569 923.557 661.663 956.993 657.659 990.062C654.659 1014.16 650.309 1028.53 650.259 1028.67L650.129 1029ZM512.319 1023.88L649.419 1028.02C650.089 1025.69 653.929 1011.85 656.679 989.892C660.654 957.05 660.576 923.844 656.449 891.022L444.669 882.022C446.369 886.822 456.669 916.022 458.319 926.332C468.745 932.003 478.069 939.498 485.849 948.462C493.793 957.436 500.123 967.718 504.559 978.852C510.14 993.199 512.779 1008.52 512.319 1023.91V1023.88Z" fill="black"/>
</g>
<g opacity="0.2">
<path opacity="0.2" d="M847.33 1030.67H847.049L649.77 1029V1028L846.77 1029.65C854.77 1014.79 857.869 910.239 858.099 902.329L656.84 891.059L656.9 890.109L859.09 901.489V901.999C858.97 906.639 855.959 1015.87 847.479 1030.48L847.33 1030.67Z" fill="black"/>
</g>
<path d="M445.109 879.09C445.109 879.09 445.679 865.61 449.939 859.64C454.199 853.67 512.669 825.58 536.089 819.19C559.509 812.8 641.259 810.25 641.259 810.25L654.879 885.19L445.109 879.09Z" fill="#3F4249"/>
<path d="M516.361 878.079L642.171 880.649L630.171 814.789C630.171 814.789 558.321 817.039 537.741 822.649C531.951 824.229 523.211 827.589 513.551 831.729C514.501 846.529 515.671 865.699 516.361 878.079Z" fill="#DADDDF"/>
<path d="M508.15 834.09C484.64 844.48 458.15 858.09 455.61 861.63C451.87 866.87 450.52 876.73 450.52 876.73L509.64 877.94L508.15 834.09Z" fill="#DADDDF"/>
<path d="M641.262 810.25C641.262 810.25 710.522 813.37 726.132 817.35C741.742 821.33 779.912 841 796.252 852C808.582 860.28 824.142 874.77 833.552 883.94C834.218 884.592 834.672 885.431 834.854 886.346C835.035 887.26 834.935 888.209 834.567 889.066C834.199 889.923 833.58 890.648 832.792 891.147C832.004 891.646 831.084 891.894 830.152 891.86L654.882 885.21L641.262 810.25Z" fill="#3F4249"/>
<path d="M652 814.789C652 814.789 713.55 817.569 727.43 821.099C741.31 824.629 775.22 842.099 789.73 851.879C800.73 859.239 820.2 874.629 828.57 882.779C829.15 883.358 829.543 884.098 829.699 884.904C829.854 885.709 829.765 886.542 829.442 887.295C829.119 888.049 828.577 888.689 827.887 889.131C827.197 889.574 826.39 889.8 825.57 889.779L664.13 881.349L652 814.789Z" fill="#DADDDF"/>
<path d="M770.189 815.34L764.189 818.11C763.941 818.221 763.728 818.397 763.572 818.618C763.415 818.84 763.321 819.1 763.298 819.37C763.276 819.64 763.326 819.912 763.444 820.156C763.562 820.401 763.743 820.609 763.969 820.76L857.429 883.91C857.429 883.91 871.339 888.31 873.749 877.53C873.739 877.53 784.859 822.14 770.189 815.34Z" fill="#DADDDF"/>
<path opacity="0.3" d="M1057.12 922.719C1057.12 922.719 1051.36 925.629 1049.82 930.099C1048.28 934.569 1054.41 947.279 1071.15 946.669C1087.89 946.059 1057.12 922.719 1057.12 922.719Z" fill="black"/>
<path d="M411.027 1077.5C445.705 1077.43 473.763 1049.26 473.696 1014.57C473.63 979.88 445.464 951.813 410.786 951.879C376.108 951.946 348.05 980.121 348.117 1014.81C348.183 1049.5 376.349 1077.57 411.027 1077.5Z" fill="black"/>
<path d="M410.974 1058.41C435.103 1058.36 454.616 1038.74 454.557 1014.61C454.498 990.473 434.889 970.955 410.76 971.014C386.631 971.073 367.118 990.686 367.177 1014.82C367.236 1038.96 386.844 1058.47 410.974 1058.41Z" fill="#868A91"/>
<path d="M410.954 1043.95C427.091 1043.89 440.125 1030.75 440.066 1014.61C440.007 998.466 426.877 985.428 410.739 985.487C394.602 985.546 381.567 998.68 381.627 1014.82C381.686 1030.97 394.816 1044.01 410.954 1043.95Z" fill="#DADDDF"/>
<path d="M959.437 1077.49C994.115 1077.42 1022.17 1049.25 1022.11 1014.56C1022.04 979.868 993.874 951.801 959.196 951.868C924.518 951.934 896.46 980.109 896.527 1014.8C896.593 1049.49 924.759 1077.55 959.437 1077.49Z" fill="black"/>
<path d="M956.792 1060.77C980.921 1060.77 1000.48 1041.21 1000.48 1017.07C1000.48 992.936 980.921 973.371 956.792 973.371C932.662 973.371 913.102 992.936 913.102 1017.07C913.102 1041.21 932.662 1060.77 956.792 1060.77Z" fill="#868A91"/>
<path d="M959.329 1044C975.466 1043.94 988.5 1030.8 988.441 1014.66C988.382 998.517 975.252 985.478 959.114 985.537C942.977 985.597 929.942 998.731 930.002 1014.87C930.061 1031.02 943.191 1044.06 959.329 1044Z" fill="#DADDDF"/>
<path d="M886.408 1036.14L480.279 1031C475.849 1030.94 476.599 1053.14 475.659 1055.8C474.719 1058.46 478.659 1061.15 484.089 1061.15H881.509C889.309 1061.15 891.738 1057.15 890.718 1053.15C890.248 1051.19 891.378 1036.21 886.408 1036.14Z" class="change-color-in-svg" fill="#4D61FC"/>
<path d="M1035.21 976.311C1032.15 976.191 1029.8 980.621 1030.21 985.621C1030.64 991.191 1027.69 1041.03 1035.84 1041.03L1092.9 1028.16C1113.9 1016.62 1113.9 990.981 1113.9 990.981C1113.9 984.591 1110.81 979.361 1106.9 979.211L1035.21 976.311Z" class="change-color-in-svg" fill="#4D61FC"/>
<path opacity="0.2" d="M1035.21 976.311C1032.15 976.191 1029.8 980.621 1030.21 985.621C1030.64 991.191 1027.69 1041.03 1035.84 1041.03L1092.9 1028.16C1113.9 1016.62 1113.9 990.981 1113.9 990.981C1113.9 984.591 1110.81 979.361 1106.9 979.211L1035.21 976.311Z" fill="black"/>
<path opacity="0.2" d="M886.408 1036.14L480.279 1031C475.849 1030.94 476.599 1053.14 475.659 1055.8C474.719 1058.46 478.659 1061.15 484.089 1061.15H881.509C889.309 1061.15 891.738 1057.15 890.718 1053.15C890.248 1051.19 891.378 1036.21 886.408 1036.14Z" fill="black"/>
<path d="M473.044 898.746L472.995 899.665C472.883 901.744 474.478 903.52 476.558 903.632L521.383 906.036C523.462 906.147 525.238 904.552 525.35 902.473L525.399 901.554C525.51 899.475 523.915 897.699 521.836 897.588L477.011 895.184C474.932 895.072 473.156 896.667 473.044 898.746Z" fill="#3F4249"/>
<path d="M673.529 909.512L673.479 910.431C673.368 912.51 674.963 914.286 677.042 914.397L721.868 916.801C723.947 916.913 725.722 915.318 725.834 913.239L725.883 912.32C725.995 910.241 724.4 908.465 722.321 908.354L677.495 905.949C675.416 905.838 673.64 907.433 673.529 909.512Z" fill="#3F4249"/>
<path opacity="0.3" d="M267.942 892.52H312.002C312.873 892.52 313.731 892.735 314.499 893.146C315.267 893.558 315.921 894.153 316.404 894.878C316.887 895.603 317.183 896.437 317.267 897.304C317.35 898.171 317.218 899.046 316.882 899.849L311.932 911.659C309.624 917.164 305.742 921.864 300.773 925.171C295.805 928.479 289.97 930.245 284.002 930.25H267.942C267.195 930.25 266.456 930.102 265.766 929.816C265.076 929.53 264.449 929.111 263.922 928.582C263.394 928.054 262.976 927.426 262.691 926.736C262.406 926.046 262.26 925.306 262.262 924.56V898.21C262.26 897.463 262.406 896.723 262.691 896.033C262.976 895.342 263.394 894.715 263.922 894.187C264.449 893.658 265.076 893.239 265.766 892.953C266.456 892.667 267.195 892.52 267.942 892.52V892.52Z" fill="black"/>
<path d="M267.191 892.52H306.401C309.761 892.52 312.041 896.369 310.741 899.849L306.341 911.659C302.141 922.919 292.341 930.25 281.471 930.25H267.191C264.391 930.25 262.121 927.7 262.121 924.56V898.21C262.121 895.07 264.391 892.52 267.191 892.52Z" fill="#DADDDF"/>
<path d="M1063.6 920.789C1063.6 920.789 1052.38 922.379 1054.27 929.789C1055.58 934.869 1062.99 940.989 1067.48 944.299C1069.6 945.872 1072.15 946.761 1074.79 946.849L1100.69 947.849C1100.69 947.849 1103.17 939.919 1094.69 928.479C1093.05 926.295 1090.94 924.511 1088.52 923.262C1086.09 922.013 1083.42 921.331 1080.69 921.269L1063.6 920.789Z" fill="#DADDDF"/>
<path d="M984.602 910.938L986.642 911.388L999.342 734.828L996.962 737.508L984.602 910.938Z" fill="#61656D"/>
<path d="M877.629 877.53C877.629 877.53 994.509 722.72 1016.53 724.71C1016.53 724.71 1018 724.11 1011.97 730.4C993.869 749.28 946.599 805.91 938.549 817.03C930.499 828.15 885.249 882.22 885.249 882.22L877.629 877.53Z" class="change-color-in-svg" fill="#4D61FC"/>
<path opacity="0.8" d="M556.669 819.52L539.379 878.55L571.459 879.2L584.749 817.07L556.669 819.52Z" fill="#F4F4F4"/>
<path opacity="0.8" d="M592.829 816.549C592.829 816.549 578.469 879.349 579.599 879.369L588.109 879.539L603.109 815.969L592.829 816.549Z" fill="#F4F4F4"/>
<path opacity="0.8" d="M700.718 817.809L684.328 882.439L707.048 883.569L721.148 819.799L700.718 817.809Z" fill="#F4F4F4"/>
<path opacity="0.8" d="M744.608 827.599C741.358 826.149 738.268 824.85 735.468 823.77L724.078 884.52H724.728L732.598 884.93L744.608 827.599Z" fill="#F4F4F4"/>
<path d="M383.488 868.92C383.488 868.92 394.608 873.56 404.408 868.92C414.208 864.28 498.928 820.32 504.888 817.81C510.848 815.3 500.278 815.34 500.278 815.34C500.278 815.34 466.138 829.09 450.168 837.59L383.488 868.92Z" fill="#DADDDF"/>
<path d="M837.811 871.93C838.301 871.93 850.891 874.93 850.891 874.93C852.677 875.471 854.226 876.603 855.286 878.14C856.345 879.677 856.851 881.528 856.721 883.39L856.331 888.88C856.207 890.659 855.509 892.35 854.343 893.698C853.176 895.047 851.603 895.981 849.861 896.36C841.921 898.08 835.641 898.78 835.641 898.28C835.641 897.56 837.811 871.93 837.811 871.93Z" class="change-color-in-svg" fill="#4D61FC"/>
<path opacity="0.3" d="M837.811 871.93C838.301 871.93 850.891 874.93 850.891 874.93C852.677 875.471 854.226 876.603 855.286 878.14C856.345 879.677 856.851 881.528 856.721 883.39L856.331 888.88C856.207 890.659 855.509 892.35 854.343 893.698C853.176 895.047 851.603 895.981 849.861 896.36C841.921 898.08 835.641 898.78 835.641 898.28C835.641 897.56 837.811 871.93 837.811 871.93Z" fill="black"/>
<path d="M1214.14 1065.83L1183.53 1073.68L1193.8 1062.12C1194.64 1061.2 1195.24 1060.08 1195.57 1058.88C1195.9 1057.68 1195.93 1056.41 1195.68 1055.19L1193.98 1045.3L1210.71 1041.53L1214.14 1065.83Z" fill="#FC9D9D"/>
<path opacity="0.15" d="M1208.14 1055.36V1055.18C1208.08 1054.66 1207.82 1054.18 1207.42 1053.85C1207.01 1053.52 1206.49 1053.36 1205.97 1053.41L1195.64 1054.26L1195.32 1052.32L1211.91 1048.51L1214.15 1065.15L1200.39 1066.73L1204.39 1063.98C1205.74 1063.02 1206.8 1061.71 1207.46 1060.19C1208.12 1058.67 1208.35 1057 1208.14 1055.36V1055.36Z" fill="black"/>
<path d="M1174 1075.24L1173.84 1074.59C1173.63 1073.48 1173.86 1072.33 1174.46 1071.37C1174.82 1070.84 1175.31 1070.4 1175.88 1070.11C1176.46 1069.82 1177.1 1069.68 1177.74 1069.71L1182.4 1069.64C1183.54 1069.37 1185.76 1068.64 1186.4 1067.64L1195.65 1055.17L1201.34 1059.92C1201.79 1060.29 1202.31 1060.55 1202.87 1060.69C1203.43 1060.83 1204.02 1060.84 1204.59 1060.72C1205.15 1060.61 1205.69 1060.36 1206.15 1060.01C1206.61 1059.66 1206.98 1059.21 1207.24 1058.69C1207.5 1058.2 1207.87 1057.76 1208.31 1057.42C1208.75 1057.08 1209.26 1056.83 1209.8 1056.69L1212.74 1056.02L1216.06 1070.51L1185.46 1075.51L1174 1075.24Z" fill="#3F4249"/>
<path d="M1173.44 1075.24L1173.34 1077.4L1185.85 1077.61L1216.76 1072.86L1216.21 1070.47L1184.9 1075.47L1173.44 1075.24Z" fill="black"/>
<path d="M1199.32 1058.14L1191.57 1068.05C1191.16 1068.58 1190.56 1068.93 1189.91 1069.05C1189.25 1069.16 1188.57 1069.03 1188 1068.68L1187.11 1068.13L1195.68 1055.19C1195.94 1055.04 1196.25 1054.98 1196.55 1055.01C1196.85 1055.04 1197.13 1055.17 1197.36 1055.37L1198.87 1056.73C1199.06 1056.88 1199.2 1057.07 1199.29 1057.3C1199.37 1057.52 1199.39 1057.76 1199.35 1058L1199.32 1058.14Z" fill="black"/>
<path d="M1189.05 1063.4L1194.23 1066.4" stroke="white" stroke-width="0.81" stroke-linecap="round" stroke-linejoin="round"/>
<path d="M1190.85 1060.78L1196.17 1063.91" stroke="white" stroke-width="0.81" stroke-linecap="round" stroke-linejoin="round"/>
<path d="M1192.73 1058.26L1197.98 1061.35" stroke="white" stroke-width="0.81" stroke-linecap="round" stroke-linejoin="round"/>
<path d="M1141.91 746.328L1137.39 749.808C1136.9 750.188 1136.33 750.458 1135.73 750.6C1135.12 750.741 1134.49 750.751 1133.88 750.628L1129.53 749.748L1124.46 744.078L1141.91 746.328Z" fill="#3F4249"/>
<path opacity="0.3" d="M1141.91 746.328L1137.39 749.808C1136.9 750.188 1136.33 750.458 1135.73 750.6C1135.12 750.741 1134.49 750.751 1133.88 750.628L1129.53 749.748L1124.46 744.078L1141.91 746.328Z" fill="black"/>
<path d="M1113.05 808.851L1101.45 801.461L1084.24 818.611L1042.83 841.611V841.491H1033.42L1025.15 842.601C1025.06 842.613 1024.97 842.648 1024.89 842.702C1024.81 842.757 1024.74 842.829 1024.7 842.913C1024.65 842.997 1024.63 843.09 1024.63 843.186C1024.63 843.281 1024.65 843.375 1024.69 843.461C1024.99 844.081 1025.97 844.921 1028.92 845.391L1026.92 849.731L1033.07 856.661C1033.07 856.661 1040.54 854.581 1045.49 850.391L1092.49 832.141L1113.05 808.851Z" fill="#FC9D9D"/>
<path d="M1121.8 775.119L1100.12 800.619L1107.6 805.349L1129.79 775.059L1121.8 775.119Z" fill="#F4F4F4"/>
<path opacity="0.15" d="M1034 856.359C1036.16 855.649 1041.6 853.659 1045.48 850.359L1092.48 832.109L1113.06 808.829L1105.57 804.059L1091.38 825.729C1090.38 827.392 1088.86 828.678 1087.05 829.389L1045.14 847.999C1045.14 847.999 1041.03 852.829 1036.03 854.529L1034 856.359Z" fill="black"/>
<path opacity="0.15" d="M1122.76 776.531L1105.7 803.861L1111.74 808.021L1128.71 776.531H1122.76Z" fill="black"/>
<path d="M1120.25 732.539L1129.08 748.849L1140.14 766.939L1124.55 779.159L1117.41 768.639L1113 771.999C1112.86 772.127 1112.71 772.248 1112.56 772.359C1109.63 774.459 1107.68 775.269 1104.02 770.799L1100.02 765.169L1097.64 765.429H1097.5C1097.33 765.428 1097.17 765.393 1097.01 765.328C1096.86 765.262 1096.72 765.166 1096.6 765.047C1096.48 764.927 1096.39 764.785 1096.33 764.629C1096.27 764.473 1096.24 764.307 1096.24 764.139L1096.35 757.719L1096.2 757.429L1095.6 756.839C1093.1 754.363 1091.33 751.251 1090.48 747.839L1089.66 744.489L1120.25 732.539Z" fill="#FC9D9D"/>
<path d="M1090.83 745.388C1095.69 747.608 1098.08 746.438 1099.43 744.948C1099.59 744.763 1099.8 744.615 1100.02 744.513C1100.25 744.411 1100.49 744.359 1100.74 744.359C1100.99 744.359 1101.23 744.411 1101.46 744.513C1101.68 744.615 1101.88 744.763 1102.05 744.948V744.948L1103.18 746.298C1104.62 748.108 1106.53 748.218 1108.71 747.408L1110.82 746.478L1113.21 749.998C1113.38 750.235 1113.62 750.405 1113.91 750.478C1114.19 750.551 1114.49 750.523 1114.75 750.398C1114.89 750.328 1115.01 750.23 1115.11 750.112C1115.21 749.994 1115.29 749.857 1115.33 749.709C1115.38 749.561 1115.4 749.406 1115.39 749.251C1115.37 749.097 1115.33 748.946 1115.26 748.808L1114.54 747.398L1119.67 745.398L1122.39 748.978C1125.72 751.348 1129.71 749.688 1129.71 749.688C1128.26 741.178 1127.2 733.288 1121.21 727.358L1121.06 727.208C1118.99 725.128 1114.13 722.748 1111.06 725.428C1109.95 726.428 1108.5 725.428 1107.81 725.308C1104.44 723.308 1097.81 725.598 1095.37 729.658L1093.89 732.408C1092.51 734.298 1091.71 735.638 1089.47 736.488C1086 737.278 1086 743.198 1090.83 745.388Z" fill="#21252B"/>
<path opacity="0.15" d="M1119.79 772.769L1121.79 766.439C1121.83 766.262 1121.81 766.077 1121.73 765.913C1121.65 765.749 1121.52 765.615 1121.36 765.529C1121.21 765.444 1121.02 765.412 1120.84 765.439C1120.66 765.466 1120.5 765.55 1120.37 765.679L1117.37 768.579L1119.79 772.769Z" fill="black"/>
<path opacity="0.15" d="M1126.66 750.31L1121.9 752C1122.19 751.048 1122.36 750.064 1122.41 749.07C1123 749.555 1123.67 749.915 1124.41 750.128C1125.14 750.341 1125.9 750.403 1126.66 750.31V750.31Z" fill="black"/>
<path d="M1099.68 757.886C1100.33 757.555 1100.57 756.708 1100.2 755.995C1099.84 755.281 1099.02 754.971 1098.37 755.303C1097.72 755.634 1097.49 756.481 1097.85 757.194C1098.21 757.907 1099.04 758.217 1099.68 757.886Z" fill="#21252B"/>
<path d="M1030.93 838.795L1027.82 840.129L1035.81 858.734L1038.92 857.4L1030.93 838.795Z" fill="#3F4249"/>
<path d="M1030.21 833.911C1030.59 835.211 1030.43 836.691 1029.21 837.361C1027.64 838.261 1026.33 837.361 1025.64 835.741L1025.46 835.321C1025.22 834.751 1023.94 835.461 1023.83 836.061C1023.68 836.905 1023.76 837.771 1024.06 838.574C1024.36 839.377 1024.86 840.087 1025.52 840.634C1026.17 841.18 1026.97 841.544 1027.81 841.688C1028.65 841.831 1029.52 841.751 1030.32 841.453C1031.12 841.155 1031.83 840.652 1032.38 839.993C1032.92 839.334 1033.29 838.542 1033.43 837.699C1033.57 836.855 1033.49 835.989 1033.19 835.187C1032.89 834.385 1032.39 833.676 1031.73 833.131C1031.22 832.681 1030 833.211 1030.21 833.911Z" fill="#3F4249"/>
<path d="M1036.83 864.719C1036.46 863.419 1036.61 861.929 1037.83 861.259C1039.4 860.369 1040.7 861.259 1041.4 862.889C1041.4 862.889 1041.57 863.299 1041.58 863.309C1041.82 863.869 1043.1 863.169 1043.21 862.569C1043.34 861.823 1043.29 861.058 1043.07 860.333C1042.85 859.609 1042.46 858.946 1041.94 858.397C1041.42 857.847 1040.78 857.427 1040.07 857.17C1039.35 856.912 1038.59 856.824 1037.84 856.912C1037.09 857 1036.37 857.263 1035.74 857.678C1035.1 858.094 1034.58 858.651 1034.2 859.306C1033.82 859.961 1033.59 860.696 1033.55 861.451C1033.5 862.207 1033.63 862.963 1033.93 863.659C1034.23 864.37 1034.7 864.997 1035.3 865.489C1035.81 865.999 1037 865.419 1036.83 864.719Z" fill="#3F4249"/>
<path opacity="0.15" d="M1034 845.262C1034 845.262 1038.11 847.362 1041.64 846.192" stroke="black" stroke-width="0.59" stroke-miterlimit="10" stroke-linecap="round"/>
<path opacity="0.15" d="M1038.08 851.929C1038.04 851.853 1037.99 851.785 1037.92 851.729C1037.75 851.581 1037.63 851.394 1037.56 851.184C1037.48 850.973 1037.46 850.748 1037.5 850.529C1037.56 850.329 1037.56 850.118 1037.5 849.919C1037.45 849.792 1037.39 849.674 1037.3 849.569C1037.15 849.391 1037.05 849.179 1037.01 848.952C1036.96 848.725 1036.97 848.49 1037.04 848.269C1037.13 848.03 1037.13 847.767 1037.04 847.529C1036.95 847.278 1036.78 847.067 1036.55 846.929C1036.35 846.814 1036.18 846.652 1036.05 846.457C1035.93 846.262 1035.85 846.039 1035.83 845.809C1035.84 845.745 1035.84 845.682 1035.83 845.619C1035.82 845.449 1035.77 845.284 1035.7 845.133C1035.62 844.982 1035.51 844.848 1035.38 844.738C1035.25 844.628 1035.1 844.545 1034.94 844.494C1034.78 844.442 1034.61 844.424 1034.44 844.439L1027.16 845.579C1026.76 845.837 1026.46 846.231 1026.32 846.689C1026.18 847.148 1026.22 847.641 1026.41 848.079C1026.51 848.324 1026.66 848.546 1026.85 848.728C1027.04 848.911 1027.27 849.051 1027.52 849.139C1026.52 850.049 1026.63 850.829 1027.09 851.419C1027.28 851.64 1027.51 851.818 1027.77 851.941C1028.04 852.063 1028.32 852.127 1028.61 852.129C1028.39 852.419 1028.28 852.776 1028.29 853.139C1028.3 853.503 1028.44 853.852 1028.67 854.129C1028.86 854.37 1029.1 854.561 1029.38 854.683C1029.66 854.805 1029.97 854.855 1030.27 854.829C1030.15 855.091 1030.11 855.385 1030.17 855.669C1030.23 855.953 1030.37 856.212 1030.58 856.409C1030.87 856.71 1031.26 856.892 1031.67 856.92C1032.09 856.947 1032.5 856.819 1032.82 856.559L1037.75 853.409C1037.98 853.244 1038.13 853.003 1038.2 852.731C1038.26 852.458 1038.22 852.173 1038.08 851.929V851.929Z" fill="black"/>
<path d="M1026.82 845.729L1034.09 844.669C1034.25 844.649 1034.42 844.662 1034.58 844.707C1034.74 844.752 1034.89 844.828 1035.01 844.93C1035.14 845.032 1035.25 845.159 1035.33 845.303C1035.41 845.447 1035.46 845.605 1035.48 845.769V845.769C1035.54 846.088 1035.48 846.418 1035.31 846.696C1035.14 846.975 1034.88 847.182 1034.57 847.279L1028.35 848.999C1027.92 849.17 1027.45 849.167 1027.02 848.991C1026.59 848.816 1026.25 848.481 1026.07 848.059C1025.87 847.65 1025.83 847.177 1025.97 846.741C1026.11 846.306 1026.42 845.942 1026.82 845.729V845.729Z" fill="#FC9D9D"/>
<path d="M1028.59 852.168L1035.59 849.568C1035.9 849.455 1036.24 849.469 1036.55 849.607C1036.85 849.746 1037.08 849.998 1037.2 850.308V850.308C1037.32 850.605 1037.33 850.936 1037.22 851.237C1037.11 851.538 1036.89 851.788 1036.61 851.938L1030.79 854.938C1030.4 855.191 1029.93 855.29 1029.48 855.216C1029.02 855.142 1028.61 854.9 1028.32 854.538C1028.18 854.366 1028.07 854.168 1028.01 853.954C1027.95 853.741 1027.93 853.517 1027.95 853.296C1027.98 853.075 1028.05 852.861 1028.16 852.667C1028.27 852.474 1028.41 852.304 1028.59 852.168Z" fill="#FC9D9D"/>
<path d="M1030.25 854.67L1036.25 851.73C1036.52 851.602 1036.83 851.586 1037.11 851.685C1037.39 851.785 1037.63 851.991 1037.76 852.26C1037.89 852.517 1037.92 852.814 1037.85 853.094C1037.78 853.374 1037.61 853.618 1037.37 853.78L1032.44 856.98C1032.12 857.239 1031.71 857.368 1031.29 857.34C1030.88 857.312 1030.49 857.13 1030.21 856.83C1030.07 856.687 1029.96 856.517 1029.88 856.33C1029.81 856.143 1029.77 855.943 1029.77 855.742C1029.78 855.54 1029.82 855.342 1029.9 855.158C1029.98 854.974 1030.1 854.808 1030.25 854.67V854.67Z" fill="#FC9D9D"/>
<path d="M1027.18 849.402L1035 847.002C1035.33 846.892 1035.68 846.908 1036 847.047C1036.32 847.185 1036.57 847.437 1036.71 847.752V847.752C1036.81 848.061 1036.78 848.395 1036.64 848.686C1036.49 848.976 1036.24 849.2 1035.94 849.312L1029.39 852.082C1028.96 852.323 1028.47 852.41 1027.98 852.33C1027.5 852.25 1027.06 852.007 1026.73 851.642C1026.27 851.092 1026.13 850.312 1027.18 849.402Z" fill="#FC9D9D"/>
<path opacity="0.15" d="M1027.75 849.25L1034.85 847.07" stroke="black" stroke-width="0.59" stroke-miterlimit="10" stroke-linecap="round"/>
<path opacity="0.15" d="M1028.62 852.302L1036.03 849.422" stroke="black" stroke-width="0.59" stroke-miterlimit="10" stroke-linecap="round"/>
<path opacity="0.15" d="M1030.8 854.939L1036.62 852.359" stroke="black" stroke-width="0.59" stroke-miterlimit="10" stroke-linecap="round"/>
<path d="M1214.18 896.461L1193.6 962.891L1213.3 1049.03L1193.6 1052.85L1168.91 981.711L1184.78 899.401L1214.18 896.461Z" class="change-color-in-svg" fill="#4D61FC"/>
<path opacity="0.15" d="M1212.15 903.011L1183.02 968.771L1201.54 1051.38L1193.6 1052.85L1168.91 981.711L1202.52 897.621L1214.18 896.461L1212.15 903.011Z" fill="black"/>
<path d="M1098.1 756.63C1098.21 756.63 1098.3 756.541 1098.3 756.43C1098.3 756.32 1098.21 756.23 1098.1 756.23C1097.99 756.23 1097.9 756.32 1097.9 756.43C1097.9 756.541 1097.99 756.63 1098.1 756.63Z" fill="white"/>
<path d="M1118.63 755.44L1114.63 747.68C1114.21 746.854 1114.14 745.895 1114.42 745.014C1114.71 744.133 1115.33 743.401 1116.16 742.98C1116.98 742.561 1117.94 742.487 1118.82 742.773C1119.71 743.06 1120.44 743.685 1120.86 744.51L1121.64 746.04C1122.48 747.685 1122.64 749.597 1122.08 751.358C1121.51 753.119 1120.28 754.587 1118.64 755.44H1118.63Z" fill="#FC9D9D"/>
<g opacity="0.3">
<path opacity="0.3" d="M1116.69 748.729L1116.03 747.429C1115.75 746.885 1115.71 746.255 1115.89 745.674C1116.08 745.094 1116.49 744.611 1117.03 744.329C1117.32 744.165 1117.65 744.071 1117.99 744.054C1118.32 744.036 1118.66 744.096 1118.97 744.229H1119.04C1119.15 744.298 1119.23 744.407 1119.27 744.534C1119.3 744.661 1119.29 744.797 1119.23 744.914C1119.17 745.031 1119.06 745.12 1118.94 745.164C1118.82 745.208 1118.68 745.203 1118.56 745.149C1118.39 745.063 1118.2 745.019 1118.01 745.019C1117.82 745.019 1117.64 745.063 1117.47 745.149V745.149C1117.16 745.308 1116.92 745.583 1116.81 745.915C1116.7 746.246 1116.73 746.608 1116.89 746.919L1117.55 748.219C1117.61 748.345 1117.62 748.488 1117.57 748.619C1117.53 748.751 1117.44 748.862 1117.32 748.929C1117.27 748.967 1117.21 748.993 1117.14 749.003C1117.08 749.013 1117.01 749.008 1116.95 748.989C1116.89 748.969 1116.84 748.936 1116.79 748.891C1116.74 748.846 1116.71 748.79 1116.69 748.729Z" fill="#21252B"/>
</g>
<path d="M1101.45 767.401C1102.41 766.806 1103.28 766.071 1104.02 765.221C1104.06 765.177 1104.11 765.147 1104.17 765.135C1104.22 765.123 1104.28 765.13 1104.34 765.154C1104.39 765.179 1104.43 765.221 1104.46 765.272C1104.49 765.324 1104.5 765.383 1104.49 765.441C1104.22 766.796 1103.58 768.049 1102.64 769.061L1101.45 767.401Z" fill="white"/>
<path d="M1099.27 751.289C1095.27 751.989 1094.61 754.049 1094.61 754.049L1094.76 754.439C1094.76 754.439 1097.22 752.079 1099.16 751.679L1099.27 751.289Z" fill="#21252B"/>
<path d="M1123.6 815.57L1110.73 803.57L1093.66 827L1057.42 853.87L1046.57 856.59L1037.87 859.59C1037.73 859.642 1037.61 859.735 1037.52 859.858C1037.44 859.98 1037.39 860.126 1037.39 860.275C1037.39 860.425 1037.44 860.57 1037.52 860.693C1037.61 860.815 1037.73 860.909 1037.87 860.96C1038.93 861.41 1041.46 861.08 1046.02 860.52L1042.46 864.52L1035.69 871.29C1035.47 871.495 1035.35 871.776 1035.34 872.073C1035.33 872.37 1035.43 872.66 1035.63 872.88C1035.83 873.076 1036.09 873.19 1036.36 873.201C1036.64 873.212 1036.91 873.119 1037.12 872.94L1037.71 872.44L1035.99 874.28C1035.81 874.468 1035.7 874.712 1035.67 874.972C1035.65 875.233 1035.71 875.493 1035.86 875.71C1035.95 875.838 1036.06 875.945 1036.2 876.025C1036.33 876.105 1036.48 876.157 1036.63 876.177C1036.79 876.196 1036.94 876.184 1037.09 876.14C1037.24 876.096 1037.38 876.021 1037.5 875.92L1039.97 873.79L1038.97 875.43C1038.84 875.639 1038.79 875.888 1038.84 876.129C1038.88 876.371 1039.01 876.588 1039.2 876.74C1039.39 876.881 1039.61 876.957 1039.84 876.957C1040.08 876.957 1040.3 876.881 1040.49 876.74L1048.49 870.91L1043.65 877.56C1043.6 877.64 1043.56 877.729 1043.54 877.822C1043.53 877.915 1043.53 878.011 1043.55 878.104C1043.57 878.197 1043.6 878.285 1043.66 878.363C1043.71 878.442 1043.78 878.509 1043.86 878.56C1043.99 878.642 1044.15 878.678 1044.31 878.661C1044.46 878.645 1044.61 878.578 1044.72 878.47L1051.97 871.74C1055.45 869.013 1058.75 866.071 1061.86 862.93L1103.92 838.72C1104.91 838.06 1105.81 837.259 1106.57 836.34L1123.6 815.57Z" fill="#FC9D9D"/>
<path d="M1172.77 1070L1141.18 1070.8L1153.78 1061.8C1154.8 1061.08 1155.63 1060.13 1156.22 1059.03C1156.81 1057.94 1157.13 1056.71 1157.16 1055.47L1157.71 1045.47L1174.86 1045.53L1172.77 1070Z" fill="#FC9D9D"/>
<path opacity="0.15" d="M1169.27 1058.48V1058.3C1169.33 1057.78 1169.19 1057.25 1168.86 1056.83C1168.54 1056.42 1168.06 1056.15 1167.54 1056.08L1157.28 1054.61L1157.4 1052.61H1174.4L1172.86 1069.33L1159.09 1067.79L1163.64 1066.01C1165.17 1065.38 1166.51 1064.35 1167.5 1063.02C1168.49 1061.7 1169.1 1060.13 1169.27 1058.48V1058.48Z" fill="black"/>
<path d="M1129.81 1075.26V1074.58C1129.81 1073.52 1130.23 1072.5 1130.98 1071.75C1131.73 1071 1132.75 1070.58 1133.81 1070.58H1139.47C1140.06 1070.58 1140.64 1070.47 1141.19 1070.25C1141.74 1070.03 1142.24 1069.7 1142.66 1069.29L1157.11 1055.58L1161.59 1061.48C1161.94 1061.93 1162.39 1062.31 1162.9 1062.56C1163.42 1062.82 1163.98 1062.96 1164.56 1062.98C1165.14 1062.99 1165.71 1062.87 1166.23 1062.63C1166.75 1062.39 1167.22 1062.04 1167.59 1061.6C1167.95 1061.17 1168.4 1060.82 1168.91 1060.58C1169.42 1060.34 1169.98 1060.2 1170.54 1060.19H1173.54V1075L1129.81 1075.26Z" fill="#3F4249"/>
<path d="M1129.81 1075.26V1077.47H1173.75V1075L1129.81 1075.26Z" fill="black"/>
<path d="M1160.05 1059.22L1150.27 1067.15C1149.75 1067.57 1149.09 1067.78 1148.42 1067.75C1147.76 1067.71 1147.12 1067.43 1146.65 1066.96L1145.91 1066.22L1157.16 1055.53C1157.45 1055.45 1157.76 1055.45 1158.05 1055.55C1158.33 1055.65 1158.58 1055.84 1158.76 1056.08L1159.92 1057.74C1160.07 1057.93 1160.17 1058.15 1160.2 1058.39C1160.23 1058.63 1160.2 1058.87 1160.11 1059.09L1160.05 1059.22Z" fill="black"/>
<path d="M1148.86 1062L1153.22 1066.12" stroke="white" stroke-width="0.81" stroke-linecap="round" stroke-linejoin="round"/>
<path d="M1151.2 1059.89L1155.68 1064.13" stroke="white" stroke-width="0.81" stroke-linecap="round" stroke-linejoin="round"/>
<path d="M1153.59 1057.87L1158 1062" stroke="white" stroke-width="0.81" stroke-linecap="round" stroke-linejoin="round"/>
<path d="M1133 809.44L1166 885.87L1149 960C1148.55 961.946 1148.39 963.947 1148.52 965.94L1154.21 1052.89H1176.55L1177.73 967.05L1206.8 909.9C1209.06 905.46 1211.52 901.12 1213.96 896.77C1223.19 880.27 1211.83 860.63 1211.83 860.63L1164.2 783.63C1154.2 768.35 1144.8 767.17 1144.8 767.17C1141.13 766.17 1136.8 767.89 1133.09 770.17C1127.91 773.415 1123.6 777.878 1120.53 783.17L1106.53 807.08L1123.58 820.6L1133 809.44Z" class="change-color-in-svg" fill="#4D61FC"/>
<path opacity="0.15" d="M1062.37 862.372L1103.82 838.732C1104.82 838.072 1105.71 837.27 1106.47 836.352L1123.6 815.572L1120.6 812.852L1102.77 835.002L1061.83 859.942L1044.28 877.942L1044.37 878.032C1044.5 878.112 1044.66 878.146 1044.82 878.13C1044.97 878.114 1045.12 878.048 1045.23 877.942L1052.48 871.202C1055.96 868.468 1059.26 865.519 1062.37 862.372V862.372Z" fill="black"/>
<path d="M1144.8 767.109C1144.8 767.109 1152.14 770.949 1159 782.409C1162.18 787.755 1164.54 793.546 1166 799.589L1172.18 824.749C1172.48 825.955 1172.51 827.209 1172.28 828.428C1172.05 829.648 1171.56 830.804 1170.85 831.819C1169.35 833.981 1167.58 835.932 1165.56 837.619C1164.63 838.379 1163.55 838.937 1162.39 839.257C1161.23 839.577 1160.01 839.652 1158.82 839.478C1157.63 839.304 1156.49 838.885 1155.47 838.246C1154.45 837.608 1153.58 836.764 1152.9 835.769L1134.24 808.269L1123.65 820.609L1106 807.679L1121.8 780.999C1121.8 780.999 1130.1 767.109 1144.8 767.109Z" fill="#F4F4F4"/>
<path opacity="0.15" d="M1037.16 872.48L1043.96 866.57" stroke="black" stroke-width="0.59" stroke-miterlimit="10" stroke-linecap="round"/>
<path opacity="0.15" d="M1039.4 873.86L1045.52 869.07" stroke="black" stroke-width="0.59" stroke-miterlimit="10" stroke-linecap="round"/>
<path opacity="0.15" d="M1175.26 889.05C1176.27 885.287 1175.92 881.287 1174.26 877.76L1139.18 802.68C1138.86 802.03 1138.38 801.47 1137.79 801.049C1137.2 800.627 1136.51 800.358 1135.79 800.264C1135.07 800.17 1134.34 800.254 1133.66 800.51C1132.98 800.766 1132.38 801.185 1131.9 801.73L1118.61 816.79L1123.31 820.91L1133.11 809.66L1166 885.87L1149 960C1148.55 961.946 1148.39 963.947 1148.52 965.94L1154.21 1052.89H1160L1155.29 966.12C1155.18 964.204 1155.39 962.283 1155.89 960.43L1175.26 889.05Z" fill="black"/>
<path opacity="0.15" d="M1133.34 809.74L1138.63 803.27" stroke="black" stroke-width="0.59" stroke-miterlimit="10" stroke-linecap="round"/>
<path d="M1117.37 741.998L1136.06 747.368C1137.07 747.659 1138.12 747.709 1139.15 747.512C1140.18 747.316 1141.14 746.879 1141.97 746.238L1144.16 744.558C1144.26 744.499 1144.33 744.411 1144.38 744.307C1144.42 744.202 1144.43 744.086 1144.41 743.975C1144.38 743.864 1144.32 743.764 1144.24 743.689C1144.15 743.614 1144.04 743.568 1143.93 743.558L1130.34 740.828L1117.37 741.998Z" fill="#3F4249"/>
<path d="M1130.09 740.928L1114.77 742.268L1089.52 746.998C1089.49 747.004 1089.47 747.005 1089.44 747.001C1089.42 746.997 1089.39 746.987 1089.37 746.973C1089.35 746.959 1089.33 746.941 1089.31 746.92C1089.3 746.898 1089.29 746.874 1089.28 746.848L1088.76 744.648C1088.75 744.602 1088.76 744.554 1088.78 744.511C1088.8 744.468 1088.83 744.432 1088.87 744.408L1092.64 742.598C1092.68 742.577 1092.71 742.544 1092.73 742.502C1092.75 742.461 1092.76 742.414 1092.75 742.368C1092.58 741.518 1091.57 737.478 1088.28 737.448C1088.24 737.451 1088.21 737.445 1088.18 737.431C1088.15 737.416 1088.12 737.394 1088.1 737.365C1088.08 737.337 1088.07 737.304 1088.06 737.27C1088.06 737.235 1088.07 737.2 1088.08 737.168C1088.9 735.308 1093.86 725.088 1104.73 723.908C1105.23 723.908 1105.73 723.798 1106.24 723.698C1109.32 723.068 1124.11 719.968 1130.24 740.638C1130.25 740.667 1130.26 740.698 1130.26 740.73C1130.26 740.761 1130.25 740.791 1130.23 740.819C1130.22 740.847 1130.2 740.871 1130.17 740.89C1130.15 740.909 1130.12 740.922 1130.09 740.928Z" class="change-color-in-svg" fill="#4D61FC"/>
<path opacity="0.2" d="M1110.45 723.069C1115.12 722.479 1126.3 725.219 1130.32 740.839L1121.13 741.539C1120.76 737.878 1119.62 734.338 1117.78 731.153C1115.94 727.968 1113.44 725.212 1110.45 723.069V723.069Z" fill="black"/>
<path d="M1252.08 1030.68L1248.38 1030.5L1248.77 1022.46H1290.02V1030.59H1286.32V1026.16H1252.29L1252.08 1030.68Z" fill="#21252B"/>
<path d="M1318.18 1034.08H1233.06V1077.34H1318.18V1034.08Z" class="change-color-in-svg" fill="#4D61FC"/>
<path opacity="0.1" d="M1318.18 1034.08H1233.06V1077.34H1318.18V1034.08Z" fill="black"/>
<path opacity="0.2" d="M1318.17 1034.08H1296.54V1077.34H1318.17V1034.08Z" fill="black"/>
<path d="M1320.27 1030.59H1230.27V1038.96H1320.27V1030.59Z" class="change-color-in-svg" fill="#4D61FC"/>
<path opacity="0.2" d="M1320.26 1030.59H1296.54V1038.96H1320.26V1030.59Z" fill="black"/>
<path d="M1270.73 1038.96H1256.08V1045.24H1270.73V1038.96Z" fill="#F4F4F4"/>
<path d="M533.49 551H490.75V566.31H533.49V551Z" fill="#DADDDF"/>
<path d="M500.26 573.48H457.52V588.79H500.26V573.48Z" fill="#DADDDF"/>
<path d="M552.76 573.48H510.02V588.79H552.76V573.48Z" fill="#DADDDF"/>
<path d="M531.388 595.961H488.648V611.271H531.388V595.961Z" fill="#DADDDF"/>
<path d="M834.49 728H791.75V743.31H834.49V728Z" fill="#DADDDF"/>
<path d="M801.26 750.48H758.52V765.79H801.26V750.48Z" fill="#DADDDF"/>
<path d="M853.76 750.48H811.02V765.79H853.76V750.48Z" fill="#DADDDF"/>
<path d="M832.388 772.961H789.648V788.271H832.388V772.961Z" fill="#DADDDF"/>
<path d="M794.128 454.73H840.828V438H794.128V454.73Z" fill="#DADDDF"/>
<path d="M405.128 808.73H451.828V792H405.128V808.73Z" fill="#DADDDF"/>
<path d="M1307.13 462.73H1353.83V446H1307.13V462.73Z" fill="#DADDDF"/>
<path d="M619.128 190.73H665.828V174H619.128V190.73Z" fill="#DADDDF"/>
<path d="M817.48 481.141H864.18V464.411H817.48V481.141Z" fill="#DADDDF"/>
<path d="M1055.18 581H1008.48V597.73H1055.18V581Z" fill="#DADDDF"/>
<path d="M1031.83 607.422H985.129V624.152H1031.83V607.422Z" fill="#DADDDF"/>
<path d="M227.128 653.73H273.828V637H227.128V653.73Z" fill="#DADDDF"/>
<path d="M250.48 680.141H297.18V663.411H250.48V680.141Z" fill="#DADDDF"/>
</svg>