<svg class="gridItem__media" version="1.1" id="Layer_1" xmlns="http://www.w3.org/2000/svg" xmlns:xlink="http://www.w3.org/1999/xlink" x="0px" y="0px" width="1600" height="1200" viewBox="0 0 1600 1200" style="enable-background:new 0 0 1600 1200;" xml:space="preserve" fill="none">
<path d="M262.521 1055.44L217.201 499.79C216.036 485.628 219.969 471.517 228.291 460L454.471 147C460.514 138.639 468.624 131.99 478.007 127.703C487.389 123.415 497.724 121.636 508.001 122.54L1282.29 190.81C1294.55 191.889 1306.17 196.736 1315.56 204.683C1324.95 212.631 1331.65 223.291 1334.74 235.2L1441.12 644.64C1443.74 654.707 1443.67 665.285 1440.93 675.32L1336.83 1056.83L262.521 1055.44Z" fill="#F4F4F4"/>
<path d="M1132.73 1056.56H1336.93L1337.22 1055.48H1151.37V1013.42H1348.7L1349.79 1009.42H1151.37V967.36H1361.26L1362.36 963.36H1151.36V921.3H1373.82L1374.92 917.3H1151.37V875.24H1386.37L1387.46 871.24H1151.37V829.18H1399L1400.09 825.18H1151.37V783.12H1411.54L1412.63 779.12H1151.37V737.06H1424.1L1425.2 733.06H1151.37V691H1436.67L1437.77 687H1151.37V644.94H1441.22C1441.22 644.84 1441.22 644.74 1441.14 644.64L1440.14 640.94H1151.37V598.88H1429.26L1428.26 594.88H1151.37V552.82H1417.29L1416.29 548.82H1151.37V506.76H1405.37L1401.71 492.67H1132.73V1056.56Z" fill="#B2B6BB"/>
<path d="M1151.37 548.82H1416.25L1405.32 506.76H1151.37V548.82Z" fill="#DADDDF"/>
<path d="M1151.37 594.88H1428.21L1417.29 552.83H1151.37V594.88Z" fill="#DADDDF"/>
<path d="M1151.37 640.941H1440.18L1429.26 598.881H1151.37V640.941Z" fill="#DADDDF"/>
<path d="M1151.37 686.999H1437.77L1440.95 675.319C1443.66 665.386 1443.75 654.919 1441.22 644.939H1151.37V686.999Z" fill="#DADDDF"/>
<path d="M1151.37 733.06H1425.2L1436.67 691H1151.37V733.06Z" fill="#DADDDF"/>
<path d="M1151.37 779.121H1412.63L1424.1 737.061H1151.37V779.121Z" fill="#DADDDF"/>
<path d="M1151.37 825.179H1400.06L1411.54 783.119H1151.37V825.179Z" fill="#DADDDF"/>
<path d="M1151.37 871.24H1387.49L1398.97 829.18H1151.37V871.24Z" fill="#DADDDF"/>
<path d="M1151.37 917.29H1374.93L1386.4 875.24H1151.37V917.29Z" fill="#DADDDF"/>
<path d="M1151.37 963.361H1362.36L1373.83 921.301H1151.37V963.361Z" fill="#DADDDF"/>
<path d="M1151.37 1009.42H1349.79L1361.27 967.359H1151.37V1009.42Z" fill="#DADDDF"/>
<path d="M1151.37 1055.47H1337.22L1348.7 1013.42H1151.37V1055.47Z" fill="#DADDDF"/>
<path d="M933 168H885V1056H933V168Z" fill="#868A91"/>
<path opacity="0.2" d="M933.003 168H909.383V1056H933.003V168Z" fill="black"/>
<path d="M429.656 359.4C429.668 348.963 433.521 338.896 440.483 331.12C447.444 323.343 457.024 318.402 467.396 317.24V317H472.056C483.301 317 494.086 321.467 502.038 329.419C509.989 337.37 514.456 348.155 514.456 359.4C514.456 370.645 509.989 381.43 502.038 389.381C494.086 397.333 483.301 401.8 472.056 401.8H467.396V401.55C457.024 400.392 447.442 395.454 440.481 387.679C433.519 379.904 429.666 369.836 429.656 359.4" fill="#B2B6BB"/>
<path d="M467.4 401.8C475.786 401.8 483.984 399.313 490.956 394.654C497.929 389.995 503.363 383.373 506.572 375.626C509.782 367.878 510.621 359.353 508.985 351.128C507.349 342.903 503.311 335.348 497.381 329.419C491.452 323.489 483.897 319.451 475.672 317.815C467.447 316.179 458.922 317.018 451.174 320.228C443.427 323.437 436.805 328.871 432.146 335.844C427.487 342.816 425 351.014 425 359.4C425 370.645 429.467 381.43 437.419 389.381C445.37 397.333 456.155 401.8 467.4 401.8" fill="#868A91"/>
<path d="M467.396 397.14C474.861 397.14 482.157 394.927 488.363 390.78C494.57 386.633 499.407 380.739 502.263 373.843C505.12 366.947 505.867 359.358 504.411 352.037C502.955 344.717 499.36 337.992 494.082 332.714C488.804 327.436 482.08 323.842 474.759 322.385C467.438 320.929 459.85 321.677 452.954 324.533C446.058 327.389 440.163 332.227 436.017 338.433C431.87 344.639 429.656 351.936 429.656 359.4C429.655 364.357 430.63 369.265 432.526 373.844C434.423 378.424 437.202 382.585 440.707 386.089C444.212 389.594 448.373 392.374 452.952 394.27C457.532 396.166 462.44 397.142 467.396 397.14" fill="white"/>
<path d="M467.396 397.14C474.861 397.14 482.157 394.927 488.363 390.78C494.57 386.633 499.407 380.739 502.263 373.843C505.12 366.947 505.867 359.358 504.411 352.037C502.955 344.717 499.36 337.992 494.082 332.714C488.804 327.436 482.08 323.842 474.759 322.385C467.438 320.929 459.85 321.677 452.954 324.533C446.058 327.389 440.163 332.227 436.017 338.433C431.87 344.639 429.656 351.936 429.656 359.4C429.655 364.357 430.63 369.265 432.526 373.844C434.423 378.424 437.202 382.585 440.707 386.089C444.212 389.594 448.373 392.374 452.952 394.27C457.532 396.166 462.44 397.142 467.396 397.14" fill="#868A91"/>
<g opacity="0.9">
<g opacity="0.9">
<path opacity="0.9" d="M467.396 397.14C474.861 397.14 482.157 394.927 488.363 390.78C494.57 386.633 499.407 380.739 502.263 373.843C505.12 366.947 505.867 359.358 504.411 352.037C502.955 344.717 499.36 337.992 494.082 332.714C488.804 327.436 482.08 323.842 474.759 322.385C467.438 320.929 459.85 321.677 452.954 324.533C446.058 327.389 440.163 332.227 436.017 338.433C431.87 344.639 429.656 351.936 429.656 359.4C429.655 364.357 430.63 369.265 432.526 373.844C434.423 378.424 437.202 382.585 440.707 386.089C444.212 389.594 448.373 392.374 452.952 394.27C457.532 396.166 462.44 397.142 467.396 397.14" fill="white"/>
</g>
</g>
<path d="M467.396 321.661C468.064 321.649 468.732 321.676 469.396 321.741C459.744 322.238 450.651 326.423 443.995 333.431C437.339 340.439 433.628 349.736 433.628 359.401C433.628 369.066 437.339 378.362 443.995 385.37C450.651 392.379 459.744 396.563 469.396 397.061C468.746 397.061 468.086 397.141 467.396 397.141C457.387 397.141 447.788 393.165 440.71 386.087C433.632 379.009 429.656 369.41 429.656 359.401C429.656 349.392 433.632 339.792 440.71 332.715C447.788 325.637 457.387 321.661 467.396 321.661" fill="#B2B6BB"/>
<path d="M467.068 362.339L479.568 337.419C479.673 336.977 479.625 336.512 479.43 336.1C479.236 335.689 478.907 335.356 478.498 335.157C478.089 334.958 477.625 334.904 477.181 335.004C476.737 335.105 476.341 335.353 476.058 335.709L465.278 357.109L450.898 350.109C450.663 349.924 450.391 349.793 450.099 349.727C449.808 349.661 449.506 349.661 449.214 349.727C448.923 349.793 448.65 349.923 448.416 350.108C448.182 350.294 447.992 350.529 447.86 350.797C447.729 351.066 447.659 351.36 447.656 351.659C447.654 351.957 447.718 352.253 447.844 352.523C447.97 352.794 448.156 353.033 448.386 353.223C448.617 353.412 448.888 353.548 449.178 353.619L467.068 362.339Z" class="change-color-in-svg" fill="#4D61FC"/>
<g opacity="0.5">
<g opacity="0.5">
<path opacity="0.5" d="M435.048 378.84C431.607 373.114 429.747 366.576 429.66 359.896C429.572 353.215 431.259 346.631 434.549 340.816C437.839 335.002 442.613 330.164 448.385 326.799C454.156 323.433 460.717 321.66 467.398 321.66C468.458 321.66 469.398 321.74 470.498 321.82L435.048 378.84Z" fill="white"/>
</g>
</g>
<g opacity="0.5">
<g opacity="0.5">
<path opacity="0.5" d="M476.138 322.721C477.956 323.131 479.733 323.704 481.448 324.431L442.398 387.751C440.862 386.401 439.44 384.926 438.148 383.341L476.138 322.721Z" fill="white"/>
</g>
</g>
<path d="M961 180H856V153L961 162V180Z" fill="#61656D"/>
<path opacity="0.2" d="M961 180H921V159L961 162V180Z" fill="black"/>
<path d="M1136.81 1009.78L1133.12 1009.6L1133.5 1001.56H1174.76V1009.69H1171.06V1005.26H1137.03L1136.81 1009.78Z" fill="#21252B"/>
<path d="M1202.91 1013.18H1117.79V1056.44H1202.91V1013.18Z" class="change-color-in-svg" fill="#4D61FC"/>
<path opacity="0.1" d="M1202.91 1013.18H1117.79V1056.44H1202.91V1013.18Z" fill="black"/>
<path opacity="0.2" d="M1202.91 1013.18H1181.28V1056.44H1202.91V1013.18Z" fill="black"/>
<path d="M1205 1009.69H1115V1018.06H1205V1009.69Z" class="change-color-in-svg" fill="#4D61FC"/>
<path opacity="0.2" d="M1205 1009.69H1181.28V1018.06H1205V1009.69Z" fill="black"/>
<path d="M1155.46 1018.06H1140.81V1024.34H1155.46V1018.06Z" fill="#F4F4F4"/>
<path d="M1377.1 1059.87L223.689 1058.38C223.461 1058.41 223.229 1058.39 223.009 1058.33C222.788 1058.26 222.585 1058.15 222.411 1058C222.238 1057.85 222.099 1057.66 222.004 1057.45C221.909 1057.24 221.859 1057.02 221.859 1056.79C221.859 1056.56 221.909 1056.33 222.004 1056.12C222.099 1055.91 222.238 1055.72 222.411 1055.57C222.585 1055.42 222.788 1055.31 223.009 1055.24C223.229 1055.18 223.461 1055.16 223.689 1055.19L1377.11 1056.68C1377.34 1056.65 1377.57 1056.67 1377.79 1056.73C1378.01 1056.8 1378.21 1056.91 1378.39 1057.06C1378.56 1057.21 1378.7 1057.4 1378.79 1057.61C1378.89 1057.82 1378.94 1058.05 1378.94 1058.28C1378.94 1058.51 1378.89 1058.73 1378.79 1058.94C1378.7 1059.15 1378.56 1059.34 1378.39 1059.49C1378.21 1059.64 1378.01 1059.75 1377.79 1059.82C1377.57 1059.88 1377.34 1059.9 1377.11 1059.87H1377.1Z" fill="#B2B6BB"/>
<path d="M1004 561H1175V658.3C1175 661.933 1173.56 665.418 1170.99 667.987C1168.42 670.557 1164.93 672 1161.3 672H1004V561Z" fill="#21252B"/>
<path d="M1003.62 518.901C1005.07 518.621 1214.13 545.381 1215.2 553.291C1216.27 561.201 1219.87 565.831 1207.42 565.651C1194.97 565.471 1128.59 558.651 1109.42 554.391C1090.25 550.131 1103.57 547.291 1063.83 545.301C1024.09 543.311 1013.25 538.771 1006.75 540.481C1000.25 542.191 987.75 540.481 987.9 537.091C988.05 533.701 1003.62 518.901 1003.62 518.901Z" class="change-color-in-svg" fill="#4D61FC"/>
<path d="M1037.28 658.409C1037.28 648.27 1039.28 638.23 1043.16 628.862C1047.04 619.495 1052.73 610.983 1059.9 603.814C1067.07 596.644 1075.58 590.957 1084.94 587.077C1094.31 583.196 1104.35 581.199 1114.49 581.199V581.199C1120.06 581.2 1125.62 581.804 1131.06 582.999C1118.44 574.633 1103.63 570.18 1088.49 570.199V570.199C1078.35 570.199 1068.31 572.196 1058.94 576.077C1049.58 579.957 1041.07 585.644 1033.9 592.814C1026.73 599.983 1021.04 608.495 1017.16 617.862C1013.28 627.23 1011.28 637.27 1011.28 647.409V672.409H1037.28V658.409Z" fill="#21252B"/>
<path d="M1217.7 554.999C1215.91 553.549 1214.24 551.999 1212.52 550.409C1195.9 535.409 1079.39 522.189 1031.52 517.309C1021.77 516.321 1012.31 513.448 1003.67 508.849C1003.67 508.849 914.817 453.209 897.787 445.549C885.357 439.949 865.377 434.549 855.477 431.979C851.631 430.991 847.687 430.438 843.717 430.329C822.717 429.709 751.197 427.779 732.007 429.219C709.447 430.929 689.857 431.779 660.907 436.889C631.957 441.999 559.567 479.039 559.567 479.039L501.997 505.479C474.317 511.019 408.317 506.759 401.077 513.569C393.837 520.379 392.137 643.859 409.167 648.119C426.197 652.379 460.377 672.389 460.377 672.389L485.697 611.439L591.407 607.239L615.257 672.389H1011.26V647.389C1011.26 626.912 1019.39 607.273 1033.87 592.794C1048.35 578.314 1067.99 570.179 1088.47 570.179C1105.16 570.183 1121.4 575.596 1134.76 585.607C1148.12 595.618 1157.88 609.688 1162.57 625.709C1184.84 624.229 1239.16 618.049 1241.18 613.269C1243.72 607.269 1242.32 599.129 1240.05 588.349C1237.78 577.569 1230.54 579.119 1230.54 579.119C1230.44 575.281 1229.57 571.501 1228 567.999C1228 567.999 1225.83 561.629 1217.7 554.999ZM1013.09 524.849L1013.75 524.659L1027.61 526.569C1022.8 525.999 1017.75 525.429 1013.09 524.889V524.849Z" class="change-color-in-svg" fill="#4D61FC"/>
<path d="M382.211 581C382.727 576.747 384.865 572.858 388.18 570.145C391.495 567.432 395.73 566.104 400.001 566.44C419.001 567.88 450.391 571.19 460.471 577.86C475.261 587.66 480.801 621.3 480.801 621.3L460.471 672.39L406.001 647.88C406.001 647.88 375.911 633.15 382.211 581Z" class="change-color-in-svg" fill="#4D61FC"/>
<path opacity="0.2" d="M382.211 581C382.727 576.747 384.865 572.858 388.18 570.145C391.495 567.432 395.73 566.104 400.001 566.44C419.001 567.88 450.391 571.19 460.471 577.86C475.261 587.66 480.801 621.3 480.801 621.3L460.471 672.39L406.001 647.88C406.001 647.88 375.911 633.15 382.211 581Z" fill="black"/>
<path d="M537.632 570.199C517.155 570.199 497.516 578.334 483.036 592.813C468.556 607.293 460.422 626.932 460.422 647.409V672.409H614.842V647.409C614.842 626.932 606.707 607.293 592.228 592.813C577.748 578.334 558.109 570.199 537.632 570.199V570.199Z" fill="#21252B"/>
<path opacity="0.3" d="M987.297 515.271C987.297 515.271 993.707 520.181 1000.1 517.201C1006.49 514.221 1007.51 508.891 1007.51 508.891H1003.62L994.697 509.821L987.297 515.271Z" fill="black"/>
<g opacity="0.2">
<path opacity="0.2" d="M779.997 644.529H779.638L641.217 640.799V640.369C642.087 607.639 627.458 585.769 615.028 573.189C607.091 565.068 597.789 558.404 587.547 553.499L587.318 553.399V553.179C585.638 543.449 573.547 513.259 573.427 512.959L573.188 512.359H573.898L787.198 520.479L787.247 520.839C791.446 550.311 791.543 580.221 787.537 609.719C784.537 631.239 780.178 644.069 780.138 644.199L779.997 644.529ZM642.198 639.999L779.297 643.699C779.967 641.609 783.807 629.249 786.557 609.699C790.533 580.401 790.453 550.695 786.318 521.419L574.537 513.349C576.247 517.639 586.538 543.669 588.198 552.909C598.443 557.863 607.756 564.548 615.727 572.669C623.551 580.513 629.89 589.708 634.438 599.809C639.981 612.462 642.632 626.192 642.198 639.999V639.999Z" fill="black"/>
</g>
<g opacity="0.2">
<path opacity="0.2" d="M977.208 646H976.928L779.648 644.52V643.67L976.648 645.14C984.648 631.87 987.758 538.52 987.988 531.46L786.718 521.34L786.778 520.49L988.998 530.65V531.07C988.868 535.21 985.868 632.74 977.388 645.79L977.208 646Z" fill="black"/>
</g>
<path d="M575 510.449C575 510.449 575.57 496.959 579.82 490.999C584.07 485.039 642.56 456.939 665.98 450.549C689.4 444.159 771.15 441.609 771.15 441.609L784.77 516.549L575 510.449Z" fill="#3F4249"/>
<path d="M646.237 509.441L772.047 512.001L760.047 446.141C760.047 446.141 688.208 448.391 667.628 454.001C661.838 455.581 653.097 458.941 643.438 463.081C644.377 477.891 645.547 497.061 646.237 509.441Z" fill="#DADDDF"/>
<path d="M637.997 465.449C614.487 475.839 587.997 489.499 585.457 492.989C581.717 498.229 580.367 508.089 580.367 508.089L639.487 509.299L637.997 465.449Z" fill="#DADDDF"/>
<path d="M771.141 441.609C771.141 441.609 840.401 444.729 856.011 448.709C871.621 452.689 909.791 472.369 926.121 483.339C938.461 491.619 954.011 506.109 963.431 515.279C964.097 515.931 964.551 516.77 964.732 517.685C964.914 518.6 964.814 519.548 964.446 520.405C964.078 521.262 963.459 521.988 962.671 522.486C961.883 522.985 960.963 523.234 960.031 523.199L784.761 516.549L771.141 441.609Z" fill="#3F4249"/>
<path d="M781.922 446.15C781.922 446.15 843.472 448.93 857.342 452.46C871.212 455.99 905.142 473.46 919.652 483.24C930.652 490.6 950.122 505.99 958.482 514.14C959.062 514.72 959.455 515.46 959.611 516.265C959.766 517.07 959.676 517.903 959.353 518.657C959.03 519.41 958.489 520.05 957.799 520.493C957.109 520.935 956.302 521.161 955.482 521.14L794.002 512.75L781.922 446.15Z" fill="#DADDDF"/>
<path d="M900.058 446.699L894.058 449.459C893.811 449.572 893.598 449.749 893.442 449.971C893.286 450.194 893.192 450.454 893.169 450.725C893.147 450.996 893.197 451.268 893.315 451.513C893.432 451.758 893.613 451.967 893.838 452.119L987.298 515.269C987.298 515.269 1001.2 519.669 1003.62 508.889C1003.62 508.889 914.738 453.499 900.058 446.699Z" fill="#DADDDF"/>
<path opacity="0.3" d="M1188 554.08C1188 554.08 1182.24 556.99 1180.7 561.46C1179.16 565.93 1185.29 578.64 1202.03 578.03C1218.77 577.42 1188 554.08 1188 554.08Z" fill="black"/>
<path d="M540.89 708.861C575.568 708.794 603.626 680.619 603.56 645.93C603.493 611.241 575.327 583.174 540.649 583.241C505.971 583.307 477.913 611.482 477.98 646.171C478.047 680.86 506.213 708.927 540.89 708.861Z" fill="black"/>
<path d="M540.857 689.768C564.986 689.709 584.499 670.096 584.44 645.961C584.381 621.826 564.772 602.309 540.643 602.368C516.514 602.427 497.001 622.04 497.06 646.174C497.119 670.309 516.727 689.827 540.857 689.768Z" fill="#868A91"/>
<path d="M540.84 675.304C556.978 675.244 570.012 662.11 569.953 645.967C569.894 629.824 556.764 616.785 540.626 616.844C524.488 616.903 511.454 630.038 511.513 646.181C511.573 662.324 524.703 675.363 540.84 675.304Z" fill="#DADDDF"/>
<path d="M1012.55 650.5L613.891 645.32C609.541 645.26 610.281 667.46 609.361 670.12C608.441 672.78 612.361 675.47 617.631 675.47H1007.75C1015.4 675.47 1017.75 671.47 1016.75 667.47C1016.32 665.55 1017.43 650.57 1012.55 650.5Z" class="change-color-in-svg" fill="#4D61FC"/>
<path d="M1165.08 607.67C1162.08 607.55 1159.68 611.98 1160.08 616.98C1160.51 622.55 1157.56 672.39 1165.71 672.39L1222.77 659.52C1243.77 647.98 1243.77 622.33 1243.77 622.33C1243.77 615.95 1240.69 610.72 1236.83 610.57L1165.08 607.67Z" class="change-color-in-svg" fill="#4D61FC"/>
<path opacity="0.2" d="M1165.08 607.67C1162.08 607.55 1159.68 611.98 1160.08 616.98C1160.51 622.55 1157.56 672.39 1165.71 672.39L1222.77 659.52C1243.77 647.98 1243.77 622.33 1243.77 622.33C1243.77 615.95 1240.69 610.72 1236.83 610.57L1165.08 607.67Z" fill="black"/>
<path opacity="0.2" d="M1012.55 650.5L613.891 645.32C609.541 645.26 610.281 667.46 609.361 670.12C608.441 672.78 612.361 675.47 617.631 675.47H1007.75C1015.4 675.47 1017.75 671.47 1016.75 667.47C1016.32 665.55 1017.43 650.57 1012.55 650.5Z" fill="black"/>
<path d="M601.399 527.419L601.353 528.339C601.248 530.422 602.852 532.194 604.934 532.298L649.824 534.542C651.906 534.646 653.678 533.043 653.783 530.961L653.829 530.041C653.933 527.959 652.329 526.187 650.247 526.082L605.357 523.838C603.275 523.734 601.503 525.337 601.399 527.419Z" fill="#3F4249"/>
<path d="M803.415 540.875L803.366 541.794C803.254 543.873 804.849 545.649 806.929 545.76L851.754 548.165C853.833 548.276 855.609 546.681 855.721 544.602L855.77 543.683C855.881 541.604 854.286 539.828 852.207 539.717L807.382 537.313C805.303 537.201 803.527 538.796 803.415 540.875Z" fill="#3F4249"/>
<path opacity="0.3" d="M397.823 523.881H441.893C442.764 523.88 443.622 524.095 444.39 524.507C445.158 524.918 445.813 525.513 446.295 526.239C446.777 526.965 447.072 527.799 447.154 528.666C447.235 529.534 447.101 530.408 446.763 531.211L441.813 543.001C439.505 548.508 435.622 553.21 430.652 556.517C425.681 559.825 419.843 561.59 413.873 561.591H397.823C397.076 561.591 396.336 561.444 395.645 561.158C394.955 560.872 394.328 560.453 393.799 559.924C393.271 559.396 392.852 558.769 392.566 558.078C392.28 557.388 392.133 556.648 392.133 555.901V529.571C392.133 528.824 392.28 528.084 392.566 527.393C392.852 526.703 393.271 526.076 393.799 525.547C394.328 525.019 394.955 524.6 395.645 524.314C396.336 524.028 397.076 523.881 397.823 523.881V523.881Z" fill="black"/>
<path d="M397.06 523.881H436.28C439.64 523.881 441.92 527.731 440.62 531.211L436.21 543.001C432.01 554.261 422.21 561.591 411.34 561.591H397.06C394.27 561.591 392 559.041 392 555.901V529.571C392 526.431 394.27 523.881 397.06 523.881Z" fill="#DADDDF"/>
<path d="M1194.47 552.15C1194.47 552.15 1183.26 553.74 1185.15 561.15C1186.46 566.23 1193.87 572.35 1198.35 575.66C1200.48 577.226 1203.03 578.115 1205.67 578.21L1231.56 579.21C1231.56 579.21 1234.05 571.28 1225.56 559.84C1223.93 557.656 1221.82 555.872 1219.39 554.623C1216.97 553.374 1214.29 552.693 1211.56 552.63L1194.47 552.15Z" fill="#F4F4F4"/>
<path opacity="0.8" d="M686.548 450.88L669.258 509.91L701.338 510.56L714.628 448.43L686.548 450.88Z" fill="#F4F4F4"/>
<path opacity="0.8" d="M722.707 447.91C722.707 447.91 708.347 510.71 709.477 510.73L717.987 510.9L732.987 447.33L722.707 447.91Z" fill="#F4F4F4"/>
<path opacity="0.8" d="M830.591 449.17L814.211 513.8L836.931 514.93L851.021 451.16L830.591 449.17Z" fill="#F4F4F4"/>
<path opacity="0.8" d="M874.49 459C871.24 457.55 868.15 456.25 865.35 455.17L854 515.88H854.65L862.52 516.29L874.49 459Z" fill="#F4F4F4"/>
<path d="M513.367 500.279C513.367 500.279 524.487 504.919 534.277 500.279C544.067 495.639 628.807 451.679 634.767 449.169C640.727 446.659 630.157 446.699 630.157 446.699C630.157 446.699 595.997 460.449 580.047 468.999L513.367 500.279Z" fill="#DADDDF"/>
<path d="M967.688 503.289C968.178 503.289 980.768 506.289 980.768 506.289C982.552 506.832 984.1 507.965 985.157 509.502C986.214 511.038 986.718 512.888 986.588 514.749L986.208 520.239C986.084 522.018 985.386 523.709 984.22 525.058C983.053 526.406 981.48 527.34 979.738 527.719C971.798 529.439 965.508 530.139 965.508 529.639C965.508 528.919 967.688 503.289 967.688 503.289Z" class="change-color-in-svg" fill="#4D61FC"/>
<path opacity="0.3" d="M967.688 503.289C968.178 503.289 980.768 506.289 980.768 506.289C982.552 506.832 984.1 507.965 985.157 509.502C986.214 511.038 986.718 512.888 986.588 514.749L986.208 520.239C986.084 522.018 985.386 523.709 984.22 525.058C983.053 526.406 981.48 527.34 979.738 527.719C971.798 529.439 965.508 530.139 965.508 529.639C965.508 528.919 967.688 503.289 967.688 503.289Z" fill="black"/>
<path opacity="0.2" d="M1020.35 516.16L1013 525C1013 525 1154.65 536.78 1201.83 544.89C1201.83 544.89 1161.7 530.32 1020.35 516.16Z" fill="white"/>
<path d="M717 147H669V1056H717V147Z" fill="#868A91"/>
<path opacity="0.2" d="M717.003 147H693.383V1056H717.003V147Z" fill="black"/>
<path d="M745 180H640V134L745 144V180Z" fill="#61656D"/>
<path opacity="0.2" d="M745 180H705V140L745 144V180Z" fill="black"/>
<path d="M1088.87 670.199C1102.75 670.199 1114 658.948 1114 645.069C1114 631.191 1102.75 619.939 1088.87 619.939C1074.99 619.939 1063.74 631.191 1063.74 645.069C1063.74 658.948 1074.99 670.199 1088.87 670.199Z" fill="#868A91"/>
<path d="M1108.87 645.27C1108.87 649.225 1107.69 653.092 1105.5 656.381C1103.3 659.67 1100.18 662.233 1096.52 663.747C1092.87 665.261 1088.84 665.657 1084.97 664.885C1081.09 664.113 1077.52 662.209 1074.73 659.412C1071.93 656.615 1070.02 653.051 1069.25 649.171C1068.48 645.292 1068.88 641.27 1070.39 637.616C1071.9 633.961 1074.47 630.838 1077.76 628.64C1081.04 626.443 1084.91 625.27 1088.87 625.27C1094.17 625.27 1099.26 627.377 1103.01 631.127C1106.76 634.878 1108.87 639.965 1108.87 645.27Z" fill="#DADDDF"/>
<path d="M1080.48 637.289C1082.33 637.289 1083.82 635.794 1083.82 633.949C1083.82 632.105 1082.33 630.609 1080.48 630.609C1078.64 630.609 1077.14 632.105 1077.14 633.949C1077.14 635.794 1078.64 637.289 1080.48 637.289Z" fill="#868A91"/>
<path d="M1097.72 637.289C1099.57 637.289 1101.06 635.794 1101.06 633.949C1101.06 632.105 1099.57 630.609 1097.72 630.609C1095.88 630.609 1094.38 632.105 1094.38 633.949C1094.38 635.794 1095.88 637.289 1097.72 637.289Z" fill="#868A91"/>
<path d="M1105.85 648.94C1105.85 649.6 1105.66 650.246 1105.29 650.795C1104.92 651.344 1104.4 651.773 1103.79 652.025C1103.18 652.278 1102.51 652.344 1101.86 652.215C1101.21 652.087 1100.62 651.768 1100.15 651.301C1099.68 650.834 1099.36 650.239 1099.24 649.591C1099.11 648.943 1099.17 648.272 1099.43 647.661C1099.68 647.051 1100.11 646.53 1100.66 646.163C1101.21 645.796 1101.85 645.6 1102.51 645.6C1103.4 645.602 1104.24 645.955 1104.87 646.581C1105.5 647.207 1105.85 648.055 1105.85 648.94V648.94Z" fill="#868A91"/>
<path d="M1075.24 652.28C1077.08 652.28 1078.58 650.784 1078.58 648.94C1078.58 647.095 1077.08 645.6 1075.24 645.6C1073.39 645.6 1071.9 647.095 1071.9 648.94C1071.9 650.784 1073.39 652.28 1075.24 652.28Z" fill="#868A91"/>
<path d="M1091.7 659.109C1091.7 659.77 1091.51 660.416 1091.14 660.965C1090.77 661.514 1090.25 661.942 1089.64 662.195C1089.03 662.448 1088.36 662.514 1087.71 662.385C1087.06 662.256 1086.47 661.938 1086 661.471C1085.53 661.004 1085.22 660.409 1085.09 659.761C1084.96 659.113 1085.02 658.442 1085.28 657.831C1085.53 657.221 1085.96 656.699 1086.51 656.332C1087.06 655.965 1087.7 655.77 1088.36 655.77C1089.25 655.77 1090.1 656.121 1090.73 656.748C1091.35 657.374 1091.7 658.224 1091.7 659.109V659.109Z" fill="#868A91"/>
<path d="M1098.35 645.269C1098.35 647.144 1097.79 648.977 1096.75 650.536C1095.71 652.095 1094.23 653.31 1092.5 654.027C1090.77 654.745 1088.86 654.933 1087.02 654.567C1085.18 654.201 1083.49 653.298 1082.17 651.972C1080.84 650.647 1079.94 648.957 1079.57 647.119C1079.21 645.28 1079.39 643.373 1080.11 641.641C1080.83 639.909 1082.04 638.428 1083.6 637.387C1085.16 636.345 1087 635.789 1088.87 635.789C1091.38 635.789 1093.8 636.788 1095.57 638.566C1097.35 640.344 1098.35 642.755 1098.35 645.269Z" fill="#868A91"/>
<path d="M348.712 1055C354.395 1055 359.002 1050.39 359.002 1044.71C359.002 1039.03 354.395 1034.42 348.712 1034.42C343.029 1034.42 338.422 1039.03 338.422 1044.71C338.422 1050.39 343.029 1055 348.712 1055Z" fill="#868A91"/>
<path opacity="0.2" d="M348.71 1034.42C349.304 1034.42 349.896 1034.48 350.48 1034.58C345.65 1035.43 343.39 1040.81 343.39 1044.71C343.39 1048.61 345.65 1053.99 350.48 1054.84C349.073 1055.09 347.629 1055.05 346.24 1054.71C344.851 1054.37 343.548 1053.75 342.414 1052.88C341.279 1052.01 340.338 1050.91 339.651 1049.66C338.963 1048.41 338.545 1047.02 338.421 1045.6C338.298 1044.17 338.472 1042.74 338.934 1041.39C339.395 1040.03 340.134 1038.79 341.102 1037.74C342.07 1036.69 343.246 1035.85 344.556 1035.28C345.866 1034.71 347.281 1034.41 348.71 1034.42Z" fill="black"/>
<path d="M461.571 1055C467.254 1055 471.861 1050.39 471.861 1044.71C471.861 1039.03 467.254 1034.42 461.571 1034.42C455.888 1034.42 451.281 1039.03 451.281 1044.71C451.281 1050.39 455.888 1055 461.571 1055Z" fill="#868A91"/>
<path opacity="0.2" d="M461.569 1034.42C462.163 1034.42 462.755 1034.48 463.339 1034.58C458.509 1035.43 456.249 1040.81 456.249 1044.71C456.249 1048.61 458.509 1053.99 463.339 1054.84C461.932 1055.09 460.488 1055.05 459.099 1054.71C457.711 1054.37 456.407 1053.75 455.273 1052.88C454.138 1052.01 453.198 1050.91 452.51 1049.66C451.823 1048.41 451.404 1047.02 451.281 1045.6C451.157 1044.17 451.332 1042.74 451.793 1041.39C452.255 1040.03 452.993 1038.79 453.961 1037.74C454.929 1036.69 456.105 1035.85 457.415 1035.28C458.725 1034.71 460.14 1034.41 461.569 1034.42V1034.42Z" fill="black"/>
<path d="M511.712 1055C517.395 1055 522.002 1050.39 522.002 1044.71C522.002 1039.03 517.395 1034.42 511.712 1034.42C506.029 1034.42 501.422 1039.03 501.422 1044.71C501.422 1050.39 506.029 1055 511.712 1055Z" fill="#868A91"/>
<path opacity="0.2" d="M511.712 1034.42C512.305 1034.42 512.897 1034.48 513.482 1034.58C508.652 1035.43 506.382 1040.81 506.382 1044.71C506.382 1048.61 508.652 1053.99 513.482 1054.84C512.897 1054.94 512.305 1055 511.712 1055C508.983 1055 506.365 1053.92 504.436 1051.99C502.506 1050.06 501.422 1047.44 501.422 1044.71C501.422 1041.98 502.506 1039.36 504.436 1037.43C506.365 1035.5 508.983 1034.42 511.712 1034.42V1034.42Z" fill="black"/>
<path d="M392.767 1055C398.45 1055 403.057 1050.39 403.057 1044.71C403.057 1039.03 398.45 1034.42 392.767 1034.42C387.084 1034.42 382.477 1039.03 382.477 1044.71C382.477 1050.39 387.084 1055 392.767 1055Z" fill="#868A91"/>
<path opacity="0.2" d="M392.772 1034.42C393.366 1034.42 393.958 1034.48 394.542 1034.58C389.712 1035.43 387.453 1040.81 387.453 1044.71C387.453 1048.61 389.712 1053.99 394.542 1054.84C393.135 1055.09 391.691 1055.05 390.303 1054.71C388.914 1054.37 387.611 1053.75 386.476 1052.88C385.342 1052.01 384.401 1050.91 383.713 1049.66C383.026 1048.41 382.607 1047.02 382.484 1045.6C382.36 1044.17 382.535 1042.74 382.996 1041.39C383.458 1040.03 384.196 1038.79 385.164 1037.74C386.132 1036.69 387.309 1035.85 388.618 1035.28C389.928 1034.71 391.343 1034.41 392.772 1034.42Z" fill="black"/>
<path d="M529 819.77H325V1036.21H529V819.77Z" fill="#B2B6BB"/>
<path opacity="0.2" d="M529.002 819.77H482.742V1036.21H529.002V819.77Z" fill="black"/>
<path d="M475.918 829.699H331.828V873.389H475.918V829.699Z" fill="#DADDDF"/>
<path d="M475.918 880H331.828V923.69H475.918V880Z" fill="#DADDDF"/>
<path d="M475.918 930.311H331.828V974.001H475.918V930.311Z" fill="#DADDDF"/>
<path d="M475.918 980.609H331.828V1024.3H475.918V980.609Z" fill="#DADDDF"/>
<path opacity="0.3" d="M418.188 849.301H384.188V853.771H418.188V849.301Z" fill="black"/>
<path opacity="0.3" d="M417.789 999.34H383.789V1003.81H417.789V999.34Z" fill="black"/>
<path opacity="0.3" d="M417.922 949.33H383.922V953.8H417.922V949.33Z" fill="black"/>
<path opacity="0.3" d="M418.047 899.32H384.047V903.79H418.047V899.32Z" fill="black"/>
<path d="M959 710H491V731H959V710Z" fill="#868A91"/>
<path d="M1097.12 712.73C1103.12 709.81 1108.12 703.63 1108.12 703.63L1104.12 694.97L1099.22 695.03C1100 692.03 1099.62 690.79 1099.16 690.24C1099.09 690.166 1099.01 690.108 1098.92 690.07C1098.83 690.033 1098.73 690.018 1098.64 690.025C1098.54 690.033 1098.44 690.064 1098.36 690.115C1098.28 690.166 1098.21 690.237 1098.16 690.32L1093.69 697.66L1089.22 705.92L1087.8 708.29L1094.56 715.05L1097.12 712.73Z" fill="#FC9D9D"/>
<path opacity="0.15" d="M1097.12 712.73C1101.82 710.43 1105.94 706.14 1107.49 704.4L1104.89 705.52C1101.22 709.52 1094.98 711.4 1094.98 711.4L1093.27 713.7L1095.27 714.38L1097.12 712.73Z" fill="black"/>
<path d="M1109.33 707.179L1075.67 674.509C1075.45 674.29 1075.29 674.017 1075.21 673.717C1075.13 673.417 1075.12 673.101 1075.2 672.799C1075.92 670.039 1075.06 667.929 1071.97 666.439C1069.66 665.425 1067.1 665.079 1064.6 665.439L1064.34 665.949L1068 667.819C1068.98 668.322 1069.72 669.192 1070.06 670.24C1070.4 671.288 1070.31 672.428 1069.81 673.409V673.489C1069.31 674.47 1068.44 675.212 1067.39 675.551C1066.34 675.89 1065.2 675.8 1064.21 675.299L1060.56 673.429L1060.31 673.909C1061.41 676.229 1063.22 678.134 1065.48 679.339C1068.06 680.519 1069.9 680.449 1071.48 679.339C1071.83 679.063 1072.26 678.923 1072.7 678.945C1073.14 678.967 1073.56 679.15 1073.87 679.459L1106.08 710.659C1106.3 710.879 1106.45 711.15 1106.53 711.446C1106.6 711.743 1106.6 712.054 1106.52 712.349C1106.17 713.712 1106.28 715.152 1106.83 716.446C1107.38 717.741 1108.34 718.819 1109.57 719.513C1110.79 720.208 1112.21 720.48 1113.6 720.289C1115 720.098 1116.29 719.454 1117.28 718.456C1118.27 717.459 1118.91 716.162 1119.09 714.767C1119.27 713.372 1118.99 711.956 1118.29 710.738C1117.58 709.519 1116.5 708.565 1115.2 708.023C1113.9 707.481 1112.46 707.382 1111.1 707.739C1110.78 707.818 1110.45 707.807 1110.14 707.708C1109.83 707.61 1109.55 707.427 1109.33 707.179ZM1116.96 715.099L1113.87 718.179C1113.83 718.228 1113.77 718.263 1113.7 718.281C1113.64 718.299 1113.57 718.298 1113.5 718.279L1109.28 717.149C1109.22 717.134 1109.15 717.1 1109.11 717.053C1109.06 717.005 1109.02 716.945 1109 716.879L1107.87 712.659C1107.85 712.593 1107.86 712.523 1107.87 712.456C1107.89 712.39 1107.92 712.329 1107.97 712.279L1111.06 709.199C1111.11 709.151 1111.17 709.115 1111.24 709.096C1111.3 709.076 1111.37 709.074 1111.44 709.089L1115.65 710.219C1115.72 710.238 1115.78 710.273 1115.83 710.322C1115.88 710.371 1115.91 710.432 1115.93 710.499L1117.06 714.719C1117.09 714.782 1117.09 714.851 1117.08 714.917C1117.07 714.984 1117.04 715.047 1117 715.099H1116.96Z" fill="#868A91"/>
<path d="M1107.67 708.829L1107.61 708.889C1107.5 709.003 1107.36 709.093 1107.21 709.155C1107.07 709.216 1106.91 709.248 1106.75 709.248C1106.59 709.248 1106.43 709.216 1106.28 709.155C1106.14 709.093 1106 709.003 1105.89 708.889L1074 677.999C1073.89 677.887 1073.8 677.754 1073.73 677.608C1073.67 677.461 1073.64 677.303 1073.64 677.144C1073.64 676.985 1073.67 676.827 1073.73 676.681C1073.8 676.534 1073.89 676.401 1074 676.289L1074.06 676.229C1074.17 676.116 1074.3 676.026 1074.45 675.964C1074.6 675.903 1074.75 675.871 1074.91 675.871C1075.07 675.871 1075.23 675.903 1075.38 675.964C1075.52 676.026 1075.66 676.116 1075.77 676.229L1107.65 707.099C1107.88 707.327 1108.01 707.636 1108.01 707.96C1108.02 708.284 1107.89 708.596 1107.67 708.829V708.829Z" fill="#DADDDF"/>
<path opacity="0.15" d="M1097.07 699.779C1097.07 699.779 1097.34 704.519 1094.77 707.349" stroke="black" stroke-width="0.61" stroke-miterlimit="10" stroke-linecap="round"/>
<path opacity="0.15" d="M1101.64 706.4C1101.59 706.33 1101.55 706.252 1101.52 706.17C1101.45 705.944 1101.32 705.742 1101.14 705.584C1100.97 705.426 1100.75 705.317 1100.52 705.27C1100.31 705.238 1100.11 705.144 1099.95 705C1099.85 704.905 1099.76 704.789 1099.7 704.66C1099.6 704.449 1099.44 704.268 1099.25 704.133C1099.05 703.999 1098.83 703.915 1098.59 703.89C1098.33 703.862 1098.09 703.745 1097.9 703.56C1097.71 703.373 1097.58 703.126 1097.54 702.86C1097.52 702.621 1097.44 702.391 1097.3 702.191C1097.17 701.99 1096.99 701.825 1096.78 701.71C1096.72 701.686 1096.67 701.656 1096.61 701.62C1096.46 701.539 1096.32 701.428 1096.21 701.293C1096.1 701.158 1096.01 701.002 1095.96 700.834C1095.91 700.666 1095.89 700.49 1095.91 700.316C1095.93 700.141 1095.99 699.973 1096.07 699.82L1100.16 693.45C1100.57 693.166 1101.06 693.042 1101.56 693.103C1102.05 693.164 1102.5 693.405 1102.82 693.78C1103.01 693.973 1103.16 694.203 1103.25 694.457C1103.34 694.71 1103.38 694.98 1103.36 695.25C1104.64 694.65 1105.36 695.12 1105.68 695.79C1105.81 696.06 1105.88 696.355 1105.88 696.655C1105.88 696.954 1105.81 697.25 1105.68 697.52C1106.05 697.432 1106.44 697.472 1106.78 697.634C1107.12 697.796 1107.4 698.069 1107.56 698.41C1107.71 698.686 1107.79 698.995 1107.79 699.31C1107.79 699.624 1107.71 699.934 1107.56 700.21C1107.86 700.206 1108.15 700.295 1108.39 700.463C1108.64 700.632 1108.82 700.871 1108.92 701.15C1109.08 701.545 1109.09 701.986 1108.95 702.387C1108.8 702.788 1108.51 703.12 1108.13 703.32L1103.13 706.66C1102.89 706.796 1102.61 706.844 1102.34 706.797C1102.07 706.749 1101.82 706.609 1101.64 706.4Z" fill="black"/>
<path d="M1100.47 693.229L1096.47 699.639C1096.38 699.785 1096.33 699.947 1096.3 700.116C1096.28 700.284 1096.29 700.455 1096.33 700.62C1096.37 700.784 1096.45 700.939 1096.55 701.074C1096.65 701.21 1096.78 701.323 1096.93 701.409V701.409C1097.21 701.594 1097.54 701.671 1097.87 701.627C1098.2 701.583 1098.51 701.42 1098.73 701.169L1102.93 696.029C1103.25 695.687 1103.44 695.232 1103.44 694.759C1103.44 694.286 1103.25 693.831 1102.93 693.489C1102.63 693.142 1102.21 692.922 1101.75 692.873C1101.29 692.825 1100.83 692.952 1100.47 693.229Z" fill="#FC9D9D"/>
<path d="M1105.8 697.57L1100.45 703.09C1100.21 703.332 1100.08 703.659 1100.08 704C1100.08 704.341 1100.21 704.668 1100.45 704.91V704.91C1100.68 705.145 1100.99 705.287 1101.32 705.309C1101.65 705.331 1101.97 705.232 1102.23 705.03L1107.46 700.79C1107.86 700.531 1108.15 700.131 1108.27 699.67C1108.39 699.209 1108.33 698.72 1108.1 698.3C1108 698.1 1107.86 697.921 1107.69 697.776C1107.52 697.63 1107.32 697.52 1107.11 697.452C1106.89 697.384 1106.67 697.36 1106.44 697.38C1106.22 697.4 1106 697.465 1105.8 697.57Z" fill="#FC9D9D"/>
<path d="M1107.46 700.159L1102.2 704.619C1101.96 704.822 1101.82 705.108 1101.8 705.415C1101.78 705.722 1101.88 706.025 1102.08 706.259V706.259C1102.26 706.492 1102.53 706.648 1102.82 706.698C1103.11 706.748 1103.41 706.688 1103.67 706.529L1108.67 703.209C1109.05 703.014 1109.34 702.681 1109.49 702.279C1109.63 701.877 1109.62 701.434 1109.46 701.039C1109.3 700.66 1109.01 700.355 1108.64 700.191C1108.26 700.026 1107.84 700.015 1107.46 700.159Z" fill="#FC9D9D"/>
<path d="M1103.77 695.09L1098.31 701.48C1098.07 701.74 1097.94 702.081 1097.94 702.435C1097.94 702.789 1098.07 703.129 1098.31 703.39V703.39C1098.56 703.611 1098.89 703.726 1099.22 703.711C1099.56 703.696 1099.87 703.552 1100.1 703.31L1105.42 698.31C1105.82 698.007 1106.11 697.577 1106.23 697.09C1106.36 696.604 1106.32 696.089 1106.11 695.63C1105.74 694.94 1105.06 694.47 1103.77 695.09Z" fill="#FC9D9D"/>
<path opacity="0.15" d="M1103.39 695.57L1098.4 701.35" stroke="black" stroke-width="0.6" stroke-miterlimit="10" stroke-linecap="round"/>
<path opacity="0.15" d="M1105.91 697.65L1100.13 703.43" stroke="black" stroke-width="0.6" stroke-miterlimit="10" stroke-linecap="round"/>
<path opacity="0.15" d="M1107.49 700.789L1102.65 705.199" stroke="black" stroke-width="0.6" stroke-miterlimit="10" stroke-linecap="round"/>
<path d="M1019.43 766.46L1052.34 756C1054.58 755.292 1056.62 754.054 1058.28 752.39L1097.6 714.21L1088 705L1046.67 738.27L1012.42 752.43L1020.15 767.85" fill="#61656D"/>
<path opacity="0.2" d="M1019.43 766.461L1052.34 756.001C1054.58 755.293 1056.62 754.055 1058.28 752.391L1075 736.701L1097.33 714.381L1095.33 712.381L1052.7 750.941L1020.23 761.771L1022.16 773.261" fill="black"/>
<path d="M1020.34 1045.92L1052.34 1046.7L1039.83 1037.76C1038.8 1037.03 1037.96 1036.06 1037.35 1034.95C1036.75 1033.84 1036.41 1032.6 1036.36 1031.34L1036.6 1021.55H1020.24L1020.34 1045.92Z" fill="white"/>
<path opacity="0.15" d="M1024.49 1034.48V1034.29C1024.43 1033.76 1024.58 1033.24 1024.91 1032.82C1025.23 1032.4 1025.71 1032.13 1026.23 1032.07L1036.23 1030.62L1036.81 1028.62H1020.81L1020.27 1045.23L1034.61 1043.73L1030.12 1041.94C1028.59 1041.34 1027.25 1040.32 1026.25 1039C1025.26 1037.69 1024.65 1036.12 1024.49 1034.48Z" fill="black"/>
<path d="M1018.85 1040.37V1052.58C1018.85 1053.05 1018.94 1053.51 1019.12 1053.95C1019.3 1054.38 1019.56 1054.78 1019.89 1055.11C1020.23 1055.44 1020.62 1055.71 1021.05 1055.89C1021.49 1056.07 1021.95 1056.16 1022.42 1056.16H1063.93C1064.33 1056.16 1064.71 1056 1064.99 1055.72C1065.27 1055.44 1065.43 1055.06 1065.43 1054.66C1065.43 1053.24 1064.98 1051.85 1064.14 1050.7C1063.31 1049.55 1062.14 1048.69 1060.79 1048.24L1051.43 1045.15L1039.55 1035.93C1038.96 1035.46 1038.22 1035.22 1037.46 1035.23C1036.7 1035.25 1035.97 1035.53 1035.4 1036.03L1030.14 1040.52C1029.76 1040.84 1029.3 1041.06 1028.82 1041.16C1028.33 1041.27 1027.82 1041.24 1027.34 1041.1L1020.68 1039.02C1020.47 1038.96 1020.25 1038.94 1020.03 1038.98C1019.81 1039.02 1019.61 1039.11 1019.43 1039.24C1019.25 1039.37 1019.11 1039.54 1019.01 1039.73C1018.91 1039.93 1018.85 1040.15 1018.85 1040.37Z" fill="#3F4249"/>
<path d="M1022.42 1056.16H1063.93C1064.33 1056.16 1064.71 1056 1064.99 1055.72C1065.27 1055.44 1065.43 1055.06 1065.43 1054.66C1065.44 1054.15 1065.38 1053.65 1065.24 1053.16H1018.89C1019.03 1054 1019.46 1054.76 1020.11 1055.31C1020.75 1055.85 1021.57 1056.16 1022.42 1056.16V1056.16Z" fill="black"/>
<path d="M1039.31 1040.81C1039.22 1040.81 1039.14 1040.77 1039.07 1040.71C1039.01 1040.64 1038.97 1040.54 1038.97 1040.45C1038.97 1040.35 1039.01 1040.25 1039.07 1040.18L1041.58 1037.48C1041.65 1037.41 1041.75 1037.37 1041.85 1037.37C1041.95 1037.37 1042.04 1037.41 1042.11 1037.48C1042.18 1037.55 1042.22 1037.65 1042.22 1037.75C1042.22 1037.85 1042.18 1037.94 1042.11 1038.01L1039.6 1040.71C1039.52 1040.77 1039.42 1040.8 1039.31 1040.81V1040.81Z" fill="white"/>
<path d="M1041.29 1042.35C1041.2 1042.35 1041.11 1042.31 1041.05 1042.25C1040.98 1042.18 1040.95 1042.08 1040.95 1041.98C1040.95 1041.89 1040.98 1041.79 1041.05 1041.72L1043.56 1039.02C1043.63 1038.95 1043.72 1038.91 1043.82 1038.91C1043.92 1038.91 1044.02 1038.95 1044.09 1039.02C1044.16 1039.09 1044.2 1039.19 1044.2 1039.28C1044.2 1039.38 1044.16 1039.48 1044.09 1039.55L1041.58 1042.25C1041.49 1042.31 1041.39 1042.34 1041.29 1042.35V1042.35Z" fill="white"/>
<path d="M1043.27 1043.9C1043.18 1043.9 1043.1 1043.86 1043.03 1043.8C1042.97 1043.73 1042.93 1043.63 1042.93 1043.54C1042.93 1043.44 1042.97 1043.34 1043.03 1043.27L1045.54 1040.56C1045.62 1040.49 1045.71 1040.46 1045.81 1040.46C1045.91 1040.46 1046 1040.49 1046.07 1040.56C1046.11 1040.6 1046.14 1040.64 1046.16 1040.68C1046.18 1040.73 1046.19 1040.78 1046.19 1040.83C1046.19 1040.88 1046.18 1040.93 1046.16 1040.98C1046.14 1041.02 1046.11 1041.07 1046.07 1041.1L1043.56 1043.8C1043.52 1043.84 1043.48 1043.86 1043.43 1043.88C1043.38 1043.9 1043.33 1043.9 1043.27 1043.9V1043.9Z" fill="white"/>
<path d="M1077.78 685.651L1078.26 697.041C1078.26 697.041 1086.14 692.111 1087.97 688.691C1089.8 685.271 1087.97 684.381 1087.97 684.381L1077.78 685.651Z" fill="#FC9D9D"/>
<path d="M1083.67 677.38C1083.56 677.283 1083.43 677.21 1083.29 677.165C1083.15 677.12 1083 677.105 1082.85 677.119C1082.7 677.133 1082.56 677.176 1082.43 677.247C1082.3 677.318 1082.18 677.414 1082.09 677.53L1077.09 683.53C1077.04 683.599 1076.96 683.647 1076.88 683.666C1076.79 683.684 1076.71 683.672 1076.63 683.63C1076.55 683.589 1076.48 683.517 1076.45 683.43C1076.42 683.342 1076.42 683.245 1076.46 683.16L1077.96 679.66C1078.06 679.136 1077.98 678.591 1077.73 678.118C1077.49 677.645 1077.08 677.272 1076.59 677.06V677.06C1076.5 677.017 1076.4 676.993 1076.3 676.989C1076.2 676.985 1076.1 677.001 1076.01 677.037C1075.92 677.072 1075.83 677.126 1075.76 677.196C1075.69 677.265 1075.63 677.348 1075.59 677.44L1072.94 681.6C1072.04 683.023 1071.4 684.599 1071.06 686.25L1070.29 690.01L1065.14 703L1072.41 708L1078.25 697.07C1078.25 697.07 1085.46 689.4 1087.25 685.98C1089.04 682.56 1086.55 681.22 1086.55 681.22C1087.01 678.22 1084.4 678.85 1084.4 678.85C1084.69 678.44 1083.67 677.38 1083.67 677.38Z" fill="#FC9D9D"/>
<g opacity="0.15">
<path opacity="0.15" d="M1083.75 685.229L1086.81 681.359C1086.83 681.335 1086.85 681.306 1086.87 681.275C1086.88 681.243 1086.89 681.209 1086.89 681.174C1086.89 681.14 1086.88 681.106 1086.87 681.074C1086.85 681.042 1086.83 681.014 1086.81 680.989C1086.76 680.942 1086.69 680.916 1086.62 680.916C1086.56 680.916 1086.49 680.942 1086.44 680.989L1083.38 684.859C1083.33 684.911 1083.3 684.979 1083.3 685.049C1083.3 685.12 1083.33 685.188 1083.38 685.239C1083.45 685.279 1083.52 685.297 1083.6 685.289C1083.65 685.286 1083.71 685.265 1083.75 685.229V685.229Z" fill="black"/>
</g>
<g opacity="0.15">
<path opacity="0.15" d="M1085 688.39L1088.06 684.52C1088.08 684.495 1088.1 684.467 1088.12 684.435C1088.13 684.403 1088.14 684.369 1088.14 684.335C1088.14 684.3 1088.13 684.266 1088.12 684.234C1088.1 684.202 1088.08 684.174 1088.06 684.15C1088.01 684.102 1087.94 684.076 1087.87 684.076C1087.81 684.076 1087.74 684.102 1087.69 684.15L1084.63 688.02C1084.58 688.071 1084.55 688.139 1084.55 688.21C1084.55 688.28 1084.58 688.348 1084.63 688.4C1084.7 688.422 1084.78 688.422 1084.85 688.4C1084.9 688.41 1084.95 688.407 1085 688.39V688.39Z" fill="black"/>
</g>
<g opacity="0.15">
<path opacity="0.15" d="M1081.69 682.89L1084.75 679.02C1084.8 678.97 1084.83 678.903 1084.83 678.835C1084.83 678.766 1084.8 678.7 1084.75 678.65C1084.73 678.625 1084.7 678.606 1084.67 678.592C1084.64 678.579 1084.6 678.572 1084.57 678.572C1084.53 678.572 1084.5 678.579 1084.47 678.592C1084.44 678.606 1084.41 678.625 1084.38 678.65L1081.32 682.52C1081.28 682.57 1081.25 682.636 1081.25 682.705C1081.25 682.773 1081.28 682.84 1081.32 682.89C1081.35 682.911 1081.39 682.927 1081.42 682.936C1081.46 682.944 1081.5 682.946 1081.53 682.94C1081.59 682.943 1081.65 682.925 1081.69 682.89V682.89Z" fill="black"/>
</g>
<path opacity="0.15" d="M1088.77 686.07C1087.21 689.07 1083.87 691.54 1080.86 693.07L1077.55 694.89C1077.17 695.094 1076.87 695.413 1076.69 695.8L1074.69 700.13L1076.37 701.07L1078.25 696.99C1078.25 696.99 1086.13 692.06 1087.97 688.64C1088.93 686.7 1088.78 686.07 1088.77 686.07Z" fill="black"/>
<path opacity="0.15" d="M1057.27 1054C1057.27 1053.94 1057.27 1053.87 1057.27 1053.81C1057.1 1052.55 1056.59 1051.36 1055.78 1050.37C1054.97 1049.39 1053.9 1048.65 1052.7 1048.24L1046.04 1045.15L1040.72 1041.03C1040.77 1040.96 1040.8 1040.88 1040.8 1040.79C1040.8 1040.71 1040.77 1040.63 1040.72 1040.56C1040.64 1040.49 1040.55 1040.46 1040.45 1040.46C1040.35 1040.46 1040.26 1040.49 1040.19 1040.56V1040.56L1038.79 1039.48C1038.84 1039.41 1038.87 1039.33 1038.87 1039.24C1038.87 1039.16 1038.84 1039.07 1038.79 1039.01C1038.75 1038.97 1038.71 1038.95 1038.67 1038.93C1038.62 1038.91 1038.57 1038.9 1038.52 1038.9C1038.47 1038.9 1038.42 1038.91 1038.38 1038.93C1038.33 1038.95 1038.29 1038.97 1038.26 1039.01V1039.01L1036.86 1037.93C1036.91 1037.86 1036.94 1037.78 1036.94 1037.69C1036.94 1037.61 1036.91 1037.52 1036.86 1037.46C1036.82 1037.42 1036.78 1037.4 1036.74 1037.38C1036.69 1037.36 1036.64 1037.35 1036.59 1037.35C1036.54 1037.35 1036.49 1037.36 1036.45 1037.38C1036.4 1037.4 1036.36 1037.42 1036.33 1037.46V1037.46L1034.33 1035.9C1033.76 1035.45 1033.05 1035.2 1032.33 1035.21C1031.61 1034.03 1031.21 1032.69 1031.16 1031.31V1029.98L1031.56 1028.61H1031L1031.18 1021.52H1020.18L1020.24 1038.9C1020.05 1038.89 1019.86 1038.92 1019.68 1038.99C1019.51 1039.06 1019.35 1039.16 1019.21 1039.29C1019.08 1039.42 1018.97 1039.58 1018.89 1039.75C1018.82 1039.92 1018.78 1040.11 1018.78 1040.3V1052.51C1018.76 1052.7 1018.76 1052.9 1018.78 1053.09V1053.09C1018.78 1053.11 1018.78 1053.13 1018.78 1053.15C1018.8 1053.28 1018.83 1053.41 1018.88 1053.53C1018.89 1053.61 1018.92 1053.68 1018.95 1053.76C1019 1053.9 1019.06 1054.04 1019.14 1054.17L1019.22 1054.33C1019.3 1054.46 1019.39 1054.59 1019.48 1054.71L1019.6 1054.85C1019.69 1054.96 1019.8 1055.06 1019.91 1055.16L1020.08 1055.31L1020.4 1055.54L1020.66 1055.68C1020.76 1055.74 1020.86 1055.79 1020.97 1055.83C1021.09 1055.83 1021.22 1055.91 1021.35 1055.95L1021.6 1056.02C1021.82 1056.06 1022.06 1056.09 1022.29 1056.09H1055.68C1056.07 1056.09 1056.45 1055.93 1056.73 1055.65C1057.02 1055.37 1057.17 1054.99 1057.18 1054.59C1057.31 1054.44 1057.29 1054.22 1057.27 1054Z" fill="black"/>
<path d="M1034.45 858.27L1042.97 942.169C1043.13 943.664 1043.17 945.168 1043.1 946.669L1039.1 1029.67H1021.51L1034.41 858.28" class="change-color-in-svg" fill="#4D61FC"/>
<path opacity="0.2" d="M1034.45 858.27L1040.92 940.53C1041.09 942.663 1041.03 944.808 1040.75 946.93L1029.67 1029.66H1021.55L1034.45 858.27" fill="black"/>
<path d="M971.492 728.601L976.642 727.421C977.201 727.297 977.727 727.054 978.185 726.709C978.642 726.364 979.019 725.924 979.292 725.421L981.222 721.801L980.152 714.801L971.492 728.601Z" fill="#3F4249"/>
<path opacity="0.3" d="M971.492 728.601L976.642 727.421C977.201 727.297 977.727 727.054 978.185 726.709C978.642 726.364 979.019 725.924 979.292 725.421L981.222 721.801L980.152 714.801L971.492 728.601Z" fill="black"/>
<path d="M974.383 704.999L982.193 721.579L987.263 739.449L1005.16 735.449L1001.84 724.159L1006.84 722.979L1007.35 722.869C1010.58 722.019 1012.35 721.089 1011.26 715.869L1009.62 709.659L1011.21 708.099L1011.29 708.009C1011.39 707.888 1011.46 707.75 1011.51 707.601C1011.55 707.452 1011.56 707.296 1011.55 707.142C1011.53 706.988 1011.48 706.838 1011.41 706.702C1011.33 706.566 1011.23 706.446 1011.11 706.349L1006.46 702.649L1006.34 702.369L1006.27 701.599C1005.98 698.338 1004.79 695.223 1002.83 692.599L1000.92 690.039L974.383 704.999Z" fill="#FC9D9D"/>
<path d="M1000.87 691.55C999.588 696.33 997.348 697.34 995.488 697.44C995.259 697.444 995.033 697.498 994.827 697.596C994.62 697.695 994.437 697.836 994.289 698.011C994.141 698.187 994.033 698.391 993.97 698.612C993.908 698.832 993.894 699.063 993.928 699.29L994.228 700.89C994.678 702.98 993.638 704.41 991.768 705.49L989.858 706.49L990.968 710.27C991.04 710.53 991.018 710.808 990.904 711.054C990.791 711.299 990.593 711.496 990.348 711.61V711.61C990.083 711.723 989.783 711.727 989.515 711.62C989.247 711.513 989.032 711.305 988.918 711.04L988.328 709.69L983.908 712.2L984.908 716.2C984.638 719.97 981.108 721.85 981.108 721.85C975.878 715.85 970.868 710.4 970.108 702.64V702.44C969.838 699.74 970.988 694.87 974.718 694.24C976.098 694.04 976.258 692.44 976.538 691.85C977.118 688.28 982.618 684.85 986.968 685.52L989.808 686.08C991.968 686.2 993.398 686.43 995.318 685.32C997.898 683.34 1002.13 686.83 1000.87 691.55Z" fill="#21252B"/>
<path d="M1003.43 1045.92L1035.43 1046.7L1022.93 1037.76C1021.9 1037.03 1021.05 1036.07 1020.45 1034.95C1019.84 1033.84 1019.5 1032.61 1019.45 1031.34L1019.7 1021.55H1003.33L1003.43 1045.92Z" fill="white"/>
<path opacity="0.15" d="M1007.58 1034.48V1034.29C1007.52 1033.76 1007.66 1033.24 1007.99 1032.82C1008.32 1032.4 1008.79 1032.13 1009.32 1032.07L1019.32 1030.62L1019.9 1028.62H1003.9L1003.37 1045.23L1017.71 1043.73L1013.22 1041.94C1011.68 1041.34 1010.34 1040.33 1009.34 1039.01C1008.34 1037.69 1007.73 1036.12 1007.58 1034.48Z" fill="black"/>
<path d="M1001.93 1040.37V1052.58C1001.93 1053.05 1002.02 1053.51 1002.2 1053.95C1002.38 1054.38 1002.64 1054.78 1002.97 1055.11C1003.3 1055.44 1003.7 1055.71 1004.13 1055.89C1004.57 1056.07 1005.03 1056.16 1005.5 1056.16H1047C1047.4 1056.16 1047.77 1056 1048.05 1055.72C1048.33 1055.44 1048.49 1055.06 1048.49 1054.66C1048.48 1053.24 1048.04 1051.86 1047.21 1050.71C1046.37 1049.55 1045.2 1048.69 1043.86 1048.24L1034.49 1045.15L1022.62 1035.93C1022.02 1035.46 1021.28 1035.22 1020.53 1035.23C1019.77 1035.25 1019.04 1035.53 1018.47 1036.03L1013.21 1040.52C1012.83 1040.84 1012.37 1041.06 1011.88 1041.16C1011.39 1041.27 1010.89 1041.24 1010.41 1041.1L1003.75 1039.02C1003.54 1038.96 1003.32 1038.95 1003.1 1038.99C1002.89 1039.03 1002.68 1039.12 1002.51 1039.25C1002.33 1039.38 1002.19 1039.55 1002.09 1039.74C1001.99 1039.94 1001.93 1040.15 1001.93 1040.37Z" fill="#3F4249"/>
<path d="M1005.5 1056.16H1047C1047.4 1056.16 1047.78 1056 1048.05 1055.72C1048.33 1055.44 1048.49 1055.06 1048.49 1054.66C1048.5 1054.15 1048.44 1053.65 1048.3 1053.16H1002C1002.14 1053.99 1002.56 1054.75 1003.2 1055.3C1003.84 1055.84 1004.66 1056.15 1005.5 1056.16V1056.16Z" fill="black"/>
<path d="M1022.4 1040.81C1022.31 1040.81 1022.22 1040.77 1022.16 1040.71C1022.12 1040.67 1022.1 1040.63 1022.08 1040.59C1022.06 1040.54 1022.05 1040.49 1022.05 1040.44C1022.05 1040.39 1022.06 1040.35 1022.08 1040.3C1022.1 1040.25 1022.12 1040.21 1022.16 1040.18L1024.67 1037.48C1024.7 1037.44 1024.74 1037.42 1024.79 1037.4C1024.84 1037.38 1024.88 1037.37 1024.93 1037.37C1024.98 1037.37 1025.03 1037.38 1025.08 1037.4C1025.12 1037.42 1025.16 1037.44 1025.2 1037.48C1025.27 1037.55 1025.3 1037.65 1025.3 1037.74C1025.3 1037.84 1025.27 1037.94 1025.2 1038.01L1022.69 1040.71C1022.6 1040.76 1022.5 1040.8 1022.4 1040.81Z" fill="white"/>
<path d="M1024.38 1042.35C1024.29 1042.35 1024.21 1042.31 1024.14 1042.25C1024.11 1042.22 1024.08 1042.17 1024.06 1042.13C1024.04 1042.08 1024.03 1042.03 1024.03 1041.98C1024.03 1041.94 1024.04 1041.89 1024.06 1041.84C1024.08 1041.8 1024.11 1041.75 1024.14 1041.72L1026.65 1039.02C1026.69 1038.98 1026.73 1038.96 1026.77 1038.94C1026.82 1038.92 1026.87 1038.91 1026.92 1038.91C1026.97 1038.91 1027.02 1038.92 1027.06 1038.94C1027.11 1038.96 1027.15 1038.98 1027.18 1039.02C1027.25 1039.09 1027.29 1039.19 1027.29 1039.29C1027.29 1039.38 1027.25 1039.48 1027.18 1039.55L1024.67 1042.25C1024.58 1042.3 1024.49 1042.34 1024.38 1042.35Z" fill="white"/>
<path d="M1026.36 1043.9C1026.27 1043.9 1026.18 1043.86 1026.12 1043.8C1026.08 1043.77 1026.06 1043.73 1026.04 1043.68C1026.02 1043.63 1026.01 1043.59 1026.01 1043.54C1026.01 1043.49 1026.02 1043.44 1026.04 1043.39C1026.06 1043.35 1026.08 1043.31 1026.12 1043.27L1028.63 1040.56C1028.7 1040.49 1028.8 1040.46 1028.89 1040.46C1028.99 1040.46 1029.09 1040.49 1029.16 1040.56C1029.23 1040.63 1029.26 1040.73 1029.26 1040.83C1029.26 1040.93 1029.23 1041.03 1029.16 1041.1L1026.65 1043.8C1026.57 1043.87 1026.47 1043.91 1026.36 1043.9Z" fill="white"/>
<path d="M985.688 736.029L1004.66 733.789L1005.31 736.029L986.367 740.089L985.688 736.029Z" fill="#61656D"/>
<path opacity="0.15" d="M1003.39 728.34L997.694 726.05C997.578 725.987 997.481 725.897 997.409 725.787C997.337 725.677 997.294 725.551 997.284 725.42C997.276 725.319 997.287 725.217 997.319 725.12C997.35 725.024 997.4 724.934 997.466 724.857C997.532 724.78 997.613 724.717 997.703 724.671C997.794 724.625 997.892 724.598 997.994 724.59L1001.81 724.17L1003.39 728.34Z" fill="black"/>
<path opacity="0.15" d="M983.297 720.05L989.747 717.05C988.897 716.7 985.657 716.8 984.917 716.25C984.918 716.96 984.776 717.663 984.497 718.316C984.219 718.97 983.81 719.559 983.297 720.05V720.05Z" fill="black"/>
<path d="M1004.62 705.232C1005.24 704.963 1005.5 704.195 1005.2 703.517C1004.91 702.838 1004.17 702.506 1003.55 702.775C1002.93 703.044 1002.67 703.812 1002.96 704.49C1003.26 705.169 1004 705.501 1004.62 705.232Z" fill="#21252B"/>
<path d="M1004.48 703.421C1004.58 703.421 1004.66 703.34 1004.66 703.241C1004.66 703.141 1004.58 703.061 1004.48 703.061C1004.38 703.061 1004.3 703.141 1004.3 703.241C1004.3 703.34 1004.38 703.421 1004.48 703.421Z" fill="white"/>
<path d="M991.697 717.32L988.477 709.93C988.13 709.146 987.488 708.531 986.69 708.218C985.893 707.906 985.003 707.921 984.217 708.26V708.26C983.434 708.605 982.819 709.245 982.506 710.041C982.193 710.837 982.208 711.725 982.547 712.51L983.177 713.97C984.607 717.25 987.177 718.51 990.427 717.08L991.697 717.32V717.32Z" fill="#FC9D9D"/>
<g opacity="0.3">
<path opacity="0.3" d="M987.997 712.001L987.457 710.761C987.225 710.247 986.801 709.844 986.276 709.639C985.751 709.433 985.166 709.441 984.647 709.661C984.357 709.776 984.096 709.956 983.885 710.186C983.673 710.416 983.517 710.692 983.427 710.991C983.427 710.991 983.427 710.991 983.427 711.051C983.412 711.112 983.41 711.175 983.42 711.238C983.431 711.3 983.453 711.359 983.487 711.412C983.52 711.465 983.564 711.511 983.616 711.547C983.667 711.583 983.726 711.608 983.787 711.621C983.849 711.636 983.913 711.638 983.976 711.627C984.038 711.616 984.098 711.592 984.151 711.558C984.205 711.523 984.25 711.478 984.286 711.425C984.321 711.373 984.345 711.313 984.357 711.251C984.403 711.082 984.487 710.927 984.603 710.797C984.72 710.666 984.865 710.565 985.027 710.501C985.174 710.436 985.333 710.401 985.493 710.398C985.654 710.395 985.813 710.423 985.963 710.482C986.113 710.54 986.249 710.628 986.365 710.739C986.481 710.85 986.573 710.984 986.637 711.131L987.167 712.361C987.227 712.474 987.325 712.563 987.444 712.611C987.563 712.658 987.696 712.662 987.817 712.621C987.878 712.601 987.933 712.567 987.977 712.521C988.021 712.476 988.054 712.42 988.072 712.359C988.089 712.297 988.092 712.233 988.079 712.171C988.066 712.108 988.038 712.05 987.997 712.001V712.001Z" fill="#21252B"/>
</g>
<path d="M1010.35 712.08C1009.36 712.416 1008.33 712.601 1007.28 712.63C1007.23 712.63 1007.17 712.648 1007.13 712.682C1007.08 712.716 1007.05 712.764 1007.04 712.818C1007.03 712.872 1007.03 712.929 1007.05 712.98C1007.07 713.031 1007.11 713.074 1007.16 713.1C1008.29 713.7 1009.56 713.98 1010.83 713.91L1010.35 712.08Z" fill="white"/>
<path d="M1000.11 701.05C1002.95 698.62 1004.83 699.34 1004.83 699.34L1005.02 699.68C1005.02 699.68 1001.89 700.05 1000.46 701.2L1000.11 701.05Z" fill="#21252B"/>
<path d="M982.863 708.551L975.703 725.061C975.319 725.948 974.731 726.733 973.988 727.351C973.244 727.969 972.366 728.404 971.423 728.621L968.933 729.191C968.839 729.213 968.74 729.207 968.65 729.174C968.559 729.141 968.479 729.082 968.421 729.005C968.363 728.927 968.328 728.835 968.322 728.738C968.315 728.642 968.336 728.545 968.383 728.461L974.383 717.151L982.863 708.551Z" fill="#3F4249"/>
<path d="M974.582 717.001L984.582 706.841L1002.82 691.601C1002.86 691.566 1002.87 691.519 1002.87 691.471C1002.87 691.422 1002.86 691.376 1002.82 691.341L1001.55 689.681C1001.53 689.646 1001.49 689.621 1001.45 689.61C1001.41 689.599 1001.36 689.603 1001.32 689.621L997.812 691.241C997.774 691.259 997.73 691.265 997.689 691.256C997.647 691.247 997.609 691.224 997.582 691.191C997.082 690.571 994.782 687.471 996.702 685.101C996.724 685.077 996.739 685.048 996.746 685.016C996.753 684.985 996.752 684.952 996.743 684.921C996.734 684.89 996.718 684.861 996.695 684.839C996.672 684.816 996.643 684.799 996.612 684.791C994.802 684.281 984.612 681.791 977.352 688.891C977.012 689.221 976.672 689.541 976.352 689.841C974.092 691.681 963.172 700.421 974.352 716.981C974.382 717.011 974.422 717.029 974.464 717.033C974.506 717.036 974.548 717.025 974.582 717.001V717.001Z" class="change-color-in-svg" fill="#4D61FC"/>
<path opacity="0.2" d="M973.383 692.439C970.213 695.439 965.583 705.029 974.383 717.089L980.293 710.939C977.895 708.522 976.038 705.623 974.847 702.433C973.656 699.243 973.157 695.837 973.383 692.439V692.439Z" fill="black"/>
<path opacity="0.2" d="M985.93 737.431L1004.96 734.811L1005.31 736.031L986.37 740.091L985.93 737.431Z" fill="black"/>
<path d="M986.373 739.41L1035.76 728.59L1068.91 690L1079.74 698.12L1049.46 740.83C1048.05 743.388 1045.73 745.32 1042.96 746.24L1018.85 754.24L1023.58 770.47L1012.76 794.83H986.373L984.683 770.83C984.683 770.83 979.943 749.22 986.373 739.41Z" fill="#61656D"/>
<path opacity="0.2" d="M987.05 739.409C976.2 750.259 988.4 790.149 988.4 790.149L993.14 790.829C993.14 790.829 986.83 776.419 985.69 764.439C984.38 750.609 988.13 738.319 987.05 739.409Z" fill="black"/>
<path d="M987.72 738.73C987.72 738.73 979.02 742.37 979.72 765.51C979.916 770.952 980.585 776.365 981.72 781.69L985.37 798.94C986.54 804.46 987.88 809.94 989.27 815.43C990.5 820.26 991.63 828.611 987.34 835.151C981.901 846.732 981.25 859.992 985.53 872.05C990.63 886.17 994.75 900.61 998.44 915.16L1004.94 940.69L1001.55 1030H1021.85L1035.02 942.85C1035.26 941.417 1035.36 939.963 1035.32 938.51L1034.03 844.62C1034.03 844.62 1032.69 782.12 1022.53 764.99L1018.81 766.47L1014.75 755.651L1009.67 757.341L1013.73 768.841L1009.73 771.35C1009.31 771.595 1008.99 771.969 1008.81 772.416C1008.63 772.862 1008.6 773.356 1008.73 773.82L1011 781.75C1011.37 783.044 1011.25 784.428 1010.68 785.643C1010.1 786.858 1009.1 787.821 1007.86 788.35L1001.07 791.26C999.734 791.855 998.272 792.108 996.814 791.996C995.356 791.884 993.949 791.412 992.72 790.62C991.42 789.819 990.456 788.571 990.01 787.11L989 783.901C985.824 774.773 984.178 765.184 984.13 755.521C984.13 748.991 984.87 742.57 987.4 739.75" class="change-color-in-svg" fill="#4D61FC"/>
<path opacity="0.2" d="M1019.94 757.901C1014.52 759.389 1008.85 759.773 1003.28 759.031L1018.85 754.301L1019.94 757.901Z" fill="black"/>
<path opacity="0.2" d="M1001.06 899.64C999.523 894.16 997.853 888.72 996.153 883.28C991.994 870.021 991.139 855.945 993.663 842.28C994.249 839.41 995.141 836.61 996.323 833.93C997.833 830.029 998.18 825.774 997.323 821.68C995.603 812.42 994.423 803.07 993.443 793.68L993.143 790.81L992.803 790.62C991.503 789.818 990.54 788.571 990.093 787.11L989.003 783.9C985.827 774.773 984.182 765.184 984.133 755.52C984.133 748.99 984.873 742.57 987.403 739.75L987.743 738.75C987.743 738.75 979.043 742.39 979.743 765.53C979.939 770.971 980.608 776.385 981.743 781.71L985.393 798.96C986.563 804.48 987.903 809.96 989.293 815.45C990.523 820.28 991.653 828.63 987.363 835.17C981.924 846.752 981.274 860.012 985.553 872.07C990.653 886.19 994.773 900.63 998.463 915.18L1004.96 940.71L1001.58 1029.94L1008.2 1030.02L1012.06 939.02L1001.06 899.64Z" fill="black"/>
<path opacity="0.2" d="M1033.05 749.559L1042.96 746.259C1045.73 745.339 1048.05 743.407 1049.46 740.849L1079.74 698.139L1077.03 696.789C1077.03 696.789 1053.3 726.129 1045.94 739.039C1045.06 740.589 1043.67 741.786 1042.01 742.429L1001.25 758.349C1001.25 758.349 1001.25 759.299 1003.95 758.829L1033.05 749.559Z" fill="black"/>
<path opacity="0.15" d="M1003.39 790.301L1005.65 835.821L1020.2 939.681L1012.08 1029.66" stroke="black" stroke-width="0.68" stroke-miterlimit="10"/>
</svg>