<svg xmlns="http://www.w3.org/2000/svg" xmlns:xlink="http://www.w3.org/1999/xlink" version="1.1" id="Layer_1" x="0px" y="0px" viewBox="0 0 1080 1080" enable-background="new 0 0 1080 1080" xml:space="preserve">
<g xmlns="http://www.w3.org/2000/svg">
	<path opacity="0.05" fill="#2A94F4" d="M179.306,705.807c0-200.89,162.854-363.744,363.744-363.744   s363.744,162.854,363.744,363.744"/>
	<circle fill="#D3D3D3" cx="546.878" cy="554.483" r="22.084"/>
	<circle fill="#D3D3D3" cx="571.949" cy="544.848" r="22.935"/>
	<circle fill="#D3D3D3" cx="588.645" cy="555.884" r="16.696"/>
	<circle fill="#D3D3D3" cx="587.506" cy="500.457" r="16.696"/>
	<circle fill="#D3D3D3" cx="561.469" cy="464.556" r="11.604"/>
	<circle fill="#D3D3D3" cx="552.608" cy="473.417" r="8.861"/>
	<circle fill="#D3D3D3" cx="577.641" cy="440.889" r="7.268"/>
	<circle fill="#D3D3D3" cx="552.704" cy="505.028" r="12.125"/>
	<path fill="#bd4242" d="M458.386,657.331c-19.605-4.056-39.21-8.112-58.817-12.167c-0.554-0.158-1.105-0.318-1.657-0.477   c-1.147-0.162-2.295-0.324-3.441-0.486c-0.953-1.027-2.137-1.076-3.398-0.8c-0.648-0.12-1.296-0.241-1.945-0.36   c-0.454-0.154-0.908-0.309-1.361-0.464c-1.52-0.255-3.04-0.51-4.559-0.764c-2.5-1.295-5.154-1.894-7.97-1.763   c-0.748-0.122-1.495-0.244-2.242-0.366c-1.345-1.114-2.915-1.149-4.535-0.949l-0.414-0.211c0,0-0.462,0.049-0.462,0.05   c-0.436-0.171-0.871-0.342-1.306-0.513c-1.523-0.239-3.046-0.477-4.568-0.716c-2.515-1.195-5.123-1.968-7.951-1.724   c-1.107-0.238-2.213-0.476-3.319-0.713c-4.098-2.501-0.257-4.456,0.696-6.19c6.754-12.289,5.458-26.661-3.63-37.363   c-8.202-9.66-22.785-13.416-34.947-9.002c-12.919,4.689-21.276,16.58-21.241,30.224c0.018,6.895,0.018,6.895-6.488,5.663   l-0.284-0.234c0,0-0.363,0.06-0.364,0.061c-0.543-0.198-1.085-0.397-1.627-0.596c-0.629-0.161-1.259-0.322-1.889-0.482   c-0.499-0.203-0.998-0.406-1.497-0.61c-7.784-2.856-15.462-5.852-22.053-11.146c-5.19-4.169-7.847-8.822-5.476-15.692   c2.235-6.474,2.536-14.054,11.275-15.945c1.643-0.356,1.144-2.119,1.005-3.401c-0.43-3.973-0.145-7.896,0.792-11.775   c3.178-13.163,7.757-16.448,21.124-14.924c8.711,0.993,17.356,0.368,25.828-1.507c30.297-6.705,60.912-6.491,91.621-4.648   c12.977,0.779,25.846,2.386,38.655,4.673c13.44,2.4,25.272,7.727,36.171,16.121c10.797,8.315,21.062,17.677,34.742,21.681   c4.665,1.365,7.043,0.773,9.35-3.607c4.119-7.82,9.126-15.137,14.209-22.391c2.689-3.838,5.375-5.249,9.841-2.671   c3.396,1.961,7.201,3.235,10.877,4.68c4.269,1.679,6.754,0.714,6.917-4.454c0.148-4.693,0.801-9.373,1.299-14.051   c0.22-2.069,0.272-4.168,3.507-3.835c2.904,0.299,3.282,1.845,3.029,4.198c-0.863,8.047-1.728,16.095-2.506,24.151   c-0.344,3.565-2.167,4.397-5.381,3.429c-5.966-1.796-11.722-4.136-17.258-6.948c-3.536-1.796-5.748-1.183-7.923,2.213   c-4.067,6.35-7.682,12.93-11.239,19.564c-2.691,5.017,0.592,9.006,1.747,13.429c1.404,5.38,4.524,7.441,10.129,7.302   c4.445-0.11,9.79-0.839,13.198,1.82c3.497,2.728,2.285,8.345,2.584,12.558c0.46,6.475,2.652,11.433,7.51,15.553   c2.261,1.918,2.979,4.73,2.942,7.68c-0.047,3.763-0.103,7.525-0.152,11.287c-1.669,7.715-1.415,15.729-3.732,23.36   c-0.81,2.667-2.048,4.564-4.982,4.38c-4.267-0.267-8.634-0.415-12.112-3.504c3.047-4.494,6.015-8.981,7.324-14.409   c2.378-9.863-1.739-21.712-9.602-26.964c-7.315-4.886-15.541-3.576-25.264,3.763c-2.675,2.019-5.594,3.819-8.626,5.24   c-7.453,3.492-12.131,8.657-11.623,17.385c-5.103-1.7-10.34-1.533-15.587-1.08C473.66,658.559,465.994,659.196,458.386,657.331z    M405.068,545.11c-6.619-0.696-13.187,0.136-19.711,0.844c-12.486,1.355-24.438,4.421-34.468,12.584   c-1.269,1.033-3.265,1.952-2.863,3.846c0.419,1.971,2.673,1.77,4.235,2.115c21.47,4.741,42.965,9.373,64.42,14.181   c3.451,0.773,5.149-0.287,6.429-3.462c2.969-7.366,4.962-14.967,6.438-22.747c0.694-3.659-0.645-5.137-4.277-5.41   C418.526,546.556,411.801,545.776,405.068,545.11z M510.936,600.775c3.702,0.047,7.708-0.206,8.915-4.29   c1.249-4.228-2.739-5.87-5.629-7.258c-10.364-4.977-20-11.211-29.974-16.859c-12.928-7.322-25.975-14.386-40.034-19.399   c-3.115-1.111-4.519-1.01-5.169,2.806c-1.323,7.771-3.053,15.49-5.008,23.129c-1.113,4.35,0.277,5.332,4.486,5.786   c20.015,2.157,39.881,5.147,58.745,12.753C501.62,599.197,506.201,600.367,510.936,600.775z"/>
	<path fill="#2A94F4" d="M738.529,669.317c-40.595,0.007-81.191-0.014-121.786,0.079c-2.872,0.007-5.518-0.859-8.293-1.144   c-0.236-0.683-0.26-1.679-0.739-2.002c-11.711-7.917-21.143-17.674-25.734-31.413c0.536-2.96,0.951-5.948,1.637-8.872   c0.917-3.904,3.049-6.977,7.137-7.987c5.596-1.383,6.138-4.62,3.95-9.287c-2.478-5.284-4.974-10.573-7.104-16.001   c-1.666-4.247-4.523-8.913,0.141-12.977c6.463-5.632,14.273-6.387,20.024-2.303c2.015-1.499,1.975-3.956,2.594-6.024   c2.56-8.552,7.162-15.746,14.048-21.388c5.227-4.283,10.749-7.296,18.106-5.45c5.144,1.29,10.483,0.644,15.493-1.573   c7.024-3.109,14.376-3.932,22.045-3.766c13.749,0.299,27.511,0.207,41.263,0.01c3.724-0.053,6.334,1.221,8.972,3.702   c8.148,7.663,13.625,17.036,17.794,27.216c1.328,3.243,2.62,4.735,6.508,4.236c4.822-0.618,9.78-0.26,14.677-0.19   c7.062,0.101,10.421,3.445,10.573,10.346c0.15,6.823-3.143,10.506-9.959,11.134c-0.909,0.084-1.818,0.165-2.681,0.243   c-0.429,1.772,0.705,2.664,1.593,3.548c8.861,8.808,11.804,19.946,12.183,31.898c0.365,11.483,0.203,22.982,0.272,34.474   c-0.108,1.203-0.216,2.406-0.324,3.609C766.791,669.395,752.66,669.356,738.529,669.317z M732.498,589.027   c1.744,0,3.84-0.202,5.881,0.045c3.605,0.435,4.174-1.028,3.125-4.113c-3.962-11.645-8.966-22.764-16.174-32.804   c-1.011-1.409-2.061-2.65-4.044-2.644c-16.752,0.05-33.522-1.105-50.248,0.535c-10.592,1.039-20.995,4.851-31.85,1.807   c-2.038-0.572-4.258,0.339-5.891,1.529c-10.476,7.635-17.413,17.602-19.079,30.688c-0.493,3.87,0.791,5.572,5.195,3.508   c15.854-7.429,31.82-8.266,47.816-0.124c4.064,2.069,8.551,3.246,13.137,2.548C697.595,587.376,714.865,587.525,732.498,589.027z    M616.215,618.203c-5.1-0.124-9.686,0.723-13.859,3.185c-3.838,2.264-4.456,5.605-0.853,7.984   c8.394,5.542,17.538,8.441,27.813,5.993c2.862-0.682,3.651-4.316,6.184-4.483c12.246-0.809,23.816-5.775,36.106-5.9   c19.201-0.196,38.406,0.044,57.607-0.127c3.645-0.033,5.662,0.959,7.454,4.326c3.544,6.66,10.72,9.121,17.937,6.934   c5.574-1.689,10.224-8.13,10.28-14.24c0.058-6.293-4.703-12.737-10.687-14.465c-6.959-2.01-13.977,0.439-17.481,6.799   c-1.762,3.197-3.537,4.514-7.335,4.533c-31.553,0.157-63.246-2.148-94.459,4.727c-2.056,0.453-3.622-0.081-5.213-1.307   C625.649,619.031,620.973,617.895,616.215,618.203z M714.586,647.43c0.023,0,0.047,0,0.07,0c0,3.004-0.079,6.011,0.039,9.01   c0.047,1.194,0.809,2.144,2.201,1.985c1.055-0.12,1.707-0.947,1.717-1.926c0.062-5.817,0.083-11.636-0.001-17.453   c-0.016-1.134-0.706-2.252-2.054-2.275c-1.852-0.031-1.937,1.442-1.96,2.772C714.554,642.172,714.586,644.801,714.586,647.43z    M659.711,638.888c-1.146,0.083-0.885,1.911-0.405,3.562c1.385,4.77,2.94,9.491,4.37,14.249c0.441,1.467,0.732,3.282,2.722,2.79   c1.849-0.458,1.76-2.238,1.345-3.756c-1.38-5.049-2.878-10.067-4.212-15.128C663.174,639.249,662.511,638.708,659.711,638.888z    M653.482,636.626c-2.533,0.137-2.582,1.822-2.024,3.581c1.61,5.084,3.338,10.132,5.034,15.188   c0.412,1.229,0.725,2.796,2.558,2.148c1.312-0.464,1.235-1.806,0.957-2.883c-1.348-5.217-2.809-10.405-4.159-15.621   C655.504,637.711,655.347,636.387,653.482,636.626z M682.195,653.128c-0.615-5.203-1.204-10.409-1.862-15.607   c-0.165-1.302-0.467-2.862-2.2-2.707c-2.037,0.182-2.088,1.928-1.896,3.436c0.661,5.195,1.419,10.379,2.163,15.563   c0.199,1.388,0.757,2.793,2.394,2.483C682.366,655.999,682.484,654.518,682.195,653.128z M674.893,652.644   c-0.724-4.999-1.47-10.199-2.233-15.396c-0.174-1.189-0.701-2.431-1.971-2.378c-1.843,0.076-1.742,1.732-1.598,3.009   c0.588,5.218,1.228,10.432,1.955,15.632c0.174,1.243,0.411,2.972,2.116,2.861C675.387,656.226,674.686,654.236,674.893,652.644z    M646.118,641.172c-1.756,0.24-1.987,1.572-1.51,2.871c1.924,5.244,3.97,10.445,6.024,15.64c0.436,1.103,1.306,1.951,2.597,1.516   c1.789-0.603,1.296-1.989,0.808-3.227c-1.969-5.001-3.956-9.996-5.972-14.979C647.723,642.149,647.325,641.251,646.118,641.172z    M690.568,647.403c0-2.619,0.021-5.239-0.009-7.858c-0.014-1.202-0.454-2.391-1.714-2.558c-1.556-0.206-1.702,1.169-1.711,2.28   c-0.046,5.613-0.047,11.227-0.023,16.841c0.005,1.145,0.211,2.44,1.757,2.238c1.286-0.168,1.711-1.291,1.712-2.522   C690.581,653.017,690.579,650.21,690.568,647.403z M711.28,647.44c-0.012,0-0.024,0-0.036,0c0-2.823,0.04-5.646-0.023-8.468   c-0.021-0.925-0.242-1.974-1.444-2.062c-1.087-0.08-1.888,0.691-1.905,1.653c-0.105,6.012-0.124,12.027-0.079,18.04   c0.008,0.998,0.833,1.787,1.853,1.766c1.542-0.031,1.603-1.335,1.619-2.46C711.308,653.087,711.28,650.263,711.28,647.44z    M700.87,646.922c-0.006,0-0.013,0-0.019,0c0,2.821-0.02,5.642,0.01,8.462c0.012,1.155,0.187,2.409,1.61,2.548   c1.426,0.139,1.953-0.978,1.958-2.183c0.024-5.64,0.004-11.281-0.067-16.92c-0.012-0.96-0.49-1.948-1.579-2.033   c-1.482-0.115-1.862,1.062-1.892,2.228C700.823,641.655,700.87,644.289,700.87,646.922z M697.437,647.552c-0.015,0-0.029,0-0.043,0   c0-2.794,0.034-5.589-0.016-8.382c-0.021-1.173-0.37-2.3-1.862-2.21c-1.163,0.07-1.471,1.049-1.477,2.006   c-0.033,5.589-0.036,11.177-0.004,16.766c0.007,1.165,0.321,2.355,1.832,2.185c1.428-0.16,1.548-1.407,1.562-2.54   C697.458,652.769,697.437,650.16,697.437,647.552z"/>
	<path fill="#282526" d="M581.977,634.836c4.591,13.739,14.023,23.496,25.734,31.413c0.479,0.324,0.503,1.32,0.739,2.002   c-3.115,2.98-6.137,6.068-9.369,8.916c-4.589,4.044-9.678,3.841-14.003-0.539c-4.872-4.935-9.5-10.114-14.441-14.977   c-3.212-3.161-4.692-6.681-3.836-11.127C570.784,644.254,576.793,639.945,581.977,634.836z"/>
	<path fill="#D3D3D3" d="M397.912,644.687c0.552,0.159,1.104,0.319,1.657,0.477C399.018,645.004,398.465,644.846,397.912,644.687z"/>
	<path fill="#D3D3D3" d="M387.767,642.577c0.454,0.155,0.907,0.31,1.361,0.464C388.675,642.886,388.221,642.732,387.767,642.577z"/>
	<path fill="#D3D3D3" d="M366.278,638.06c0.435,0.171,0.871,0.342,1.306,0.513C367.149,638.402,366.714,638.231,366.278,638.06z"/>
	<path fill="#D3D3D3" d="M282.556,617.47c0.542,0.199,1.084,0.398,1.627,0.596C283.641,617.867,283.099,617.668,282.556,617.47z"/>
	<path fill="#D3D3D3" d="M279.17,616.378c0.499,0.203,0.998,0.407,1.497,0.61C280.169,616.784,279.67,616.581,279.17,616.378z"/>
	<path fill="#282526" d="M544.709,673.963c-6.783,4.611-13.872,8.404-22.465,7.406c-13.598-1.579-21.432-9.776-25.323-22.388   c-0.51-8.73,4.168-13.895,11.621-17.387c3.032-1.421,5.951-3.221,8.626-5.24c9.723-7.339,17.948-8.649,25.264-3.763   c7.863,5.252,11.98,17.1,9.602,26.964C550.724,664.981,547.756,669.469,544.709,673.963z M510.975,657.907   c2.48,6.692,7.275,10.328,13.654,10.355c6.429,0.027,11.165-3.454,13.832-10.166c1.378-2.026,0.982-4.322,0.794-6.5   c-0.3-3.47-1.452-6.789-4.889-8.217c-3.154-1.311-5.716,0.654-8.057,2.641c-3.727,3.163-8.02,5.403-12.297,7.707   C512.514,654.534,509.545,654.773,510.975,657.907z"/>
	<path fill="#282526" d="M738.529,669.317c14.131,0.039,28.262,0.078,42.393,0.117c0.056,2.795,0.367,5.613,0.113,8.38   c-0.493,5.374-3.771,8.497-9.179,8.631c-7.474,0.185-14.957,0.127-22.435,0.071c-7.475-0.057-10.527-3.054-10.811-10.469   C738.524,673.805,738.553,671.56,738.529,669.317z"/>
	<path fill="#D3D3D3" d="M732.498,589.027c-17.633-1.502-34.903-1.651-52.133,0.974c-4.586,0.699-9.072-0.479-13.137-2.548   c-15.997-8.142-31.962-7.305-47.816,0.124c-4.405,2.064-5.688,0.361-5.195-3.508c1.666-13.086,8.604-23.053,19.079-30.688   c1.633-1.19,3.852-2.1,5.891-1.529c10.855,3.044,21.258-0.768,31.85-1.807c16.727-1.64,33.497-0.484,50.248-0.535   c1.982-0.006,3.032,1.236,4.044,2.644c7.208,10.04,12.212,21.16,16.174,32.804c1.05,3.085,0.48,4.548-3.125,4.113   C736.339,588.825,734.243,589.027,732.498,589.027z"/>
	<path fill="#D3D3D3" d="M616.215,618.203c4.758-0.308,9.435,0.828,13.494,3.956c1.591,1.226,3.157,1.76,5.213,1.307   c31.213-6.875,62.906-4.57,94.459-4.727c3.799-0.019,5.574-1.336,7.335-4.533c3.505-6.361,10.523-8.809,17.481-6.799   c5.984,1.728,10.745,8.172,10.687,14.465c-0.056,6.11-4.706,12.551-10.28,14.24c-7.217,2.187-14.393-0.274-17.937-6.934   c-1.792-3.367-3.808-4.358-7.454-4.326c-19.201,0.171-38.406-0.069-57.607,0.127c-12.29,0.125-23.861,5.092-36.106,5.9   c-2.533,0.167-3.323,3.801-6.184,4.483c-10.275,2.448-19.419-0.451-27.813-5.993c-3.603-2.379-2.985-5.719,0.853-7.984   C606.528,618.927,611.114,618.079,616.215,618.203z"/>
	<path fill="#D3D3D3" d="M714.586,647.43c0-2.629-0.031-5.258,0.013-7.887c0.022-1.331,0.108-2.803,1.96-2.772   c1.348,0.023,2.037,1.141,2.054,2.275c0.085,5.817,0.063,11.636,0.001,17.453c-0.01,0.979-0.663,1.806-1.717,1.926   c-1.392,0.159-2.154-0.791-2.201-1.985c-0.119-2.999-0.039-6.006-0.039-9.01C714.632,647.43,714.609,647.43,714.586,647.43z"/>
	<path fill="#D3D3D3" d="M659.711,638.888c2.8-0.18,3.464,0.362,3.82,1.716c1.334,5.061,2.832,10.079,4.212,15.128   c0.415,1.519,0.504,3.299-1.345,3.756c-1.99,0.492-2.281-1.323-2.722-2.79c-1.43-4.758-2.985-9.478-4.37-14.249   C658.826,640.798,658.565,638.971,659.711,638.888z"/>
	<path fill="#D3D3D3" d="M653.479,636.632c1.868-0.245,2.025,1.078,2.369,2.407c1.35,5.217,2.811,10.404,4.159,15.621   c0.278,1.077,0.355,2.419-0.957,2.883c-1.832,0.648-2.146-0.919-2.558-2.148c-1.697-5.057-3.424-10.104-5.034-15.188   C650.901,638.447,650.95,636.763,653.479,636.632z"/>
	<path fill="#D3D3D3" d="M682.195,653.128c0.288,1.391,0.17,2.872-1.401,3.168c-1.637,0.309-2.195-1.095-2.394-2.483   c-0.744-5.185-1.502-10.368-2.163-15.563c-0.192-1.508-0.141-3.254,1.896-3.436c1.733-0.155,2.035,1.405,2.2,2.707   C680.991,642.718,681.58,647.925,682.195,653.128z"/>
	<path fill="#D3D3D3" d="M674.893,652.644c-0.207,1.591,0.494,3.582-1.73,3.727c-1.705,0.112-1.942-1.618-2.116-2.861   c-0.727-5.2-1.368-10.414-1.955-15.632c-0.144-1.276-0.245-2.932,1.598-3.009c1.27-0.052,1.797,1.19,1.971,2.378   C673.423,642.445,674.17,647.645,674.893,652.644z"/>
	<path fill="#D3D3D3" d="M646.118,641.172c1.207,0.079,1.605,0.978,1.946,1.821c2.016,4.983,4.003,9.977,5.972,14.979   c0.488,1.239,0.98,2.625-0.808,3.227c-1.291,0.435-2.161-0.413-2.597-1.516c-2.054-5.196-4.099-10.396-6.024-15.64   C644.131,642.744,644.361,641.412,646.118,641.172z"/>
	<path fill="#D3D3D3" d="M690.574,647.403c0.006,2.807,0.007,5.613,0.005,8.42c-0.001,1.232-0.426,2.354-1.712,2.522   c-1.546,0.202-1.752-1.094-1.757-2.238c-0.024-5.613-0.022-11.227,0.023-16.841c0.009-1.11,0.154-2.486,1.711-2.28   c1.26,0.167,1.7,1.356,1.714,2.558C690.589,642.164,690.568,644.784,690.574,647.403z"/>
	<path fill="#D3D3D3" d="M711.28,647.44c0,2.823,0.028,5.647-0.014,8.47c-0.017,1.124-0.077,2.428-1.619,2.46   c-1.021,0.021-1.846-0.768-1.853-1.766c-0.045-6.013-0.026-12.028,0.079-18.04c0.017-0.962,0.818-1.734,1.905-1.653   c1.202,0.089,1.423,1.137,1.444,2.062c0.063,2.821,0.023,5.645,0.023,8.468C711.256,647.44,711.268,647.44,711.28,647.44z"/>
	<path fill="#D3D3D3" d="M700.87,646.922c0-2.633-0.047-5.266,0.021-7.897c0.03-1.166,0.41-2.344,1.892-2.228   c1.089,0.085,1.567,1.073,1.579,2.033c0.071,5.64,0.091,11.28,0.067,16.92c-0.005,1.205-0.532,2.323-1.958,2.183   c-1.423-0.139-1.598-1.393-1.61-2.548c-0.03-2.821-0.01-5.642-0.01-8.462C700.857,646.922,700.863,646.922,700.87,646.922z"/>
	<path fill="#D3D3D3" d="M697.437,647.552c0,2.608,0.021,5.217-0.01,7.824c-0.013,1.133-0.133,2.38-1.562,2.54   c-1.511,0.17-1.825-1.02-1.832-2.185c-0.031-5.589-0.029-11.177,0.004-16.766c0.006-0.956,0.314-1.936,1.477-2.006   c1.492-0.09,1.841,1.037,1.862,2.21c0.051,2.793,0.016,5.588,0.016,8.382C697.408,647.552,697.422,647.552,697.437,647.552z"/>
	<path fill="#282526" d="M322.586,640.313c-15.476-0.509-27.419-13.003-27.039-28.284c0.391-15.724,12.956-27.745,28.579-27.343   c15.203,0.392,27.518,13.265,27.105,28.333C350.8,628.736,338.114,640.823,322.586,640.313z M338.143,612.418   c-0.055-8.122-6.543-14.516-14.765-14.55c-8.149-0.034-14.794,6.455-14.848,14.498c-0.055,8.281,6.756,15.013,15.086,14.907   C331.638,627.172,338.197,620.465,338.143,612.418z"/>
	<path fill="#F2F2F2" d="M930.725,707.325l-788.399-2.266c-4.942-0.014-8.937-4.032-8.923-8.974l0.007-2.339   c0.014-4.942,4.032-8.937,8.974-8.923l788.399,2.266c4.942,0.014,8.937,4.032,8.923,8.974l-0.007,2.339   C939.685,703.344,935.667,707.339,930.725,707.325z"/>
	
		<text transform="matrix(0.9723 -0.2339 0.2339 0.9723 471.6095 526.0674)" fill="#bd4242" font-family="'Bebas-Regular'" font-size="89.8616px">!</text>
	
		<text transform="matrix(0.9965 0.0833 -0.0833 0.9965 653.2716 511.5131)" fill="#2A94F4" font-family="'Bebas-Regular'" font-size="89.8616px">!</text>
</g>
</svg>