<svg class="gridItem__media" version="1.1" id="Layer_1" xmlns="http://www.w3.org/2000/svg" xmlns:xlink="http://www.w3.org/1999/xlink" x="0px" y="0px" width="1600" height="1200" viewBox="0 0 1600 1200" style="enable-background:new 0 0 1600 1200;" xml:space="preserve" fill="none">
<path d="M1372.5 1025.1H265.8L211.7 511.2C209.7 492.5 216.6 474 230.2 461.1L449.8 252.8C459.6 243.5 472.2 237.8 485.6 236.5L1135.2 174.3C1156.7 172.2 1177.6 181.8 1190.1 199.3L1362.5 441.1C1369.8 451.4 1373.7 463.7 1373.7 476.3L1372.5 1025.1Z" fill="#F4F4F4"/>
<path d="M1173.7 530.3C1174 527.3 1174.2 524.3 1174.5 521.2C1174.3 524.3 1174 527.3 1173.7 530.3Z" fill="white"/>
<path d="M1180.4 448.9C1180.6 446.4 1180.8 443.9 1180.9 441.4C1180.8 443.9 1180.6 446.3 1180.4 448.9Z" fill="white"/>
<path d="M1176.5 498.9C1176.7 495.9 1177 493 1177.2 490.1C1177 493 1176.7 495.9 1176.5 498.9Z" fill="white"/>
<path d="M1167.1 596.2C1167.6 592.1 1168 587.9 1168.5 583.6C1168 587.9 1167.6 592.1 1167.1 596.2Z" fill="white"/>
<path d="M1179.6 460.6C1179.9 456.6 1180.2 452.7 1180.5 448.9C1180.2 452.7 1179.9 456.6 1179.6 460.6Z" fill="white"/>
<path d="M1178.3 477.2C1178.5 474.4 1178.7 471.6 1179 468.8C1178.7 471.5 1178.5 474.3 1178.3 477.2Z" fill="white"/>
<path d="M1233.2 444.6C1234.6 415.1 1231.6 394.5 1231.6 394.5H1231.7L1228.5 393.1L1224.4 394L1196.6 400.2L1187.7 387.2L1183.9 386.8L1187.1 387.2C1187.5 402.7 1195.9 496.4 1179.3 616H1233.1C1226 562.2 1230 503.6 1231.6 459.4L1233.2 444.6Z" fill="white"/>
<path d="M1169.4 575C1169.7 572.1 1170 569.2 1170.3 566.2C1170 569.2 1169.7 572.1 1169.4 575Z" fill="white"/>
<path d="M1171.6 552.9C1172 548.4 1172.5 543.9 1172.9 539.4C1172.5 543.9 1172 548.4 1171.6 552.9Z" fill="white"/>
<path d="M1170.3 566.3C1170.6 563.4 1170.9 560.4 1171.2 557.4C1170.9 560.3 1170.6 563.3 1170.3 566.3Z" fill="white"/>
<path d="M1175.7 507.8C1176 504.8 1176.2 501.8 1176.5 498.9C1176.2 501.8 1176 504.8 1175.7 507.8Z" fill="white"/>
<path d="M1174.5 521.3C1174.9 516.8 1175.3 512.3 1175.7 507.8C1175.3 512.2 1174.9 516.7 1174.5 521.3Z" fill="white"/>
<path d="M1187.2 387.2L1184 386.8C1184.1 392.5 1183 413.3 1181 441.3C1180.8 443.7 1180.6 446.2 1180.5 448.8C1180.2 452.6 1179.9 456.5 1179.6 460.5C1179.4 463.2 1179.2 465.9 1179 468.7C1178.8 471.5 1178.6 474.2 1178.3 477.1C1178 481.3 1177.6 485.6 1177.3 490C1177.1 492.9 1176.8 495.8 1176.6 498.8C1176.4 501.8 1176.1 504.7 1175.8 507.7C1175.4 512.2 1175 516.7 1174.6 521.2C1174.3 524.2 1174.1 527.2 1173.8 530.3C1173.5 533.3 1173.2 536.3 1173 539.4C1172.6 543.9 1172.1 548.4 1171.7 552.9C1171.6 554.4 1171.4 555.9 1171.3 557.4C1171 560.4 1170.7 563.3 1170.4 566.3C1170.1 569.2 1169.8 572.2 1169.5 575.1C1169.2 578 1168.9 580.9 1168.6 583.7C1168.1 588 1167.7 592.2 1167.2 596.3C1166.4 603.2 1165.7 609.8 1164.9 616.1H1179.5C1196 496.5 1187.6 402.7 1187.2 387.2Z" fill="white"/>
<path opacity="0.15" d="M1184.5 397.4L1184 386.9C1184.1 392.6 1183 413.4 1181 441.4C1180.8 443.8 1180.6 446.3 1180.5 448.9C1180.2 452.7 1179.9 456.6 1179.6 460.6C1179.4 463.3 1179.2 466 1179 468.8C1178.8 471.6 1178.6 474.3 1178.3 477.2C1178 481.4 1177.6 485.7 1177.3 490.1C1177.1 493 1176.8 495.9 1176.6 498.9C1176.4 501.9 1176.1 504.8 1175.8 507.8C1175.4 512.3 1175 516.8 1174.6 521.3C1174.3 524.3 1174.1 527.3 1173.8 530.4C1173.5 533.4 1173.2 536.4 1173 539.5C1172.6 544 1172.1 548.5 1171.7 553C1171.6 554.5 1171.4 556 1171.3 557.5C1171 560.5 1170.7 563.4 1170.4 566.4C1170.1 569.3 1169.8 572.3 1169.5 575.2C1169.2 578.1 1168.9 581 1168.6 583.8C1168.1 588.1 1167.7 592.3 1167.2 596.4C1166.4 603.3 1165.7 609.9 1164.9 616.2H1179.5C1196 496.5 1184.9 412.8 1184.5 397.4Z" fill="black"/>
<path d="M1133.6 616L1142 972.4H1175.5L1194.2 662.4C1194.4 658.8 1197.4 656 1201 656C1204.6 656 1207.6 658.8 1207.8 662.5L1224.8 972.4H1258.3L1268.6 616H1133.6Z" fill="#21252B"/>
<g opacity="0.5">
<path opacity="0.5" d="M1133.6 616L1132.5 626.6H1268.2L1268.6 616H1133.6Z" fill="black"/>
</g>
<path opacity="0.3" d="M1142.9 616L1141.3 652.4H1163.3C1169.1 652.4 1174.3 648.4 1175.3 642.7C1176.8 633.7 1178.1 624.8 1179.4 616.1H1142.9V616Z" fill="black"/>
<path d="M1145.5 993.4L1144.6 964.2H1173L1171.7 994.3L1145.5 993.4Z" fill="#FC9D9D"/>
<path opacity="0.15" d="M1172.7 972.4L1171.8 994.3L1165 994.1L1165.2 981.2C1165.2 979.1 1163.8 977.3 1161.8 976.8L1144.8 972.4H1172.7Z" fill="black"/>
<path d="M1254.5 993.4L1255.4 964.2H1226.9L1228.2 994.3L1254.5 993.4Z" fill="#FC9D9D"/>
<path d="M1183.9 348.3L1184.2 389.5C1184.2 390.5 1184.5 391.5 1185.1 392.3L1185.5 393C1195.5 407.9 1216.1 410.8 1229.9 399.4C1231.3 398.2 1232 396.4 1231.7 394.6L1224.2 345L1183.9 348.3Z" fill="#FC9D9D"/>
<path d="M1228.6 327.9C1228.6 327.9 1236.8 382.1 1206.9 384.3C1177.7 386.5 1176.8 331.7 1176.8 331.7L1176 316L1213.6 309.4L1223.1 314.3L1228.6 327.9Z" fill="#FC9D9D"/>
<path opacity="0.15" d="M1229.3 379.8L1227.1 364.9C1224.4 374.5 1218.8 382.5 1209 384.1H1209.1C1208.4 384.2 1207.7 384.3 1207 384.4C1199.2 385 1192.7 381.4 1187.8 373.7C1187.6 373.4 1187.2 373.3 1186.9 373.5C1186.6 373.7 1186.5 374.1 1186.7 374.4C1191.9 382.6 1198.8 386.4 1207.1 385.8C1208.9 385.7 1210.6 385.3 1212.2 384.8C1217.5 385.4 1223.6 384.1 1229.3 379.8Z" fill="black"/>
<path d="M1221.5 315.8C1221.5 315.8 1231 309.5 1235.5 320.3C1239.3 329.4 1232.9 339.3 1232.9 339.3L1227.4 338.7C1225.1 338.6 1223.5 337.5 1223.3 335.3L1221.5 315.8Z" fill="#21252B"/>
<path d="M1228.3 309.2C1229.1 319.5 1220.3 322.2 1216.7 322.5L1187.2 325C1184.8 325.2 1183 327.3 1183.1 329.7L1183.6 339.1C1183.7 340.4 1182.8 341.5 1181.5 341.7L1179.7 341.9L1177.7 344.4C1166.1 341.6 1161.3 308.7 1182.6 302.1C1184.8 301.4 1186.9 299.7 1187.9 297.6C1191 291.2 1203.7 289.5 1210.1 296.7C1211.5 298.3 1213.1 298.9 1215.2 298.9C1222.9 298.7 1227.9 303.5 1228.3 309.2Z" fill="#21252B"/>
<path d="M1179.8 345.1C1179.4 341.3 1174.9 339.3 1171.9 341.8L1171.8 341.9C1166.7 346.3 1170 360.1 1181.2 358.9L1179.8 345.1Z" fill="#FC9D9D"/>
<path d="M1235.5 337.8L1235.4 337.7C1232.1 335.7 1228 338.3 1228.1 342.1L1228.7 355.3C1240 354.9 1241.1 341.4 1235.5 337.8Z" fill="#FC9D9D"/>
<path d="M1181.2 346.8C1181.3 347.5 1180.7 348.1 1180 348.2C1179.3 348.3 1178.6 347.8 1178.5 347.2L1177.2 338.3L1180.9 338.4L1181.2 346.8Z" fill="#21252B"/>
<path d="M1230.4 343.2C1230.5 343.9 1229.9 344.5 1229.2 344.6C1228.5 344.7 1227.8 344.2 1227.7 343.6L1226.4 334.7L1230.1 334.8L1230.4 343.2Z" fill="#21252B"/>
<path d="M1216.9 323.8C1216 323.9 1215.5 323.8 1215.4 323.8C1215.1 323.8 1214.8 323.5 1214.8 323.1C1214.8 322.8 1215.1 322.5 1215.5 322.5C1215.6 322.5 1221.5 322.8 1224 318.9C1224.2 318.6 1224.6 318.5 1224.9 318.7C1225.2 318.9 1225.3 319.3 1225.1 319.6C1222.9 322.9 1219 323.7 1216.9 323.8Z" fill="#FC9D9D"/>
<path d="M1194.7 352.8C1196.14 352.8 1197.3 351.636 1197.3 350.2C1197.3 348.764 1196.14 347.6 1194.7 347.6C1193.26 347.6 1192.1 348.764 1192.1 350.2C1192.1 351.636 1193.26 352.8 1194.7 352.8Z" fill="#21252B"/>
<path d="M1193.5 350.5C1193.83 350.5 1194.1 350.232 1194.1 349.9C1194.1 349.569 1193.83 349.3 1193.5 349.3C1193.17 349.3 1192.9 349.569 1192.9 349.9C1192.9 350.232 1193.17 350.5 1193.5 350.5Z" fill="white"/>
<path d="M1214.7 351.3C1216.14 351.3 1217.3 350.136 1217.3 348.7C1217.3 347.264 1216.14 346.1 1214.7 346.1C1213.26 346.1 1212.1 347.264 1212.1 348.7C1212.1 350.136 1213.26 351.3 1214.7 351.3Z" fill="#21252B"/>
<path d="M1213.5 349.1C1213.83 349.1 1214.1 348.831 1214.1 348.5C1214.1 348.169 1213.83 347.9 1213.5 347.9C1213.17 347.9 1212.9 348.169 1212.9 348.5C1212.9 348.831 1213.17 349.1 1213.5 349.1Z" fill="white"/>
<g opacity="0.3">
<path opacity="0.3" d="M1206 362.5L1208.1 362.3C1208.5 362.3 1208.8 361.9 1208.8 361.5C1208.8 361.1 1208.4 360.8 1208 360.8L1205.9 361C1205 361.1 1204.3 360.4 1204.2 359.5C1204.1 358.6 1204.8 357.9 1205.7 357.8C1206.1 357.8 1206.4 357.4 1206.4 357C1206.4 356.6 1206 356.3 1205.6 356.3C1203.9 356.4 1202.6 357.9 1202.8 359.6C1202.8 361.4 1204.3 362.6 1206 362.5Z" fill="black"/>
</g>
<path d="M1221.9 341.8L1210.6 342.4L1209.1 342.5L1199.2 343.1H1199.1L1186.4 343.8C1184.3 343.9 1182.8 345.7 1182.9 347.8L1183.1 350.7C1183.4 356.3 1188.2 360.6 1193.8 360.3C1199.4 360 1203.7 355.2 1203.4 349.6L1203.2 346.7C1203.2 345.9 1202.8 345.1 1202.3 344.5L1206.2 344.3C1205.8 345 1205.5 345.7 1205.6 346.6L1205.8 349.5C1206.1 355.1 1210.9 359.4 1216.5 359.1C1222.1 358.8 1226.4 354 1226.1 348.4L1225.9 345.5C1225.8 343.2 1224 341.7 1221.9 341.8ZM1201.7 346.7L1201.9 349.6C1202.2 354.4 1198.5 358.5 1193.8 358.7C1189 359 1184.9 355.3 1184.7 350.6L1184.5 347.7C1184.4 346.5 1185.4 345.4 1186.6 345.3L1199.3 344.6H1199.4C1200.6 344.5 1201.7 345.4 1201.7 346.7ZM1224.6 348.3C1224.9 353.1 1221.2 357.2 1216.5 357.4C1211.7 357.7 1207.6 354 1207.4 349.3L1207.2 346.4C1207.1 345.2 1208.1 344.1 1209.3 344L1210.8 343.9L1222.1 343.3C1223.3 343.2 1224.4 344.2 1224.5 345.4L1224.6 348.3Z" fill="#21252B"/>
<path d="M1199.6 366.6L1212.3 365.7C1212.6 365.7 1212.9 366 1212.8 366.3C1211 372.8 1202.1 373.5 1199.3 367.4V367.3C1199.1 367 1199.3 366.6 1199.6 366.6Z" fill="white"/>
<g opacity="0.3">
<path opacity="0.3" d="M1177 352.3C1176.6 352.3 1176.3 352 1176.2 351.6L1176 350C1175.8 348.3 1175.3 347.1 1174.6 346.5C1174 346 1173.4 346.1 1173.4 346.1C1173 346.2 1172.6 345.9 1172.5 345.5C1172.4 345.1 1172.7 344.7 1173.1 344.6C1173.2 344.6 1174.3 344.4 1175.5 345.2C1176.6 346 1177.3 347.6 1177.5 349.7L1177.7 351.3C1177.7 351.8 1177.4 352.2 1177 352.3Z" fill="black"/>
</g>
<g opacity="0.3">
<path opacity="0.3" d="M1232 348.2C1232.4 348.2 1232.7 347.8 1232.7 347.4V345.8C1232.6 344.1 1232.9 342.9 1233.6 342.2C1234.1 341.6 1234.7 341.6 1234.8 341.6C1235.2 341.6 1235.5 341.3 1235.6 340.9C1235.6 340.5 1235.3 340.2 1234.9 340.1C1234.8 340.1 1233.6 340.1 1232.7 341.1C1231.7 342.1 1231.3 343.7 1231.4 345.9V347.5C1231.2 347.9 1231.5 348.2 1232 348.2Z" fill="black"/>
</g>
<path d="M1171.7 1019.8V994.3C1171.7 986.6 1165.4 980.3 1157.7 980.3H1157.1C1150.8 980.3 1145.3 984.7 1144.1 990.9C1143.4 994.6 1141.7 998 1139.3 1000.8L1135.3 1005.5C1131.9 1009.5 1130 1014.6 1130 1019.8H1171.7Z" class="change-color-in-svg" fill="#4D61FC"/>
<path d="M1147.6 993.9C1147.4 993.9 1147.2 993.8 1147.1 993.6C1147 993.3 1147 993 1147.3 992.9C1155.5 988.3 1162.7 992.9 1162.7 992.9C1162.9 993.1 1163 993.4 1162.8 993.6C1162.6 993.8 1162.3 993.9 1162.1 993.7C1162 993.7 1155.4 989.4 1147.8 993.7C1147.8 993.9 1147.7 993.9 1147.6 993.9Z" fill="white"/>
<path d="M1145.9 997.5C1145.7 997.5 1145.5 997.4 1145.4 997.2C1145.3 996.9 1145.3 996.6 1145.6 996.5C1153.8 991.9 1161 996.5 1161 996.5C1161.2 996.7 1161.3 997 1161.1 997.2C1160.9 997.4 1160.6 997.5 1160.4 997.3C1160.3 997.3 1153.7 993 1146.1 997.3C1146.1 997.5 1146 997.5 1145.9 997.5Z" fill="white"/>
<path d="M1144.1 1001.3C1143.9 1001.3 1143.7 1001.2 1143.6 1001C1143.5 1000.7 1143.5 1000.4 1143.8 1000.3C1152 995.7 1159.2 1000.3 1159.2 1000.3C1159.4 1000.5 1159.5 1000.8 1159.3 1001C1159.1 1001.2 1158.8 1001.3 1158.6 1001.1C1158.5 1001.1 1151.9 996.8 1144.3 1001.1C1144.2 1001.3 1144.1 1001.3 1144.1 1001.3Z" fill="white"/>
<path d="M1131.8 1025.1H1169.9C1170.9 1025.1 1171.7 1024.3 1171.7 1023.3V1019.9H1130V1023.3C1130 1024.3 1130.8 1025.1 1131.8 1025.1Z" fill="#3F4249"/>
<path d="M1141.3 972.4L1141 960.8H1177L1176.3 972.4H1141.3Z" class="change-color-in-svg" fill="#4D61FC"/>
<path d="M1177 960.8L1176.3 972.4H1141.3L1141 960.8H1177Z" class="change-color-in-svg" fill="#4D61FC"/>
<path d="M1303.7 441.2C1301.3 430.4 1293.9 421.4 1283.8 417L1231.7 394.4H1231.6C1231.6 394.4 1231.7 394.9 1231.6 396C1231.6 396.4 1231.4 397 1231.3 397.6C1230.7 404.3 1229.4 420.8 1228.4 443.1C1228.2 447.5 1228 452.2 1227.8 457.1C1226.3 499.1 1226.1 588.8 1232.1 643.8C1232.6 648.6 1236.7 652.1 1241.4 652.1H1268.4L1270 576.4L1271.6 499.6L1272.9 504.3L1315.1 494.4L1303.7 441.2Z" class="change-color-in-svg" fill="#4D61FC"/>
<g opacity="0.15">
<path opacity="0.15" d="M1287.1 433.6L1302 497.8L1315.5 494.6L1303.8 441.2C1301.4 430.4 1294 421.4 1283.9 417L1272 411.8C1279.6 416.8 1285.1 424.6 1287.1 433.6Z" fill="black"/>
<path opacity="0.15" d="M1260.1 465.5L1247.4 652.4H1268.6L1271.9 499.9L1262.2 465.3C1261.9 464.1 1260.2 464.3 1260.1 465.5Z" fill="black"/>
</g>
<path d="M1184 386.9L1149.6 383C1137.1 381.6 1124.4 383.9 1113.3 389.7L1066.8 413.6L1097.5 446.2L1125.8 440L1127.4 452.4C1134 502.2 1136.2 552.5 1133.9 602.8L1131.7 652.5H1153.7C1159.5 652.5 1164.5 648.5 1165.7 642.8C1184.8 552.6 1184.4 402.3 1184 386.9Z" class="change-color-in-svg" fill="#4D61FC"/>
<path d="M1324 533.7L1315.5 494.6L1273.3 504.5L1281.7 529.2L1211.1 544.9L1207.2 545.7C1205.9 546 1204.7 546.1 1203.8 545.2L1202.3 543.7C1200.9 542.6 1199.3 541.7 1197.5 541.2C1193.3 540 1189.8 537.1 1187.7 533.4L1184.3 527.4C1184.1 527.1 1183.8 527 1183.5 527.2L1182.9 527.4C1180.4 528.3 1179.2 531 1179.9 533.5L1182.5 541.7C1182.8 542.6 1182.3 543.6 1181.4 543.9L1164.8 550.7C1161.3 552 1162.5 556.8 1165.7 556C1167.4 555.6 1167.8 555.5 1167.8 555.5L1164.5 557.2C1160.8 559 1162.5 564 1165.7 563.3C1168.8 562.6 1173.1 561.5 1173.1 561.5L1169 563.1C1166 564.5 1167.2 569.7 1171.3 568.7C1173.7 568.1 1177.5 566.9 1177.5 566.9L1175 568.1C1171.8 569.1 1172.9 574.1 1175.9 573.5C1178.5 573 1202.9 567 1215.5 564.7L1309 554.5C1319.2 553.6 1326.2 543.8 1324 533.7Z" fill="#FC9D9D"/>
<path d="M1066.7 413.5L1019.9 438.1C1004.3 446.3 1010.1 469.9 1027.8 469.9H1117.1L1134.4 451.7L1096.2 446.3L1098.4 445.8" fill="#FC9D9D"/>
<path d="M1118.5 457.2L1130.2 451.2L1157.8 455.1C1160.1 455.5 1162.2 456.6 1163.7 458.3L1169.8 465.9C1171.3 467.6 1172.4 469.6 1172.8 471.9L1175.7 484C1175.9 485.4 1175.7 486.7 1174.4 487C1173.1 487.3 1171.9 486.7 1171.4 485.4L1167 473L1159.2 464.4L1166.3 475.7L1170.3 491.4C1170.6 492.7 1169.9 494.1 1168.7 494.6C1167.2 495.2 1165.5 494.4 1165 492.9C1163.7 488.8 1161.6 481.8 1161.6 481.8L1153.2 468.7L1161.6 481.8L1165.3 489.7C1165.9 490.9 1165.4 492.4 1164.2 493C1163 493.7 1161.4 493.3 1160.7 492.2C1158.8 489.3 1154.8 484 1154.8 484L1147.1 473.8L1155.4 486.3C1155.9 487.1 1155.7 488.2 1155 488.8C1154.3 489.4 1153.2 489.3 1152.6 488.6L1145 480.4C1143.9 479.3 1142.5 478.5 1141 478.1C1135.6 476.9 1130.6 474.3 1126.5 470.5L1125.9 469.9H1117L1118.5 457.2Z" fill="#FC9D9D"/>
<path d="M1183.9 419.1L1184.1 381L1176.8 386.1L1162 423.1L1183.9 419.1Z" class="change-color-in-svg" fill="#4D61FC"/>
<path opacity="0.15" d="M1162.9 422.4L1176.8 386.1L1175.5 385.9L1161.1 423.8L1183.7 425.7L1183.9 419.1L1162.9 422.4Z" fill="black"/>
<path d="M1230.7 387.7L1238.4 397.4L1247.1 434.7L1229.8 424.9L1231.4 399.3L1231.5 398.8C1231.8 397.4 1231.9 396 1231.8 394.6L1230.7 387.7Z" class="change-color-in-svg" fill="#4D61FC"/>
<path opacity="0.2" d="M1239.9 398L1238.3 397.4L1246.7 434.1L1229.7 424.8L1229.1 432.4L1248.3 436L1239.9 398Z" fill="black"/>
<path opacity="0.15" d="M1309 554.9L1215.5 565.1C1202.9 567.4 1178.5 573.4 1175.9 573.9C1174.2 574.2 1173.1 572.8 1173 571.3C1173 571.3 1173.7 572.5 1175.6 571.9C1176.6 571.6 1191.6 566.1 1201.1 562.5C1206.2 560.6 1211.5 559.2 1216.9 558.3C1237.3 554.9 1290.4 545.9 1304.7 542.7C1308.9 541.8 1311.5 537.6 1310.5 533.5L1302.3 497.9L1315.6 494.8L1324.1 533.9C1326.2 543.8 1319.2 553.6 1309 554.9Z" fill="black"/>
<path d="M1302.1 497.8L1315.4 494.7L1302.1 497.8Z" class="change-color-in-svg" fill="#4D61FC"/>
<path opacity="0.15" d="M1087.5 434.8L1098.4 445.9L1125.8 439.9L1123.8 428.5C1123.3 425.6 1120.3 423.8 1117.5 424.8L1087.5 434.8Z" fill="black"/>
<path opacity="0.15" d="M1098.4 445.9L1087.5 434.8L1068.8 441L1048.9 438.1C1048.6 438 1048.3 438.3 1048.2 438.6C1048.2 438.9 1048.4 439.2 1048.7 439.3L1082.7 444.2L1096.2 446.4L1098.4 445.9Z" fill="black"/>
<g opacity="0.15">
<path opacity="0.15" d="M1152.7 488.6C1153.3 489.3 1154.4 489.4 1155.1 488.8C1155.9 488.2 1156.1 487.1 1155.5 486.3L1147.8 474.8C1146.9 475.3 1146.5 476.6 1145.7 477C1144.5 477.6 1143.1 477.3 1142.3 477.6C1141.5 477.9 1141 478.1 1141 478.1C1142.5 478.4 1143.9 479.2 1145 480.4L1152.7 488.6Z" fill="black"/>
<path opacity="0.15" d="M1170.3 491.5L1166.3 475.8L1159.2 464.5L1167 473.1L1171.5 485.5C1172 486.8 1173.2 487.5 1174.5 487.1C1175.7 486.8 1176 485.5 1175.8 484.1L1172.9 472C1172.5 469.8 1171.4 467.7 1169.9 466L1163.8 458.4C1163.3 457.8 1162.7 457.4 1162.1 456.9C1162.1 458.7 1162.3 460 1161.7 461.3C1161.2 462.5 1160.2 463.4 1159.1 464.5C1158.1 465.5 1158.3 467.5 1157.4 468.5C1156.9 469.1 1154.9 469.6 1154.3 470.1C1153 471.1 1152.7 472.7 1151.7 473.4C1150.7 474.2 1149.2 474.1 1148 474.8L1155 484C1155 484 1158.9 489.3 1160.9 492.2C1161.7 493.4 1163.2 493.7 1164.4 493C1164.6 492.9 1164.8 492.7 1165 492.5C1165 492.6 1165.1 492.8 1165.1 492.9C1165.6 494.4 1167.3 495.2 1168.8 494.6C1170 494.1 1170.6 492.8 1170.3 491.5Z" fill="black"/>
</g>
<g opacity="0.15">
<path opacity="0.15" d="M1164.9 493.1C1164.8 493.1 1164.6 493.1 1164.5 493C1164.3 492.8 1164.2 492.4 1164.4 492.2C1165.1 491.4 1164.7 490 1164.7 490L1160.3 480.8L1153.9 471C1153.7 470.7 1153.8 470.4 1154.1 470.2C1154.4 470 1154.7 470.1 1154.9 470.4L1161.4 480.2L1165.8 489.6C1165.9 489.8 1166.5 491.7 1165.3 493C1165.3 493 1165.1 493.1 1164.9 493.1Z" fill="black"/>
</g>
<path opacity="0.4" d="M1201 656C1197.4 656 1194.4 658.8 1194.2 662.4L1176.2 960.8H1165.5L1169.8 675.8C1170 664.8 1178.9 656 1189.9 656H1201Z" fill="black"/>
<path opacity="0.2" d="M1176.3 972.4L1177 960.8H1165.5L1165.3 972.4H1176.3Z" fill="black"/>
<path opacity="0.15" d="M1255.1 972.4L1254.5 993.4L1242.6 993.8L1242.8 979.6C1242.8 978.3 1242 977 1240.7 976.6L1227.3 972.3H1255.1V972.4Z" fill="black"/>
<path opacity="0.4" d="M1267.6 652.4L1258.3 972.4H1255.1L1255.4 964.2H1243L1247.4 652.4H1267.6Z" fill="black"/>
<path d="M1228.2 1019.8V994.3C1228.2 986.6 1234.5 980.3 1242.2 980.3H1242.8C1249.1 980.3 1254.6 984.7 1255.8 990.9C1256.5 994.6 1258.2 998 1260.6 1000.8L1264.6 1005.5C1268 1009.5 1269.9 1014.6 1269.9 1019.8H1228.2Z" class="change-color-in-svg" fill="#4D61FC"/>
<path d="M1252.4 993.9C1252.3 993.9 1252.2 993.9 1252.1 993.8C1244.4 989.5 1237.8 993.7 1237.8 993.8C1237.6 994 1237.2 993.9 1237.1 993.7C1236.9 993.5 1237 993.1 1237.2 993C1237.3 993 1244.4 988.3 1252.6 993C1252.9 993.1 1252.9 993.5 1252.8 993.7C1252.7 993.8 1252.5 993.9 1252.4 993.9Z" fill="white"/>
<path d="M1254 997.5C1253.9 997.5 1253.8 997.5 1253.7 997.4C1246 993.1 1239.4 997.3 1239.4 997.4C1239.2 997.6 1238.8 997.5 1238.7 997.3C1238.5 997.1 1238.6 996.7 1238.8 996.6C1238.9 996.6 1246 991.9 1254.2 996.6C1254.5 996.7 1254.5 997.1 1254.4 997.3C1254.4 997.4 1254.2 997.5 1254 997.5Z" fill="white"/>
<path d="M1255.9 1001.3C1255.8 1001.3 1255.7 1001.3 1255.6 1001.2C1247.9 996.9 1241.3 1001.1 1241.3 1001.2C1241.1 1001.4 1240.7 1001.3 1240.6 1001.1C1240.4 1000.9 1240.5 1000.5 1240.7 1000.4C1240.8 1000.4 1247.9 995.7 1256.1 1000.4C1256.4 1000.5 1256.4 1000.9 1256.3 1001.1C1256.2 1001.2 1256.1 1001.3 1255.9 1001.3Z" fill="white"/>
<path d="M1268.1 1025.1H1230C1229 1025.1 1228.2 1024.3 1228.2 1023.3V1019.9H1270V1023.3C1270 1024.3 1269.1 1025.1 1268.1 1025.1Z" fill="#3F4249"/>
<path d="M1223.3 960.8L1224 972.4H1259L1259.2 960.8H1223.3Z" class="change-color-in-svg" fill="#4D61FC"/>
<path opacity="0.2" d="M1243 960.8V972.4H1259L1259.2 960.8H1243Z" fill="black"/>
<path d="M1211 545.1L1214.7 565.1L1221 564.4L1217.3 543.7L1211 545.1Z" fill="#001B34"/>
<path d="M1216.3 561.8C1219.78 561.8 1222.6 558.98 1222.6 555.5C1222.6 552.021 1219.78 549.2 1216.3 549.2C1212.82 549.2 1210 552.021 1210 555.5C1210 558.98 1212.82 561.8 1216.3 561.8Z" class="change-color-in-svg" fill="#4D61FC"/>
<path d="M1216.3 560.8C1219.23 560.8 1221.6 558.427 1221.6 555.5C1221.6 552.573 1219.23 550.2 1216.3 550.2C1213.37 550.2 1211 552.573 1211 555.5C1211 558.427 1213.37 560.8 1216.3 560.8Z" fill="white"/>
<path d="M1219.8 556L1216.2 555.8L1213.6 553.9C1213.5 553.8 1213.4 553.6 1213.5 553.5C1213.6 553.4 1213.8 553.3 1213.9 553.4L1216.3 555.2L1219.7 555.4C1219.9 555.4 1220 555.5 1220 555.7C1220.1 555.8 1220 556 1219.8 556Z" fill="#001B34"/>
<path d="M1081.2 1025.6H1032.2C1026.3 1025.6 1021.5 1020.8 1021.5 1014.9V479.1C1021.5 473.2 1026.3 468.4 1032.2 468.4H1081.2C1097.3 468.4 1110.4 481.5 1110.4 497.6V996.5C1110.4 1012.5 1097.3 1025.6 1081.2 1025.6Z" fill="#21252B"/>
<path d="M1057.3 1025.6H823.2C805.9 1025.6 791.8 1011.5 791.8 994.2V499.7C791.8 482.4 805.9 468.3 823.2 468.3H1057.3C1074.6 468.3 1088.7 482.4 1088.7 499.7V994.1C1088.7 1011.5 1074.7 1025.6 1057.3 1025.6Z" fill="#61656D"/>
<path d="M1056.9 481.1H996.3C992.2 481.1 988.6 484 987.9 488.1C987.1 492.2 983.6 495.1 979.5 495.1H901.2C897.1 495.1 893.5 492.2 892.8 488.1C892 484 888.5 481.1 884.4 481.1H823.8C813.1 481.1 804.4 489.8 804.4 500.5V993.2C804.4 1003.9 813.1 1012.6 823.8 1012.6H1057.1C1067.8 1012.6 1076.5 1003.9 1076.5 993.2V500.6C1076.4 489.8 1067.7 481.1 1056.9 481.1Z" class="change-color-in-svg" fill="#4D61FC"/>
<path opacity="0.5" d="M1056.9 481.1H996.3C992.2 481.1 988.6 484 987.9 488.1C987.1 492.2 983.6 495.1 979.5 495.1H901.2C897.1 495.1 893.5 492.2 892.8 488.1C892 484 888.5 481.1 884.4 481.1H823.8C813.1 481.1 804.4 489.8 804.4 500.5V993.2C804.4 1003.9 813.1 1012.6 823.8 1012.6H1057.1C1067.8 1012.6 1076.5 1003.9 1076.5 993.2V500.6C1076.4 489.8 1067.7 481.1 1056.9 481.1Z" fill="white"/>
<path opacity="0.5" d="M971.5 485.6H909C907.8 485.6 906.8 484.6 906.8 483.4C906.8 482.2 907.8 481.2 909 481.2H971.5C972.7 481.2 973.7 482.2 973.7 483.4C973.7 484.6 972.8 485.6 971.5 485.6Z" fill="black"/>
<path d="M767.1 582.2L756.3 576.5L755.8 577.4C722.6 566.4 685.3 580.7 668.5 612.7C651.7 644.7 660.9 683.5 688.8 704.7L688.3 705.6L699.1 711.3C734.7 730.1 778.9 716.4 797.6 680.7C816.5 645 802.8 600.9 767.1 582.2Z" class="change-color-in-svg" fill="#4D61FC"/>
<path opacity="0.3" d="M767.1 582.2L756.3 576.5L755.8 577.4C722.6 566.4 685.3 580.7 668.5 612.7C651.7 644.7 660.9 683.5 688.8 704.7L688.3 705.6L699.1 711.3C734.7 730.1 778.9 716.4 797.6 680.7C816.5 645 802.8 600.9 767.1 582.2Z" fill="black"/>
<path d="M726 715.8C766.261 715.8 798.9 683.162 798.9 642.9C798.9 602.638 766.261 570 726 570C685.738 570 653.1 602.638 653.1 642.9C653.1 683.162 685.738 715.8 726 715.8Z" class="change-color-in-svg" fill="#4D61FC"/>
<path d="M746.1 643.1C746 642.8 745.8 642.5 745.4 642.3L739.3 639.1C739.9 636.9 740.1 634.8 739.7 632.7L748.1 637.1C748.4 637.3 748.8 637.3 749.1 637.2C749.4 637.1 749.7 636.9 749.9 636.5L751.8 632.8C752 632.5 752 632.1 751.9 631.8C751.8 631.5 751.6 631.2 751.2 631L721.3 615.3C721 615.1 720.6 615.1 720.3 615.2C720 615.3 719.7 615.5 719.5 615.9L717 620.7C716.8 621 716.8 621.3 716.9 621.7C717 622 717.2 622.3 717.5 622.5L722.7 625.2C727.8 627.9 730.3 630.9 730.2 634.3L715.4 626.5C715.1 626.3 714.7 626.3 714.4 626.4C714.1 626.5 713.8 626.7 713.6 627.1L711.7 630.8C711.5 631.1 711.5 631.5 711.6 631.8C711.7 632.1 711.9 632.4 712.3 632.6L727.7 640.7C726.1 642.4 724.1 643.2 721.6 643.3C719.1 643.3 716.3 642.5 713.1 640.8L709.1 638.7C708.8 638.5 708.5 638.5 708.1 638.6C707.8 638.7 707.5 638.9 707.3 639.2L704.9 643.8C704.7 644.1 704.7 644.4 704.8 644.8C706.8 652.1 708.2 657.3 710.9 670C711 670.4 711.2 670.7 711.6 670.9L718.6 674.6C719.1 674.9 719.6 674.8 720 674.5C720.5 674.2 720.6 673.8 720.5 673.2C718 660.9 716.9 656.4 715.1 650C719.4 651.7 723.4 652.1 727.1 651.3C730.8 650.5 733.8 648.5 736.2 645.3L742.2 648.5C742.5 648.7 742.9 648.7 743.2 648.6C743.5 648.5 743.8 648.3 744 647.9L745.9 644.2C746.1 643.8 746.2 643.4 746.1 643.1Z" class="change-color-in-svg" fill="#4D61FC"/>
<path opacity="0.3" d="M726 702.9C759.137 702.9 786 676.037 786 642.9C786 609.763 759.137 582.9 726 582.9C692.863 582.9 666 609.763 666 642.9C666 676.037 692.863 702.9 726 702.9Z" fill="black"/>
<path opacity="0.2" d="M678.8 618.1C693.7 589.8 728.1 578.3 756.8 591.5C755.9 590.9 754.9 590.4 753.9 589.9C724.6 574.5 688.3 585.7 672.9 615C657.5 644.3 668.7 680.6 698 696C699 696.5 700 697 701 697.5C673.9 681.2 663.9 646.4 678.8 618.1Z" fill="black"/>
<path d="M751 645.7C750.9 645.4 750.7 645.1 750.3 644.9L744.2 641.7C744.8 639.5 745 637.4 744.6 635.3L753 639.7C753.3 639.9 753.7 639.9 754 639.8C754.3 639.7 754.6 639.5 754.8 639.1L756.7 635.4C756.9 635.1 756.9 634.7 756.8 634.4C756.7 634.1 756.5 633.8 756.1 633.6L726.3 618C726 617.8 725.6 617.8 725.3 617.9C725 618 724.7 618.2 724.5 618.6L722 623.4C721.8 623.7 721.8 624 721.9 624.4C722 624.7 722.2 625 722.5 625.2L727.7 627.9C732.8 630.6 735.3 633.6 735.2 637L720.4 629.2C720.1 629 719.7 629 719.4 629.1C719.1 629.2 718.8 629.4 718.6 629.8L716.7 633.5C716.5 633.8 716.5 634.2 716.6 634.5C716.7 634.8 716.9 635.1 717.3 635.3L732.7 643.4C731.1 645.1 729.1 645.9 726.6 646C724.1 646 721.3 645.2 718.1 643.5L714.1 641.4C713.8 641.2 713.5 641.2 713.1 641.3C712.8 641.4 712.5 641.6 712.3 641.9L709.9 646.5C709.7 646.8 709.7 647.1 709.8 647.5C711.8 654.8 713.2 660 715.9 672.7C716 673.1 716.2 673.4 716.6 673.6L723.6 677.3C724.1 677.6 724.6 677.5 725 677.2C725.5 676.9 725.6 676.5 725.5 675.9C723 663.6 721.9 659.1 720.1 652.7C724.4 654.4 728.4 654.8 732.1 654C735.8 653.2 738.8 651.2 741.2 648L747.2 651.2C747.5 651.4 747.9 651.4 748.2 651.3C748.5 651.2 748.8 651 749 650.6L750.9 646.9C751.1 646.4 751.1 646.1 751 645.7Z" class="change-color-in-svg" fill="#4D61FC"/>
<path opacity="0.3" d="M751 645.7C750.9 645.4 750.7 645.1 750.3 644.9L744.2 641.7C744.8 639.5 745 637.4 744.6 635.3L753 639.7C753.3 639.9 753.7 639.9 754 639.8C754.3 639.7 754.6 639.5 754.8 639.1L756.7 635.4C756.9 635.1 756.9 634.7 756.8 634.4C756.7 634.1 756.5 633.8 756.1 633.6L726.3 618C726 617.8 725.6 617.8 725.3 617.9C725 618 724.7 618.2 724.5 618.6L722 623.4C721.8 623.7 721.8 624 721.9 624.4C722 624.7 722.2 625 722.5 625.2L727.7 627.9C732.8 630.6 735.3 633.6 735.2 637L720.4 629.2C720.1 629 719.7 629 719.4 629.1C719.1 629.2 718.8 629.4 718.6 629.8L716.7 633.5C716.5 633.8 716.5 634.2 716.6 634.5C716.7 634.8 716.9 635.1 717.3 635.3L732.7 643.4C731.1 645.1 729.1 645.9 726.6 646C724.1 646 721.3 645.2 718.1 643.5L714.1 641.4C713.8 641.2 713.5 641.2 713.1 641.3C712.8 641.4 712.5 641.6 712.3 641.9L709.9 646.5C709.7 646.8 709.7 647.1 709.8 647.5C711.8 654.8 713.2 660 715.9 672.7C716 673.1 716.2 673.4 716.6 673.6L723.6 677.3C724.1 677.6 724.6 677.5 725 677.2C725.5 676.9 725.6 676.5 725.5 675.9C723 663.6 721.9 659.1 720.1 652.7C724.4 654.4 728.4 654.8 732.1 654C735.8 653.2 738.8 651.2 741.2 648L747.2 651.2C747.5 651.4 747.9 651.4 748.2 651.3C748.5 651.2 748.8 651 749 650.6L750.9 646.9C751.1 646.4 751.1 646.1 751 645.7Z" fill="black"/>
<path d="M746.1 643.1C746 642.8 745.8 642.5 745.4 642.3L739.3 639.1C739.9 636.9 740.1 634.8 739.7 632.7L748.1 637.1C748.4 637.3 748.8 637.3 749.1 637.2C749.4 637.1 749.7 636.9 749.9 636.5L751.8 632.8C752 632.5 752 632.1 751.9 631.8C751.8 631.5 751.6 631.2 751.2 631L721.3 615.3C721 615.1 720.6 615.1 720.3 615.2C720 615.3 719.7 615.5 719.5 615.9L717 620.7C716.8 621 716.8 621.3 716.9 621.7C717 622 717.2 622.3 717.5 622.5L722.7 625.2C727.8 627.9 730.3 630.9 730.2 634.3L715.4 626.5C715.1 626.3 714.7 626.3 714.4 626.4C714.1 626.5 713.8 626.7 713.6 627.1L711.7 630.8C711.5 631.1 711.5 631.5 711.6 631.8C711.7 632.1 711.9 632.4 712.3 632.6L727.7 640.7C726.1 642.4 724.1 643.2 721.6 643.3C719.1 643.3 716.3 642.5 713.1 640.8L709.1 638.7C708.8 638.5 708.5 638.5 708.1 638.6C707.8 638.7 707.5 638.9 707.3 639.2L704.9 643.8C704.7 644.1 704.7 644.4 704.8 644.8C706.8 652.1 708.2 657.3 710.9 670C711 670.4 711.2 670.7 711.6 670.9L718.6 674.6C719.1 674.9 719.6 674.8 720 674.5C720.5 674.2 720.6 673.8 720.5 673.2C718 660.9 716.9 656.4 715.1 650C719.4 651.7 723.4 652.1 727.1 651.3C730.8 650.5 733.8 648.5 736.2 645.3L742.2 648.5C742.5 648.7 742.9 648.7 743.2 648.6C743.5 648.5 743.8 648.3 744 647.9L745.9 644.2C746.1 643.8 746.2 643.4 746.1 643.1Z" class="change-color-in-svg" fill="#4D61FC"/>
<path d="M1033.9 564.4H837.2C836.2 564.4 835.3 563.5 835.3 562.5V550.3C835.3 549.3 836.2 548.4 837.2 548.4H1033.9C1034.9 548.4 1035.8 549.3 1035.8 550.3V562.5C1035.8 563.5 1035 564.4 1033.9 564.4Z" fill="white"/>
<path d="M1010.6 598.5H860.5C859.5 598.5 858.6 597.6 858.6 596.6V584.4C858.6 583.4 859.5 582.5 860.5 582.5H1010.6C1011.6 582.5 1012.5 583.4 1012.5 584.4V596.6C1012.5 597.6 1011.7 598.5 1010.6 598.5Z" fill="white"/>
<path d="M986.4 927.9H884.7C881.5 927.9 878.9 925.3 878.9 922.1V905.5C878.9 902.3 881.5 899.7 884.7 899.7H986.4C989.6 899.7 992.2 902.3 992.2 905.5V922.1C992.3 925.3 989.6 927.9 986.4 927.9Z" class="change-color-in-svg" fill="#4D61FC"/>
<path d="M948.9 668.8H939.7V670.8C932.2 674.3 927 681.9 927 690.7V844C927 852.8 932.2 860.4 939.7 863.9V865.9H948.9C961 865.9 970.8 856.1 970.8 844V690.7C970.8 678.6 961 668.8 948.9 668.8Z" class="change-color-in-svg" fill="#4D61FC"/>
<path opacity="0.3" d="M948.9 668.8H939.7V670.8C932.2 674.3 927 681.9 927 690.7V844C927 852.8 932.2 860.4 939.7 863.9V865.9H948.9C961 865.9 970.8 856.1 970.8 844V690.7C970.8 678.6 961 668.8 948.9 668.8Z" fill="white"/>
<path d="M939.6 865.9C927.5 865.9 917.7 856.1 917.7 844V690.7C917.7 678.6 927.5 668.8 939.6 668.8C951.7 668.8 961.5 678.6 961.5 690.7V844C961.5 856.1 951.7 865.9 939.6 865.9Z" fill="white"/>
<path d="M939.6 855.1C933 855.1 927.7 849.8 927.7 843.2V691.6C927.7 685 933 679.7 939.6 679.7C946.2 679.7 951.5 685 951.5 691.6V843.2C951.6 849.7 946.2 855.1 939.6 855.1Z" fill="#3F4249"/>
<path d="M951.6 694.5C945.6 693 939.3 692.1 932.8 692.1H920.3V693.1C884.7 699.1 857.6 730 857.6 767.3C857.6 804.6 884.7 835.5 920.3 841.5V842.5H932.8C939.3 842.5 945.6 841.7 951.6 840.1V694.5Z" class="change-color-in-svg" fill="#4D61FC"/>
<path opacity="0.3" d="M951.6 694.5C945.6 693 939.3 692.1 932.8 692.1H920.3V693.1C884.7 699.1 857.6 730 857.6 767.3C857.6 804.6 884.7 835.5 920.3 841.5V842.5H932.8C939.3 842.5 945.6 841.7 951.6 840.1V694.5Z" fill="black"/>
<path d="M951.6 697.2C943.2 693.9 934 692.1 924.4 692.1C882.8 692.1 849.1 725.8 849.1 767.4C849.1 809 882.8 842.7 924.4 842.7C934 842.7 943.1 840.9 951.6 837.6V697.2Z" class="change-color-in-svg" fill="#4D61FC"/>
<path opacity="0.3" d="M951.6 711.8C943.4 707.8 934.2 705.5 924.4 705.5C890.2 705.5 862.5 733.201 862.5 767.401C862.5 801.601 890.2 829.3 924.4 829.3C934.1 829.3 943.4 827 951.6 823V711.8Z" fill="black"/>
<path d="M942.8 757.9C942.5 757.6 942.2 757.5 941.8 757.5H934.6C934.1 755.2 933.2 753.2 931.9 751.5H941.7C942.1 751.5 942.4 751.4 942.7 751.1C943 750.8 943.1 750.5 943.1 750.1V745.8C943.1 745.4 943 745.1 942.7 744.8C942.4 744.5 942.1 744.4 941.7 744.4H906.8C906.4 744.4 906.1 744.5 905.8 744.8C905.5 745.1 905.4 745.4 905.4 745.8V751.4C905.4 751.8 905.5 752.1 905.8 752.3C906.1 752.6 906.4 752.7 906.7 752.7H912.8C918.7 752.7 922.4 754.3 924 757.4H906.7C906.3 757.4 906 757.5 905.7 757.8C905.4 758.1 905.3 758.4 905.3 758.8V763.1C905.3 763.5 905.4 763.8 905.7 764.1C906 764.4 906.3 764.5 906.7 764.5H924.6C924 766.8 922.6 768.5 920.3 769.7C918.1 770.9 915.1 771.5 911.4 771.5H906.7C906.3 771.5 906 771.6 905.8 771.9C905.5 772.2 905.4 772.5 905.4 772.8V778.1C905.4 778.5 905.5 778.8 905.8 779C911.2 784.7 914.9 788.8 923.5 799C923.8 799.3 924.1 799.5 924.5 799.5H932.7C933.3 799.5 933.7 799.2 933.9 798.7C934.2 798.2 934.1 797.7 933.7 797.3C925.5 787.3 922.3 783.7 917.7 778.7C922.4 778.1 926.3 776.6 929.3 774.1C932.3 771.6 934.1 768.3 934.7 764.3H941.7C942.1 764.3 942.4 764.2 942.7 763.9C943 763.6 943.1 763.3 943.1 762.9V758.6C943.2 758.4 943.1 758.1 942.8 757.9Z" class="change-color-in-svg" fill="#4D61FC"/>
<path opacity="0.2" d="M869.4 767.3C869.4 734.3 895.3 707.3 927.8 705.5C926.7 705.4 925.5 705.4 924.4 705.4C890.2 705.4 862.5 733.1 862.5 767.3C862.5 801.5 890.2 829.2 924.4 829.2C925.5 829.2 926.7 829.2 927.8 829.1C895.2 827.3 869.4 800.4 869.4 767.3Z" fill="black"/>
<path d="M948.6 757.9C948.3 757.6 948 757.5 947.6 757.5H940.4C939.9 755.2 939 753.2 937.7 751.5H947.5C947.9 751.5 948.2 751.4 948.5 751.1C948.8 750.8 948.9 750.5 948.9 750.1V745.8C948.9 745.4 948.8 745.1 948.5 744.8C948.2 744.5 947.9 744.4 947.5 744.4H912.6C912.2 744.4 911.9 744.5 911.6 744.8C911.3 745.1 911.2 745.4 911.2 745.8V751.4C911.2 751.8 911.3 752.1 911.6 752.3C911.9 752.6 912.2 752.7 912.5 752.7H918.6C924.5 752.7 928.2 754.3 929.8 757.4H912.5C912.1 757.4 911.8 757.5 911.5 757.8C911.2 758.1 911.1 758.4 911.1 758.8V763.1C911.1 763.5 911.2 763.8 911.5 764.1C911.8 764.4 912.1 764.5 912.5 764.5H930.4C929.8 766.8 928.4 768.5 926.1 769.7C923.9 770.9 920.9 771.5 917.2 771.5H912.5C912.1 771.5 911.8 771.6 911.6 771.9C911.3 772.2 911.2 772.5 911.2 772.8V778.1C911.2 778.5 911.3 778.8 911.6 779C917 784.7 920.7 788.8 929.3 799C929.6 799.3 929.9 799.5 930.3 799.5H938.5C939.1 799.5 939.5 799.2 939.7 798.7C940 798.2 939.9 797.7 939.5 797.3C931.3 787.3 928.1 783.7 923.5 778.7C928.2 778.1 932.1 776.6 935.1 774.1C938.1 771.6 939.9 768.3 940.5 764.3H947.5C947.9 764.3 948.2 764.2 948.5 763.9C948.8 763.6 948.9 763.3 948.9 762.9V758.6C949 758.4 948.9 758.1 948.6 757.9Z" class="change-color-in-svg" fill="#4D61FC"/>
<path opacity="0.3" d="M948.6 757.9C948.3 757.6 948 757.5 947.6 757.5H940.4C939.9 755.2 939 753.2 937.7 751.5H947.5C947.9 751.5 948.2 751.4 948.5 751.1C948.8 750.8 948.9 750.5 948.9 750.1V745.8C948.9 745.4 948.8 745.1 948.5 744.8C948.2 744.5 947.9 744.4 947.5 744.4H912.6C912.2 744.4 911.9 744.5 911.6 744.8C911.3 745.1 911.2 745.4 911.2 745.8V751.4C911.2 751.8 911.3 752.1 911.6 752.3C911.9 752.6 912.2 752.7 912.5 752.7H918.6C924.5 752.7 928.2 754.3 929.8 757.4H912.5C912.1 757.4 911.8 757.5 911.5 757.8C911.2 758.1 911.1 758.4 911.1 758.8V763.1C911.1 763.5 911.2 763.8 911.5 764.1C911.8 764.4 912.1 764.5 912.5 764.5H930.4C929.8 766.8 928.4 768.5 926.1 769.7C923.9 770.9 920.9 771.5 917.2 771.5H912.5C912.1 771.5 911.8 771.6 911.6 771.9C911.3 772.2 911.2 772.5 911.2 772.8V778.1C911.2 778.5 911.3 778.8 911.6 779C917 784.7 920.7 788.8 929.3 799C929.6 799.3 929.9 799.5 930.3 799.5H938.5C939.1 799.5 939.5 799.2 939.7 798.7C940 798.2 939.9 797.7 939.5 797.3C931.3 787.3 928.1 783.7 923.5 778.7C928.2 778.1 932.1 776.6 935.1 774.1C938.1 771.6 939.9 768.3 940.5 764.3H947.5C947.9 764.3 948.2 764.2 948.5 763.9C948.8 763.6 948.9 763.3 948.9 762.9V758.6C949 758.4 948.9 758.1 948.6 757.9Z" fill="black"/>
<path d="M942.8 757.9C942.5 757.6 942.2 757.5 941.8 757.5H934.6C934.1 755.2 933.2 753.2 931.9 751.5H941.7C942.1 751.5 942.4 751.4 942.7 751.1C943 750.8 943.1 750.5 943.1 750.1V745.8C943.1 745.4 943 745.1 942.7 744.8C942.4 744.5 942.1 744.4 941.7 744.4H906.8C906.4 744.4 906.1 744.5 905.8 744.8C905.5 745.1 905.4 745.4 905.4 745.8V751.4C905.4 751.8 905.5 752.1 905.8 752.3C906.1 752.6 906.4 752.7 906.7 752.7H912.8C918.7 752.7 922.4 754.3 924 757.4H906.7C906.3 757.4 906 757.5 905.7 757.8C905.4 758.1 905.3 758.4 905.3 758.8V763.1C905.3 763.5 905.4 763.8 905.7 764.1C906 764.4 906.3 764.5 906.7 764.5H924.6C924 766.8 922.6 768.5 920.3 769.7C918.1 770.9 915.1 771.5 911.4 771.5H906.7C906.3 771.5 906 771.6 905.8 771.9C905.5 772.2 905.4 772.5 905.4 772.8V778.1C905.4 778.5 905.5 778.8 905.8 779C911.2 784.7 914.9 788.8 923.5 799C923.8 799.3 924.1 799.5 924.5 799.5H932.7C933.3 799.5 933.7 799.2 933.9 798.7C934.2 798.2 934.1 797.7 933.7 797.3C925.5 787.3 922.3 783.7 917.7 778.7C922.4 778.1 926.3 776.6 929.3 774.1C932.3 771.6 934.1 768.3 934.7 764.3H941.7C942.1 764.3 942.4 764.2 942.7 763.9C943 763.6 943.1 763.3 943.1 762.9V758.6C943.2 758.4 943.1 758.1 942.8 757.9Z" class="change-color-in-svg" fill="#4D61FC"/>
<path opacity="0.3" d="M951.6 690.1H941.8V844.5H951.6V690.1Z" fill="#263238"/>
<path d="M652.3 1025.6H611.9C607.1 1025.6 603.1 1022.1 602.4 1017.3L591.3 938.2H651.1L661.8 1014.6C662.7 1020.4 658.2 1025.6 652.3 1025.6Z" fill="#3F4249"/>
<path d="M403.8 1025.6H444.2C449 1025.6 453 1022.1 453.7 1017.3L464.8 938.2H405L394.3 1014.6C393.5 1020.4 398 1025.6 403.8 1025.6Z" fill="#3F4249"/>
<path opacity="0.2" d="M403.8 1025.6H444.2C449 1025.6 453 1022.1 453.7 1017.3L464.8 938.2H405L394.3 1014.6C393.5 1020.4 398 1025.6 403.8 1025.6Z" fill="black"/>
<path d="M418.4 1017.3L429.5 938.2H405L394.3 1014.6C393.5 1020.4 398 1025.5 403.8 1025.5H408.9C413.7 1025.6 417.8 1022 418.4 1017.3Z" fill="#3F4249"/>
<path opacity="0.2" d="M652.3 1025.6H611.9C607.1 1025.6 603.1 1022.1 602.4 1017.3L591.3 938.2H651.1L661.8 1014.6C662.7 1020.4 658.2 1025.6 652.3 1025.6Z" fill="black"/>
<path d="M631 1014.6L620.3 938.2H591.3L602.4 1017.3C603.1 1022 607.1 1025.6 611.9 1025.6H621.5C627.3 1025.6 631.8 1020.4 631 1014.6Z" fill="#3F4249"/>
<path d="M324.2 1025.6H364.6C369.4 1025.6 373.4 1022.1 374.1 1017.3L385.2 938.2H325.4L314.7 1014.6C313.9 1020.4 318.4 1025.6 324.2 1025.6Z" fill="#3F4249"/>
<path d="M572.7 1025.6H532.3C527.5 1025.6 523.5 1022.1 522.8 1017.3L511.7 938.2H571.5L582.2 1014.6C583.1 1020.4 578.6 1025.6 572.7 1025.6Z" fill="#3F4249"/>
<path opacity="0.2" d="M572.7 1025.6H532.3C527.5 1025.6 523.5 1022.1 522.8 1017.3L511.7 938.2H571.5L582.2 1014.6C583.1 1020.4 578.6 1025.6 572.7 1025.6Z" fill="black"/>
<path opacity="0.2" d="M324.2 1025.6H364.6C369.4 1025.6 373.4 1022.1 374.1 1017.3L385.2 938.2H325.4L314.7 1014.6C313.9 1020.4 318.4 1025.6 324.2 1025.6Z" fill="black"/>
<path d="M359 787.7C372.807 787.7 384 769.299 384 746.6C384 723.901 372.807 705.5 359 705.5C345.193 705.5 334 723.901 334 746.6C334 769.299 345.193 787.7 359 787.7Z" fill="#3F4249"/>
<path opacity="0.3" d="M359 787.7C372.807 787.7 384 769.299 384 746.6C384 723.901 372.807 705.5 359 705.5C345.193 705.5 334 723.901 334 746.6C334 769.299 345.193 787.7 359 787.7Z" fill="black"/>
<path d="M715.7 883.4C714.3 883.4 712.8 883.3 711.3 883.2C708.4 883 706.2 880.4 706.5 877.5C706.7 874.6 709.3 872.5 712.2 872.7C718 873.2 723.5 872.4 727.9 870.6C722 866.1 717.7 860.1 716.1 853.7C712.9 841.3 719 832.5 726.7 830.3C734.2 828.2 744.1 831.9 748.3 845.3C750.8 853.3 750.3 861 746.9 867.4C752.3 868.2 758.4 867.7 764.8 865.8C767.6 865 770.5 866.6 771.4 869.4C772.2 872.2 770.6 875.1 767.8 876C755.7 879.6 746.1 878.7 739.1 876.5C733 880.9 724.8 883.4 715.7 883.4ZM730.7 840.3C730.3 840.3 730 840.4 729.6 840.4C726.9 841.2 724.7 844.8 726.3 851C727.3 854.8 730.5 860.1 736.7 863.8C739.5 859.6 740 854.4 738.2 848.4C736.4 842.7 733.2 840.3 730.7 840.3Z" fill="#3F4249"/>
<g opacity="0.5">
<path opacity="0.5" d="M715.7 883.4C714.3 883.4 712.8 883.3 711.3 883.2C708.4 883 706.2 880.4 706.5 877.5C706.7 874.6 709.3 872.5 712.2 872.7C718 873.2 723.5 872.4 727.9 870.6C722 866.1 717.7 860.1 716.1 853.7C712.9 841.3 719 832.5 726.7 830.3C734.2 828.2 744.1 831.9 748.3 845.3C750.8 853.3 750.3 861 746.9 867.4C752.3 868.2 758.4 867.7 764.8 865.8C767.6 865 770.5 866.6 771.4 869.4C772.2 872.2 770.6 875.1 767.8 876C755.7 879.6 746.1 878.7 739.1 876.5C733 880.9 724.8 883.4 715.7 883.4ZM730.7 840.3C730.3 840.3 730 840.4 729.6 840.4C726.9 841.2 724.7 844.8 726.3 851C727.3 854.8 730.5 860.1 736.7 863.8C739.5 859.6 740 854.4 738.2 848.4C736.4 842.7 733.2 840.3 730.7 840.3Z" fill="black"/>
</g>
<path d="M582.4 991.5H407C334.5 991.5 275.7 932.7 275.7 860.2C275.7 787.7 334.5 728.9 407 728.9H582.4C654.9 728.9 713.7 787.7 713.7 860.2C713.7 932.7 654.9 991.5 582.4 991.5Z" fill="#3F4249"/>
<path opacity="0.2" d="M651.6 748.6C667.1 770.5 676.2 797.2 676.2 826C676.2 900 616.2 960 542.2 960H363.2C344.5 960 326.6 956.1 310.4 949.2C334.4 975.2 368.7 991.5 406.9 991.5H582.3C654.8 991.5 713.6 932.7 713.6 860.2C713.7 813.1 688.9 771.8 651.6 748.6Z" fill="black"/>
<path d="M290.1 819.1H276.9V823.4C264.8 831.7 256.3 851.1 256.3 873.6C256.3 896.1 264.8 915.5 276.9 923.8V928.1H290.1C308.8 928.1 323.9 903.7 323.9 873.6C323.9 843.5 308.8 819.1 290.1 819.1Z" fill="#3F4249"/>
<path opacity="0.3" d="M290.1 819.1H276.9V823.4C264.8 831.7 256.3 851.1 256.3 873.6C256.3 896.1 264.8 915.5 276.9 923.8V928.1H290.1C308.8 928.1 323.9 903.7 323.9 873.6C323.9 843.5 308.8 819.1 290.1 819.1Z" fill="black"/>
<path d="M276.9 928.2C295.567 928.2 310.7 903.8 310.7 873.7C310.7 843.601 295.567 819.2 276.9 819.2C258.233 819.2 243.1 843.601 243.1 873.7C243.1 903.8 258.233 928.2 276.9 928.2Z" fill="#3F4249"/>
<path opacity="0.3" d="M261.1 888.8C263.751 888.8 265.9 881.816 265.9 873.2C265.9 864.584 263.751 857.6 261.1 857.6C258.449 857.6 256.3 864.584 256.3 873.2C256.3 881.816 258.449 888.8 261.1 888.8Z" fill="black"/>
<path opacity="0.3" d="M281.7 888.8C284.351 888.8 286.5 881.816 286.5 873.2C286.5 864.584 284.351 857.6 281.7 857.6C279.049 857.6 276.9 864.584 276.9 873.2C276.9 881.816 279.049 888.8 281.7 888.8Z" fill="black"/>
<path opacity="0.3" d="M359 809.1C363.252 809.1 366.7 802.429 366.7 794.2C366.7 785.971 363.252 779.3 359 779.3C354.747 779.3 351.3 785.971 351.3 794.2C351.3 802.429 354.747 809.1 359 809.1Z" fill="black"/>
<path opacity="0.3" d="M309.7 809.1C313.952 809.1 317.4 802.429 317.4 794.2C317.4 785.971 313.952 779.3 309.7 779.3C305.447 779.3 302 785.971 302 794.2C302 802.429 305.447 809.1 309.7 809.1Z" fill="black"/>
<path d="M445.9 764.3C447.4 758.9 448.3 753 448.3 746.6C448.3 723.9 437.1 705.5 423.3 705.5C409.5 705.5 398.3 723.9 398.3 746.6C398.3 749.7 398.5 752.7 398.9 755.5L445.9 764.3Z" fill="#3F4249"/>
<path opacity="0.3" d="M425.5 747.5C426.6 747.7 427.7 746.9 427.7 745.7C427.8 741.1 427.6 733 427.6 731.2C427.6 723.4 423.3 717.1 418.1 717.1C412.9 717.1 408.6 723.4 408.6 731.2C408.6 732.1 408.5 739.4 408.5 742.7C408.5 743.6 409.1 744.3 410 744.5L425.5 747.5Z" fill="black"/>
<g opacity="0.2">
<path opacity="0.2" d="M398.8 748.3C398.3 748.3 398 747.9 398 747.5C398.3 737.4 400 728.8 400 728.7C400.1 728.3 400.5 728 401 728.1C401.4 728.2 401.7 728.6 401.6 729.1C401.6 729.2 399.9 737.6 399.7 747.6C399.6 748 399.3 748.3 398.8 748.3Z" fill="black"/>
</g>
<path opacity="0.3" d="M457.7 756.4H459.7C458.4 745.2 453.4 735.5 447.6 728.9H445.8C447.4 734.3 448.2 740.3 448.2 746.6V746.7C448.2 752 452.4 756.4 457.7 756.4Z" fill="black"/>
<path d="M609.6 780H455C451.4 780 448.6 777.1 448.6 773.6C448.6 770 451.5 767.2 455 767.2H609.6C613.2 767.2 616 770.1 616 773.6C616.1 777.1 613.2 780 609.6 780Z" fill="#3F4249"/>
<path opacity="0.5" d="M609.6 780H455C451.4 780 448.6 777.1 448.6 773.6C448.6 770 451.5 767.2 455 767.2H609.6C613.2 767.2 616 770.1 616 773.6C616.1 777.1 613.2 780 609.6 780Z" fill="black"/>
<path d="M470.5 780H602.6C608.5 767.4 610.9 753 608.7 738.3C602.7 698.5 565.6 671 525.8 676.9L513.8 678.7L514 679.7C480.7 690.5 459.2 724.1 464.5 759.8C465.5 767 467.6 773.7 470.5 780Z" class="change-color-in-svg" fill="#4D61FC"/>
<path opacity="0.3" d="M470.5 780H602.6C608.5 767.4 610.9 753 608.7 738.3C602.7 698.5 565.6 671 525.8 676.9L513.8 678.7L514 679.7C480.7 690.5 459.2 724.1 464.5 759.8C465.5 767 467.6 773.7 470.5 780Z" fill="black"/>
<path d="M461.9 780.001H595.1C600.6 767.701 602.8 753.801 600.6 739.501C594.6 699.701 557.5 672.201 517.7 678.101C477.9 684.101 450.4 721.201 456.3 761.001C457.4 767.701 459.3 774.001 461.9 780.001Z" class="change-color-in-svg" fill="#4D61FC"/>
<path d="M550.4 737.7C550.1 737.5 549.8 737.4 549.4 737.5L542.5 738.5C541.7 736.3 540.6 734.5 539.1 733.1L548.5 731.7C548.9 731.6 549.2 731.5 549.4 731.2C549.6 730.9 549.7 730.6 549.6 730.2L549 726.1C548.9 725.7 548.8 725.4 548.5 725.2C548.2 725 547.9 724.9 547.5 725L514.1 730C513.7 730.1 513.4 730.2 513.2 730.5C513 730.8 512.9 731.1 513 731.5L513.8 736.8C513.9 737.1 514 737.4 514.3 737.6C514.6 737.8 514.9 737.9 515.3 737.8L521.1 736.9C526.8 736.1 530.6 737 532.5 739.8L515.9 742.3C515.5 742.4 515.2 742.5 515 742.8C514.8 743.1 514.7 743.4 514.8 743.8L515.4 747.9C515.5 748.3 515.6 748.6 515.9 748.8C516.2 749 516.5 749.1 516.9 749L534.1 746.4C533.8 748.7 532.7 750.6 530.7 752C528.7 753.5 526 754.5 522.4 755L517.9 755.7C517.6 755.8 517.3 755.9 517.1 756.2C516.9 756.5 516.8 756.8 516.9 757.2L517.7 762.3C517.8 762.6 517.9 762.9 518.2 763.1C524.2 767.8 528.4 771.2 538 779.8C538.5 779.8 546.9 779 546.9 779C547.5 778.9 547.8 778.6 548 778.1C548.2 777.6 548.1 777.1 547.6 776.8C538.3 768.4 534.7 765.4 529.6 761.3C534.1 760.1 537.5 758.1 540 755.2C542.5 752.4 543.7 749 543.8 745L550.5 744C550.9 743.9 551.2 743.8 551.4 743.5C551.6 743.2 551.7 742.9 551.6 742.5L551 738.4C550.8 738.1 550.6 737.9 550.4 737.7Z" class="change-color-in-svg" fill="#4D61FC"/>
<path opacity="0.3" d="M476.4 780.001H580.5C587 768.701 589.8 755.301 587.8 741.401C582.9 708.601 552.4 686.101 519.6 691.001C486.8 695.901 464.3 726.401 469.2 759.201C470.3 766.701 472.8 773.701 476.4 780.001Z" fill="black"/>
<path opacity="0.3" d="M514.2 737.701C514.5 737.901 514.8 738.001 515.2 737.901L521 737.001C526.7 736.201 530.5 737.101 532.4 739.901L515.8 742.401C515.4 742.501 515.1 742.601 514.9 742.901C514.7 743.201 514.6 743.501 514.7 743.901L515.3 748.001C515.4 748.401 515.5 748.701 515.8 748.901C516.1 749.101 516.4 749.201 516.8 749.101L534 746.501C533.7 748.801 532.6 750.701 530.6 752.101C528.6 753.601 525.9 754.601 522.3 755.101L517.8 755.801C517.5 755.901 517.2 756.001 517 756.301C516.8 756.601 516.7 756.901 516.8 757.301L517.6 762.401C517.7 762.701 517.8 763.001 518.1 763.201C524.1 767.901 528.3 771.301 537.9 779.901H541.2L546.8 779.101C547.4 779.001 547.7 778.701 547.9 778.201C548.1 777.701 548 777.201 547.5 776.901C538.2 768.501 534.6 765.501 529.5 761.401C534 760.201 537.4 758.201 539.9 755.301C542.4 752.501 543.6 749.101 543.7 745.101L550.5 744.101C550.9 744.001 551.2 743.901 551.4 743.601C551.6 743.301 551.7 743.001 551.6 742.601L551 738.501C550.9 738.101 550.8 737.801 550.5 737.601C550.2 737.401 549.9 737.301 549.5 737.401L542.6 738.401C541.8 736.201 540.7 734.401 539.2 733.001L548.6 731.601C549 731.501 549.3 731.401 549.5 731.101C549.7 730.801 549.8 730.501 549.7 730.101L549.1 726.001C549 725.601 548.9 725.301 548.6 725.101C548.3 724.901 548 724.801 547.6 724.901L514.2 729.901C513.8 730.001 513.5 730.101 513.3 730.401C513.1 730.701 513 731.001 513.1 731.401L513.9 736.701C513.8 737.201 513.9 737.401 514.2 737.701Z" fill="black"/>
<path opacity="0.2" d="M476.4 780H483.5C479.6 773.5 476.9 766.1 475.7 758.1C471 726.4 491.9 696.9 522.9 690.5C521.8 690.6 520.7 690.701 519.6 690.901C486.8 695.801 464.3 726.3 469.2 759.1C470.3 766.7 472.8 773.7 476.4 780Z" fill="black"/>
<path d="M541.4 779.9C541.9 779.8 542.2 779.5 542.3 779C542.5 778.5 542.4 778 541.9 777.7C532.6 769.3 529 766.3 523.9 762.2C528.4 761 531.8 759 534.3 756.1C536.8 753.3 538 749.9 538.1 745.9L544.8 744.9C545.2 744.8 545.5 744.7 545.7 744.4C545.9 744.1 546 743.8 545.9 743.4L545.3 739.3C545.2 738.9 545.1 738.6 544.8 738.4C544.5 738.2 544.2 738.1 543.8 738.2L536.9 739.2C536.1 737 535 735.2 533.5 733.8L542.9 732.4C543.3 732.3 543.6 732.2 543.8 731.9C544 731.6 544.1 731.3 544 730.9L543.4 726.8C543.3 726.4 543.2 726.1 542.9 725.9C542.6 725.7 542.3 725.6 541.9 725.7L508.5 730.7C508.1 730.8 507.8 730.9 507.6 731.2C507.4 731.5 507.3 731.8 507.4 732.2L508.2 737.5C508.3 737.8 508.4 738.1 508.7 738.3C509 738.5 509.3 738.6 509.7 738.5L515.5 737.6C521.2 736.8 525 737.7 526.9 740.5L510.3 743C509.9 743.1 509.6 743.2 509.4 743.5C509.2 743.8 509.1 744.1 509.2 744.5L509.8 748.6C509.9 749 510 749.3 510.3 749.5C510.6 749.7 510.9 749.8 511.3 749.7L528.5 747.1C528.2 749.4 527.1 751.3 525.1 752.7C523.1 754.2 520.4 755.2 516.8 755.7L512.3 756.4C512 756.5 511.7 756.6 511.5 756.9C511.3 757.2 511.2 757.5 511.3 757.9L512.1 763C512.2 763.3 512.3 763.6 512.6 763.8C518.4 768.3 522.5 771.7 531.4 779.6H541.4V779.9Z" class="change-color-in-svg" fill="#4D61FC"/>
<path opacity="0.5" d="M616.1 773.7H448.6C448.7 777.2 451.5 780 455 780H609.6C613.1 780 616 777.2 616.1 773.7Z" fill="black"/>
<path d="M1387.8 1026.7H244.8C244.3 1026.7 243.9 1026.3 243.9 1025.8C243.9 1025.3 244.3 1024.9 244.8 1024.9H1387.8C1388.3 1024.9 1388.7 1025.3 1388.7 1025.8C1388.7 1026.3 1388.3 1026.7 1387.8 1026.7Z" fill="#B2B6BB"/>
<path d="M748.4 776.7C745.8 776.2 744.1 773.7 744.6 771.1C744.7 770.5 744.3 769.8 743.7 769.7C743.1 769.6 742.4 770 742.3 770.6C741.8 773.2 739.3 774.9 736.7 774.4C736.1 774.3 735.4 774.7 735.3 775.3C735.2 775.9 735.6 776.6 736.2 776.7C738.8 777.2 740.5 779.7 740 782.3C739.9 782.9 740.3 783.6 740.9 783.7C741.5 783.8 742.2 783.4 742.3 782.8C742.8 780.2 745.3 778.5 747.9 779C748.5 779.1 749.2 778.7 749.3 778.1C749.4 777.5 749 776.9 748.4 776.7Z" class="change-color-in-svg" fill="#4D61FC"/>
<path opacity="0.5" d="M748.4 776.7C745.8 776.2 744.1 773.7 744.6 771.1C744.7 770.5 744.3 769.8 743.7 769.7C743.1 769.6 742.4 770 742.3 770.6C741.8 773.2 739.3 774.9 736.7 774.4C736.1 774.3 735.4 774.7 735.3 775.3C735.2 775.9 735.6 776.6 736.2 776.7C738.8 777.2 740.5 779.7 740 782.3C739.9 782.9 740.3 783.6 740.9 783.7C741.5 783.8 742.2 783.4 742.3 782.8C742.8 780.2 745.3 778.5 747.9 779C748.5 779.1 749.2 778.7 749.3 778.1C749.4 777.5 749 776.9 748.4 776.7Z" fill="white"/>
<path d="M665.9 575C663.3 574.5 661.6 572 662.1 569.4C662.2 568.8 661.8 568.1 661.2 568C660.6 567.9 659.9 568.3 659.8 568.9C659.3 571.5 656.8 573.2 654.2 572.7C653.6 572.6 652.9 573 652.8 573.6C652.7 574.2 653.1 574.9 653.7 575C656.3 575.5 658 578 657.5 580.6C657.4 581.2 657.8 581.9 658.4 582C659 582.1 659.7 581.7 659.8 581.1C660.3 578.5 662.8 576.8 665.4 577.3C666 577.4 666.7 577 666.8 576.4C667 575.7 666.6 575.1 665.9 575Z" class="change-color-in-svg" fill="#4D61FC"/>
<path opacity="0.5" d="M665.9 575C663.3 574.5 661.6 572 662.1 569.4C662.2 568.8 661.8 568.1 661.2 568C660.6 567.9 659.9 568.3 659.8 568.9C659.3 571.5 656.8 573.2 654.2 572.7C653.6 572.6 652.9 573 652.8 573.6C652.7 574.2 653.1 574.9 653.7 575C656.3 575.5 658 578 657.5 580.6C657.4 581.2 657.8 581.9 658.4 582C659 582.1 659.7 581.7 659.8 581.1C660.3 578.5 662.8 576.8 665.4 577.3C666 577.4 666.7 577 666.8 576.4C667 575.7 666.6 575.1 665.9 575Z" fill="white"/>
<path d="M901.2 656C898.6 655.5 896.9 653 897.4 650.4C897.5 649.8 897.1 649.1 896.5 649C895.9 648.9 895.2 649.3 895.1 649.9C894.6 652.5 892.1 654.2 889.5 653.7C888.9 653.6 888.2 654 888.1 654.6C888 655.2 888.4 655.9 889 656C891.6 656.5 893.3 659 892.8 661.6C892.7 662.2 893.1 662.9 893.7 663C894.3 663.1 895 662.7 895.1 662.1C895.6 659.5 898.1 657.8 900.7 658.3C901.3 658.4 902 658 902.1 657.4C902.2 656.8 901.9 656.1 901.2 656Z" class="change-color-in-svg" fill="#4D61FC"/>
<path d="M544.5 648.9C541.9 648.4 540.2 645.9 540.7 643.3C540.8 642.7 540.4 642 539.8 641.9C539.2 641.8 538.5 642.2 538.4 642.8C537.9 645.4 535.4 647.1 532.8 646.6C532.2 646.5 531.5 646.9 531.4 647.5C531.3 648.1 531.7 648.8 532.3 648.9C534.9 649.4 536.6 651.9 536.1 654.5C536 655.1 536.4 655.8 537 655.9C537.6 656 538.3 655.6 538.4 655C538.9 652.4 541.4 650.7 544 651.2C544.6 651.3 545.3 650.9 545.4 650.3C545.6 649.7 545.2 649 544.5 648.9Z" class="change-color-in-svg" fill="#4D61FC"/>
<path d="M643 700.1C644.491 700.1 645.7 698.891 645.7 697.4C645.7 695.909 644.491 694.7 643 694.7C641.509 694.7 640.3 695.909 640.3 697.4C640.3 698.891 641.509 700.1 643 700.1Z" class="change-color-in-svg" fill="#4D61FC"/>
<path d="M838 740.6C839.491 740.6 840.7 739.391 840.7 737.9C840.7 736.409 839.491 735.2 838 735.2C836.509 735.2 835.3 736.409 835.3 737.9C835.3 739.391 836.509 740.6 838 740.6Z" class="change-color-in-svg" fill="#4D61FC"/>
<path d="M645.4 331.5H475.4V472.6H645.4V331.5Z" class="change-color-in-svg" fill="#4D61FC"/>
<path opacity="0.8" d="M645.4 331.5H475.4V472.6H645.4V331.5Z" fill="white"/>
<path d="M633.3 344.2H487.5V459.9H633.3V344.2Z" fill="white"/>
<path d="M649.1 331.5H645.4V472.6H649.1V331.5Z" fill="#B2B6BB"/>
<path d="M571.455 447.632V439.732H541.755V447.632H571.455Z" class="change-color-in-svg" fill="#4D61FC"/>
<path opacity="0.2" d="M556.6 430.4C576.261 430.4 592.2 414.462 592.2 394.8C592.2 375.139 576.261 359.2 556.6 359.2C536.939 359.2 521 375.139 521 394.8C521 414.462 536.939 430.4 556.6 430.4Z" fill="black"/>
<path d="M808.6 260.4H713.7V392.7H808.6V260.4Z" fill="white"/>
<path d="M808.549 392.774H810.949V260.474H808.549V392.774Z" fill="#B2B6BB"/>
<path d="M796.7 273.1H725.6V380.2H796.7V273.1Z" fill="#DADDDF"/>
</svg>