<svg xmlns="http://www.w3.org/2000/svg" xmlns:xlink="http://www.w3.org/1999/xlink" id="Layer_1" data-name="Layer 1" viewBox="0 0 1891.51 1394.77"><defs xmlns="http://www.w3.org/2000/svg"><style>.cls-1{fill:none;}.cls-2{fill:#f2f2f2;}.cls-3{fill:#d3d3d3;}.cls-4{fill:#0e538c;}.cls-5{fill:#0b4870;}.cls-6{fill:#bd4242;}.cls-7{fill:#fcf47e;}.cls-8{clip-path:url(#clip-path);}.cls-9{fill:#2a94f4;}.cls-10{fill:#fff;}.cls-11{clip-path:url(#clip-path-2);}.cls-12{fill:#ffe3ca;}.cls-13{fill:#f7be89;}.cls-14{fill:#fcd2b1;}</style><clipPath id="clip-path" transform="translate(-19.83 -343.41)"><path class="cls-1" d="M1013,1026.12c-4,2.06-14,17.21,13.39,27.8s58.24,24.37,131.13,24.37h239.83s54.73-1.36,97.18-16.66h0c-53.3-27.63-93.1-46.27-125-57.73C1067.25,990.84,1028.18,1018.27,1013,1026.12Z"/></clipPath><clipPath id="clip-path-2" transform="translate(-19.83 -343.41)"><path class="cls-1" d="M203.89,1331.11C277,1428.69,363.27,1465,531.09,1533c343.35,139.1,734.06,170,1021.25,45.17,210-91.22,306.6-227.25,350.24-521,36-242.57-39.09-575.22-225.32-649.33-198.94-79.16-365.78,200-642.64,115.66C886.34,478.35,887,383.92,734.85,352c-174.15-36.47-370.23,46.3-491.78,180.6C38.92,758.2,49.1,1124.57,203.89,1331.11Z"/></clipPath></defs><title xmlns="http://www.w3.org/2000/svg">Uber (App)</title><path xmlns="http://www.w3.org/2000/svg" class="cls-2" d="M203.89,1331.11C277,1428.69,363.27,1465,531.09,1533c343.35,139.1,734.06,170,1021.25,45.17,210-91.22,306.6-227.25,350.24-521,36-242.57-39.09-575.22-225.32-649.33-198.94-79.16-365.78,200-642.64,115.66C886.34,478.35,887,383.92,734.85,352c-174.15-36.47-370.23,46.3-491.78,180.6C38.92,758.2,49.1,1124.57,203.89,1331.11Z" transform="translate(-19.83 -343.41)"/><rect xmlns="http://www.w3.org/2000/svg" class="cls-3" x="260.51" y="322.77" width="303" height="627"/><rect xmlns="http://www.w3.org/2000/svg" class="cls-3" x="644.51" y="469.77" width="232" height="480"/><rect xmlns="http://www.w3.org/2000/svg" class="cls-3" x="833.51" y="381.77" width="331" height="568"/><rect xmlns="http://www.w3.org/2000/svg" class="cls-3" x="1359.51" y="540.77" width="351" height="409"/><rect xmlns="http://www.w3.org/2000/svg" class="cls-4" x="127.01" y="930.27" width="1706" height="87"/><path xmlns="http://www.w3.org/2000/svg" class="cls-5" d="M923.81,1172.05c0-4.13-.76-3.49-4.89-3.49H836.68c-4.13,0-7.47,1.35-7.47,5.48l7.47,44.37c0,4.12,3.35,7,7.48,7h74.76c4.13,0,4.89-4.36,4.89-8.49Z" transform="translate(-19.83 -343.41)"/><path xmlns="http://www.w3.org/2000/svg" class="cls-6" d="M1494.52,1059.92s134.21,3.8,178.79,7.47c53,4.36,154,29.2,154,70.71,0,60.11-45,103.1-80.52,103.1-218.34,0-827.28-1.87-827.28-1.87s-25.41,5.41-47.23-28.42-72-103.65-34.37-129.3c0,0,138-95.48,281.49-95.48,0,0,85.52-3,123.32-3.36C1302,982.13,1345.85,982.86,1494.52,1059.92Z" transform="translate(-19.83 -343.41)"/><path xmlns="http://www.w3.org/2000/svg" class="cls-7" d="M1808.82,1126.47c-1.63,4.92-26.32,1.18-55.16-8.36s-50.9-21.24-49.27-26.16,26.32-1.18,55.15,8.35S1810.44,1121.55,1808.82,1126.47Z" transform="translate(-19.83 -343.41)"/><path xmlns="http://www.w3.org/2000/svg" class="cls-5" d="M853.61,1100.76a27.79,27.79,0,0,0-11-22.24c-3,2-4.66,3.09-4.66,3.09-15,10.22-16,27.48-10.49,46.67C841.93,1128,853.61,1115.83,853.61,1100.76Z" transform="translate(-19.83 -343.41)"/><path xmlns="http://www.w3.org/2000/svg" class="cls-5" d="M1139.26,1198.61a93.13,93.13,0,1,1-93.14-93.12A93.13,93.13,0,0,1,1139.26,1198.61Z" transform="translate(-19.83 -343.41)"/><path xmlns="http://www.w3.org/2000/svg" class="cls-2" d="M1108.73,1198.61a62.6,62.6,0,1,1-62.61-62.59A62.61,62.61,0,0,1,1108.73,1198.61Z" transform="translate(-19.83 -343.41)"/><path xmlns="http://www.w3.org/2000/svg" class="cls-5" d="M1061.31,1198.62a15.18,15.18,0,1,1-15.18-15.18A15.18,15.18,0,0,1,1061.31,1198.62Z" transform="translate(-19.83 -343.41)"/><path xmlns="http://www.w3.org/2000/svg" class="cls-5" d="M1722.34,1198.61a93.13,93.13,0,1,1-93.14-93.12A93.13,93.13,0,0,1,1722.34,1198.61Z" transform="translate(-19.83 -343.41)"/><path xmlns="http://www.w3.org/2000/svg" class="cls-2" d="M1691.81,1198.61A62.6,62.6,0,1,1,1629.2,1136,62.61,62.61,0,0,1,1691.81,1198.61Z" transform="translate(-19.83 -343.41)"/><path xmlns="http://www.w3.org/2000/svg" class="cls-5" d="M1644.4,1198.62a15.19,15.19,0,1,1-15.19-15.18A15.19,15.19,0,0,1,1644.4,1198.62Z" transform="translate(-19.83 -343.41)"/><rect xmlns="http://www.w3.org/2000/svg" class="cls-5" x="1097.89" y="875.29" width="434.63" height="23.4"/><g xmlns="http://www.w3.org/2000/svg" class="cls-8"><path class="cls-9" d="M1013,1026.12c-4,2.06-14,17.21,13.39,27.8s58.24,24.37,131.13,24.37h239.83s54.73-1.36,97.18-16.66h0c-53.3-27.63-93.1-46.27-125-57.73C1067.25,990.84,1028.18,1018.27,1013,1026.12Z" transform="translate(-19.83 -343.41)"/><rect class="cls-5" x="1084.52" y="651.29" width="13.37" height="90.27"/><rect class="cls-5" x="1358.5" y="939.94" width="14.95" height="194.22" transform="translate(-200.35 1435.04) rotate(-62.82)"/></g><path xmlns="http://www.w3.org/2000/svg" class="cls-4" d="M1203,1115.06c0,4.13-3.34,6.69-7.48,6.69h-37.37c-4.13,0-7.48-2.56-7.48-6.69h0c0-4.12,3.35-6.68,7.48-6.68h37.37c4.14,0,7.48,2.56,7.48,6.68Z" transform="translate(-19.83 -343.41)"/><polygon xmlns="http://www.w3.org/2000/svg" class="cls-4" points="1318.01 273.77 1048.01 273.77 1048.01 543.77 1144.01 543.77 1183.01 582.77 1222.01 543.77 1318.01 543.77 1318.01 273.77"/><rect xmlns="http://www.w3.org/2000/svg" class="cls-10" x="1067.51" y="289.77" width="233" height="233"/><image xmlns="http://www.w3.org/2000/svg" xmlns:xlink="http://www.w3.org/1999/xlink" width="1200" height="417" transform="translate(1098.11 382.1) scale(0.14)" xlink:href="../Uber.png"/><g xmlns="http://www.w3.org/2000/svg" class="cls-11"><path class="cls-12" d="M749.4,1122.85a12.19,12.19,0,0,0-4.06.71v37a12.18,12.18,0,0,0,4.06.72c9.47,0,21.47-8.61,21.47-19.22S758.87,1122.85,749.4,1122.85Z" transform="translate(-19.83 -343.41)"/><path class="cls-12" d="M750.84,1075.22a10.47,10.47,0,0,0-5.5,1.5v41a10.56,10.56,0,0,0,5.5,1.49c9.47,0,21.46-9.85,21.46-22S760.31,1075.22,750.84,1075.22Z" transform="translate(-19.83 -343.41)"/><path class="cls-12" d="M764.73,947.81a33.91,33.91,0,0,0-19.39,2.48v43.45c16.71.47,27.68-16.3,32-30.9C780.84,951,764.73,947.81,764.73,947.81Z" transform="translate(-19.83 -343.41)"/><path class="cls-12" d="M769.43,1029.1c-8.14-8.61-20.91-2.33-24.09-.56v45.81l7-3.1C776.2,1060.64,786.71,1047.38,769.43,1029.1Z" transform="translate(-19.83 -343.41)"/><path class="cls-13" d="M579.19,1109.38c.27.84.61,1.82.89,2.65l.06.15C579.72,1111,579.42,1110.07,579.19,1109.38Z" transform="translate(-19.83 -343.41)"/><path class="cls-13" d="M579.19,1109.38c-.6-1.75-.94-2.76,0,0Z" transform="translate(-19.83 -343.41)"/><path class="cls-13" d="M580.6,1113.57c-.05-.18-.19-.59-.45-1.34,0,0,0,0,0,0C580.35,1112.84,580.53,1113.35,580.6,1113.57Z" transform="translate(-19.83 -343.41)"/><path class="cls-13" d="M580.15,1112.23a.07.07,0,0,1,0,0h0S580.14,1112.22,580.15,1112.23Z" transform="translate(-19.83 -343.41)"/><path class="cls-13" d="M580.14,1112.18l-.06-.15.06.16Z" transform="translate(-19.83 -343.41)"/><path class="cls-14" d="M493.55,965.78c2.28-3.38,8.85-22.51,8.85-22.51s-6.86-6.65-11.68-9c-5.26,5.42-8.36,20.11-10.21,31.71l5.26,1.29S491.26,969.15,493.55,965.78Z" transform="translate(-19.83 -343.41)"/><path class="cls-12" d="M593.2,1241.49c-12.19,2.35-24.4-7.28-27.12-21.4L539,1079.9c-10.63,8.43-20.12,17.08-20.12,17.08l-13.46-69.78s11.65-27.13,14.09-48.37l-4.93-25.54c-3.58-8.53-9.12-16.54-16.87-20.43-2.69-1.35-5-.65-7,1.42,4.82,2.34,11.68,9,11.68,9s-6.57,19.13-8.85,22.51-7.78,1.5-7.78,1.5L480.51,966c-1.22,7.58-.82,6.12-1.22,7.58-5.6,21.19-25.1,22.34-22.39,43.74,3.39,26.88-16.25,77-5,98.61,10.41,20.11,10.21,44.18,14.21,66.2,1.08,6-1.83,15.48-.89,19.74-8.28,13.94-59.83,61.91-59.83,61.91l89.26,95.14s58.84-65.89,90.6-78.71c48.27-19.49,57.76-36.93,68.23-50.33Z" transform="translate(-19.83 -343.41)"/><rect class="cls-5" x="509.7" y="500.4" width="215.47" height="419.49" rx="25.76"/><rect class="cls-10" x="518.95" y="510.98" width="196.97" height="398.34" rx="24"/><image xmlns:xlink="http://www.w3.org/1999/xlink" width="666" height="630" transform="translate(530.88 628.27) scale(0.26)" xlink:href="../app%20icon.png"/><path class="cls-5" d="M574.92,503.48h85a0,0,0,0,1,0,0v5.42a16.61,16.61,0,0,1-16.61,16.61H591.53a16.61,16.61,0,0,1-16.61-16.61v-5.42A0,0,0,0,1,574.92,503.48Z"/><path class="cls-14" d="M749.74,1387.52l-29-64.89c-9-20.21-17.5-40.45-25.56-60.88l-.09-.16s13.86,86.24,15.74,95.92c4.67,24,29.58,42.29,45.62,58.42,3.06,3.09,48.26,45.61,48.26,45.61h0c-3-3.17-6.14-6.82-9.72-11.24C779,1430.55,760.27,1411.06,749.74,1387.52Z" transform="translate(-19.83 -343.41)"/><path class="cls-12" d="M962.31,1406.64c-20.64-22.67-2.67-73-15.6-100.25-9.4-19.78-25.57-73.52-49.68-78.86-11.24-2.49-18.42,4.11-28.54-6.09-11.34-11.45-18.94,1-30.36-2.21-10.94-3.1-15.21-19.84-28.87-9.19-8.23,3.88-13.55,11.1-23.64,4.9-8.74-5.37-15.53-14-26.5-6-6.83,2.79-10.51,9.78-19.16,5.93-7.81-3.47-12.15-17.17-15.74-24.2l-43.79-85.56c-4.15-8.1-8.86-22.13-16.69-26.31-26.31-14.06-23,31.61-18.65,44L674,1204.86q10.13,28.82,21.21,56.89c8.06,20.43,16.52,40.67,25.56,60.88l29,64.89c10.53,23.54,29.27,43,45.22,62.77,3.58,4.42,6.72,8.07,9.72,11.24,9.28,9.8,17.12,15,31.75,24,17.49,10.77,48.56,50.33,48.56,50.33l115.15-68.43S970.53,1415.65,962.31,1406.64Z" transform="translate(-19.83 -343.41)"/><path class="cls-14" d="M646.74,1084.52s4.49,16.64,10.44,17.54,19.4-5.2,19.36-5.3c-3.59-6.65-6.55-15.4-12.8-18.22a29,29,0,0,0-3.43-1.29C655.18,1078.25,649.09,1080.3,646.74,1084.52Z" transform="translate(-19.83 -343.41)"/><polygon class="cls-6" points="379.4 898.63 497.45 1018.11 243.51 1325.77 0 1257.19 379.4 898.63"/><polygon class="cls-6" points="830.97 1192.33 995.24 1094.91 1195.51 1369.77 955.51 1394.77 830.97 1192.33"/></g></svg>