<svg id="Capa_1" enable-background="new 0 0 496.04 496.04" height="512" viewBox="0 0 496.04 496.04" width="512" xmlns="http://www.w3.org/2000/svg"><g><g><path d="m366.042 240.71v10.34c0 14.81-4.64 29.24-13.27 41.27l-21.58 30.12v158.797c0 8.175-6.627 14.803-14.803 14.803h-153.874c-8.175 0-14.803-6.627-14.803-14.803v-107.067-243.215h218.33z" fill="#fed2a4"/></g><g><path d="m366.042 141.395v-10.439h-202.17-16.16v243.214 107.067c0 8.175 6.627 14.802 14.803 14.802h57.822c-.425-1.379-.656-2.844-.656-4.363v-100.536c17.936-10.859 29.951-30.561 29.951-53.019v-29.801c0-25.018-9.738-48.534-27.429-66.225-.825-.824-1.669-1.627-2.522-2.418v-98.282z" fill="#ffbd86"/><path d="m470.369 16.388c6.055 0 10.965 4.909 10.965 10.965v201.36c0 6.055-4.909 10.964-10.965 10.964h-444.698c-6.055 0-10.964-4.909-10.964-10.964v-201.361c0-6.056 4.909-10.965 10.964-10.965h444.698z" fill="#97da7b"/><path d="m116.584 228.712v-201.36c0-6.056 4.909-10.965 10.964-10.965h-101.877c-6.055 0-10.964 4.909-10.964 10.965v201.36c0 6.055 4.909 10.964 10.964 10.964h101.877c-6.055.001-10.964-4.908-10.964-10.964z" fill="#80d261"/><path d="m165.197 132.22c-10.188-10.208-23.746-15.83-38.176-15.83-.367 0-.738.004-1.109.011-29.147.593-52.86 25.059-52.86 54.538v68.738h146.629c-10.437-9.673-22.947-16.832-36.448-20.948-1.323-.403-2.241-1.604-2.241-2.987v-45.382c0-14.428-5.621-27.986-15.795-38.14z" fill="#80d261"/><path d="m429.37 46.388c0 12.13 9.833 21.963 21.963 21.963v119.363c-12.13 0-21.963 9.833-21.963 21.963h-362.7c0-12.13-9.833-21.963-21.963-21.963v-119.363c12.13 0 21.963-9.833 21.963-21.963z" fill="#dbf1d0"/><path d="m165.197 132.22c-10.188-10.208-23.746-15.83-38.176-15.83-.367 0-.738.004-1.109.011-.032.001-.064.001-.095.002-5.042.112-9.233-3.833-9.233-8.877v-61.138h-49.914c0 12.13-9.833 21.963-21.963 21.963v119.363c12.13 0 21.963 9.833 21.963 21.963h114.322v-39.317c0-14.428-5.621-27.986-15.795-38.14z" fill="#d5efc8"/><g><circle cx="248.082" cy="123.303" fill="#97da7b" r="58.465"/><g id="XMLID_480_"><g fill="#fed2a4"><path d="m337.852 17.03v29.35c0 13.88-11.26 25.13-25.14 25.13s-25.13-11.25-25.13-25.13v-29.35c0-9.41 7.63-17.03 17.04-17.03h16.19c9.41 0 17.04 7.62 17.04 17.03z"/><path d="m287.582 46.38v10.4c0 13.88-11.25 25.13-25.13 25.13s-25.13-11.25-25.13-25.13v-39.75c0-9.41 7.62-17.03 17.03-17.03h16.2c9.41 0 17.03 7.62 17.03 17.03z"/><path d="m237.322 56.78v8.47c0 13.88-11.26 25.13-25.14 25.13s-25.13-11.25-25.13-25.13v-8.47-39.75c0-9.41 7.63-17.03 17.04-17.03h16.19c9.41 0 17.04 7.62 17.04 17.03z"/><path d="m187.052 17.03v39.75c0 13.88-11.25 25.13-25.13 25.13s-25.13-11.25-25.13-25.13v-39.75c0-9.41 7.62-17.03 17.03-17.03h16.2c9.41 0 17.03 7.62 17.03 17.03z"/></g></g><g id="XMLID_482_"><g fill="#ffbd86"><path d="m311.772 46.38v-29.35c0-8.03 5.604-14.748 13.081-16.549-1.285-.309-2.661-.481-4.041-.481h-16.19c-9.41 0-17.04 7.62-17.04 17.03v29.35c0 13.88 11.25 25.13 25.13 25.13 4.385 0 8.507-1.125 12.096-3.099-7.769-4.274-13.036-12.536-13.036-22.031z"/><path d="m261.512 56.78v-39.75c0-8.031 5.598-14.751 13.075-16.55-1.283-.308-2.656-.48-4.035-.48h-16.2c-9.41 0-17.03 7.62-17.03 17.03v39.75c0 13.88 11.25 25.13 25.13 25.13 4.385 0 8.506-1.125 12.095-3.1-7.769-4.274-13.035-12.535-13.035-22.03z"/><path d="m211.242 65.25v-8.47-39.75c0-8.03 5.617-14.745 13.094-16.545-1.285-.31-2.674-.485-4.054-.485h-16.19c-9.41 0-17.04 7.62-17.04 17.03v39.75 8.47c0 13.88 11.25 25.13 25.13 25.13 4.385 0 8.507-1.125 12.096-3.099-7.769-4.274-13.036-12.536-13.036-22.031z"/><path d="m160.982 56.78v-39.75c0-8.031 5.601-14.75 13.078-16.549-1.284-.309-2.659-.481-4.038-.481h-16.2c-9.41 0-17.03 7.62-17.03 17.03v39.75c0 13.88 11.25 25.13 25.13 25.13 4.385 0 8.507-1.125 12.095-3.1-7.769-4.274-13.035-12.535-13.035-22.03z"/></g></g></g></g><g id="XMLID_477_"><g><path d="m224.632 338.121c0 20.716-17.038 37.38-37.749 36.919l-39.171-.871-34.31-34.31c-9.83-9.83-15.35-23.16-15.35-37.05v-131.87c0-15.862 12.509-29.221 28.368-29.543 8.238-.167 15.711 3.103 21.082 8.484 5.25 5.24 8.49 12.48 8.49 20.48v61.764c0 4.092 3.1 7.504 7.171 7.926 16.088 1.67 30.528 8.897 41.369 19.73 12.42 12.42 20.1 29.58 20.1 48.54z" fill="#fed2a4"/></g></g><g><path d="m182.21 369.945.009-.009-30.077-30.077c-9.83-9.83-15.35-23.16-15.35-37.05v-131.87c0-8.66 3.734-16.568 9.701-22.022-5.279-4.805-12.338-7.678-20.073-7.521-15.859.322-28.368 13.681-28.368 29.543v131.871c0 13.89 5.52 27.22 15.35 37.05l34.31 34.31 39.171.871c.141.003.28-.004.42-.002z" fill="#ffbd86"/></g></g></svg>