<svg id="Capa_1" enable-background="new 0 0 512 512" height="512" viewBox="0 0 512 512" width="512" xmlns="http://www.w3.org/2000/svg"><g><path d="m432.838 190.099c-1.935-45.968-39.997-82.768-86.508-82.768-11.771 0-23.453 2.41-34.202 7.016-21.202-39.314-61.252-64.749-106.242-66.951-41.243-2.017-81.236 16.316-106.985 49.045-2.561 3.255-1.999 7.971 1.257 10.532s7.971 1.998 10.532-1.257c22.751-28.918 58.062-45.117 94.463-43.338 41.955 2.053 79.041 26.996 96.787 65.093.873 1.873 2.479 3.303 4.441 3.953s4.103.462 5.923-.521c10.38-5.608 22.146-8.573 34.026-8.573 39.472 0 71.585 32.049 71.585 71.443 0 .905-.025 1.888-.082 3.186-.089 2.044.661 4.036 2.075 5.513 1.415 1.478 3.372 2.313 5.418 2.313.053 0 .119-.001.184-.002 39.43.051 71.49 32.081 71.49 71.443 0 .836-.016 1.67-.043 2.497-.546 15.844-7.301 30.65-19.021 41.69-11.696 11.017-27.007 17.084-43.11 17.084h-64.334c-1.87-66.607-56.632-120.218-123.684-120.218-67.051 0-121.814 53.61-123.684 120.218h-45.949c-16.104 0-31.414-6.067-43.111-17.084-11.721-11.04-18.476-25.846-19.021-41.688-.028-.829-.043-1.663-.043-2.499 0-37.48 29.33-68.783 66.771-71.263 2.144-.142 4.123-1.196 5.438-2.896 1.314-1.699 1.836-3.88 1.435-5.99-1.364-7.166-2.036-14.497-1.996-21.789.079-14.623 2.967-28.852 8.583-42.293 1.597-3.822-.207-8.215-4.029-9.812-3.823-1.597-8.215.207-9.812 4.029-6.375 15.257-9.652 31.405-9.743 47.994-.03 5.575.306 11.17 1.003 16.715-41.34 6.7-72.65 42.705-72.65 85.306 0 1.008.018 2.012.052 3.013.682 19.823 9.108 38.324 23.728 52.094 14.49 13.648 33.453 21.165 53.395 21.165h46.433c5.812 62.865 58.842 112.256 123.199 112.256 31.455 0 61.434-11.814 84.416-33.266 3.027-2.826 3.19-7.572.364-10.6-2.825-3.028-7.571-3.192-10.601-.365-20.193 18.85-46.537 29.23-74.179 29.23-59.958 0-108.737-48.779-108.737-108.737s48.779-108.737 108.737-108.737 108.737 48.779 108.737 108.737c0 19.914-5.429 39.389-15.7 56.318-2.148 3.541-1.02 8.154 2.521 10.302 3.542 2.147 8.153 1.021 10.303-2.522 9.709-16.003 15.604-34.001 17.331-52.617h64.827c19.942 0 38.905-7.517 53.395-21.165 14.619-13.77 23.046-32.27 23.728-52.095.033-1 .052-2.003.052-3.012-.001-45.168-34.881-82.356-79.163-86.127z"/><path d="m298.322 320.866-27.381-27.381c-1.407-1.407-3.314-2.197-5.304-2.197-1.989 0-3.897.79-5.304 2.197l-13.526 13.526-13.526-13.526c-1.406-1.407-3.314-2.197-5.303-2.197s-3.897.79-5.303 2.197l-27.381 27.381c-2.929 2.929-2.929 7.678 0 10.607l13.526 13.526-13.526 13.526c-2.929 2.929-2.929 7.678 0 10.606l27.381 27.381c1.406 1.407 3.314 2.197 5.303 2.197s3.897-.79 5.303-2.197l13.526-13.526 13.526 13.526c1.407 1.407 3.315 2.197 5.304 2.197s3.896-.79 5.304-2.197l27.381-27.381c2.929-2.929 2.929-7.678 0-10.606l-13.526-13.526 13.526-13.526c2.928-2.929 2.928-7.679 0-10.607zm-29.437 29.436 13.526 13.526-16.774 16.774-13.526-13.526c-1.406-1.407-3.314-2.197-5.303-2.197s-3.897.79-5.303 2.197l-13.526 13.527-16.775-16.775 13.526-13.526c2.929-2.929 2.929-7.678 0-10.607l-13.526-13.526 16.775-16.775 13.526 13.527c1.406 1.407 3.314 2.197 5.303 2.197s3.897-.79 5.303-2.197l13.526-13.526 16.774 16.774-13.526 13.526c-2.928 2.929-2.928 7.678 0 10.607z"/></g></svg>