<?xml version="1.0" encoding="iso-8859-1"?>
<!-- Generator: Adobe Illustrator 19.0.0, SVG Export Plug-In . SVG Version: 6.00 Build 0)  -->
<svg version="1.1" id="Capa_1" xmlns="http://www.w3.org/2000/svg" xmlns:xlink="http://www.w3.org/1999/xlink" x="0px" y="0px"
	 viewBox="0 0 468.293 468.293" style="enable-background:new 0 0 468.293 468.293;" xml:space="preserve">
<g>
	<polygon style="fill:#44C4A1;" points="113.129,184.779 0,153.768 0,382.887 113.129,208.443 	"/>
	<path style="fill:#44C4A1;" d="M113.129,10.709l-87.43,21.677C11.506,35.906,0,50.265,0,64.458v41.456l113.129,31.011V10.709z"/>
	<path style="fill:#44C4A1;" d="M442.594,8.632L296.907,41.487v222.16l22.055,6.54L468.293,43.27V28.536
		C468.293,14.343,456.787,5.431,442.594,8.632z"/>
	<polygon style="fill:#44C4A1;" points="468.293,314.471 468.293,83.849 341.306,276.814 	"/>
	<path style="fill:#44C4A1;" d="M296.907,352.08v108.232l145.687-32.855c14.193-3.201,25.699-17.302,25.699-31.495v-33.637
		l-149.042-44.198L296.907,352.08z"/>
	<path style="fill:#44C4A1;" d="M0,423.466v8.418c0,14.193,11.506,22.846,25.699,19.327l87.43-21.677V249.023L0,423.466z"/>
</g>
<g>
	<polygon style="fill:#F6C358;" points="113.129,136.925 0,105.914 0,153.768 113.129,184.779 	"/>
	<polygon style="fill:#F6C358;" points="113.129,208.443 0,382.887 0,423.466 113.129,249.023 	"/>
	<polygon style="fill:#F6C358;" points="296.907,263.647 296.907,311.501 296.907,352.08 319.251,318.126 468.293,362.325 
		468.293,314.471 341.306,276.814 468.293,83.849 468.293,43.27 318.962,270.187 	"/>
</g>
<g>
	<polygon style="fill:#3EA69B;" points="113.129,184.779 113.129,208.443 126.159,193.702 	"/>
	<polygon style="fill:#3EA69B;" points="151.091,162.921 263.941,35.249 113.129,10.709 113.129,136.925 	"/>
	<polygon style="fill:#3EA69B;" points="173.434,178.222 296.907,262.772 296.907,40.612 295.3,40.351 	"/>
	<polygon style="fill:#3EA69B;" points="213.269,445.828 296.907,459.437 296.907,351.205 	"/>
	<polygon style="fill:#3EA69B;" points="296.907,310.626 148.503,209.003 113.129,249.023 113.129,429.534 181.912,440.726 	"/>
</g>
<g>
	<polygon style="fill:#F6C358;" points="295.3,40.351 263.941,35.249 151.091,162.921 113.129,136.925 113.129,184.779 
		126.159,193.702 113.129,208.443 113.129,249.023 148.503,209.003 296.907,310.626 296.907,262.772 173.434,178.222 	"/>
	<polygon style="fill:#F6C358;" points="213.269,445.828 296.907,351.205 296.907,310.626 181.912,440.726 	"/>
</g>
<path style="fill:#CE412D;" d="M105.466,72.149c0,20.379-36.9,82.045-36.9,82.045c1.411,0-36.9-61.665-36.9-82.045
	s16.521-36.9,36.9-36.9S105.466,51.769,105.466,72.149z"/>
<circle style="fill:#FFFFFF;" cx="68.564" cy="72.18" r="21.317"/>
<path style="fill:#CE412D;" d="M378.206,307.087c0,20.379-36.9,82.044-36.9,82.044c1.411,0-36.9-61.665-36.9-82.044
	s16.521-36.9,36.9-36.9C361.686,270.187,378.206,286.708,378.206,307.087z"/>
<circle style="fill:#FFFFFF;" cx="341.292" cy="307.088" r="21.317"/>
<g>
</g>
<g>
</g>
<g>
</g>
<g>
</g>
<g>
</g>
<g>
</g>
<g>
</g>
<g>
</g>
<g>
</g>
<g>
</g>
<g>
</g>
<g>
</g>
<g>
</g>
<g>
</g>
<g>
</g>
</svg>
